<svg xmlns="http://www.w3.org/2000/svg" xmlns:xlink="http://www.w3.org/1999/xlink" viewBox="0 0 128 128"><defs><style>.cls-1{fill:none;}.cls-2{isolation:isolate;}.cls-3{fill:url(#Áåçûìÿííûé_ãðàäèåíò_479);}.cls-4{clip-path:url(#clip-path);}.cls-5{fill:url(#Áåçûìÿííûé_ãðàäèåíò_466);}.cls-6{opacity:0.36;}.cls-7{clip-path:url(#clip-path-2);}.cls-16,.cls-28,.cls-31,.cls-33,.cls-34,.cls-35,.cls-36,.cls-37,.cls-38,.cls-39,.cls-40,.cls-41,.cls-42,.cls-43,.cls-44,.cls-45,.cls-46,.cls-47,.cls-48,.cls-49,.cls-50,.cls-51,.cls-52,.cls-8{mix-blend-mode:multiply;}.cls-9{fill:#741d81;}.cls-10,.cls-13,.cls-15{mix-blend-mode:screen;}.cls-11{fill:url(#Áåçûìÿííûé_ãðàäèåíò_351);}.cls-12{fill:url(#Áåçûìÿííûé_ãðàäèåíò_351-2);}.cls-13{opacity:0.82;}.cls-14,.cls-32{fill:#fff;}.cls-15{opacity:0.81;}.cls-16{opacity:0.49;}.cls-17{fill:#954cd4;}.cls-18{fill:url(#radial-gradient);}.cls-19{fill:url(#linear-gradient);}.cls-20{fill:url(#linear-gradient-2);}.cls-21{fill:url(#linear-gradient-3);}.cls-22{fill:url(#linear-gradient-4);}.cls-23{fill:url(#linear-gradient-5);}.cls-24{fill:url(#linear-gradient-6);}.cls-25{fill:url(#linear-gradient-7);}.cls-26{fill:url(#linear-gradient-8);}.cls-27{fill:url(#linear-gradient-9);}.cls-28{fill:url(#linear-gradient-10);}.cls-29{fill:url(#linear-gradient-11);}.cls-30{fill:url(#linear-gradient-12);}.cls-31{fill:url(#linear-gradient-13);}.cls-32{mix-blend-mode:soft-light;}.cls-33{fill:url(#linear-gradient-14);}.cls-34{fill:url(#linear-gradient-15);}.cls-35{fill:url(#linear-gradient-16);}.cls-36{fill:url(#linear-gradient-17);}.cls-37{fill:url(#linear-gradient-18);}.cls-38{fill:url(#linear-gradient-19);}.cls-39{fill:url(#linear-gradient-20);}.cls-40{fill:url(#linear-gradient-21);}.cls-41{fill:url(#linear-gradient-22);}.cls-42{fill:url(#linear-gradient-23);}.cls-43{fill:url(#linear-gradient-24);}.cls-44{fill:url(#linear-gradient-25);}.cls-45{fill:url(#linear-gradient-26);}.cls-46{fill:url(#linear-gradient-27);}.cls-47{fill:url(#linear-gradient-28);}.cls-48{fill:url(#linear-gradient-29);}.cls-49{fill:url(#linear-gradient-30);}.cls-50{fill:url(#linear-gradient-31);}.cls-51{fill:url(#linear-gradient-32);}.cls-52{fill:url(#linear-gradient-33);}</style><linearGradient id="Áåçûìÿííûé_ãðàäèåíò_479" x1="64.18" y1="122.07" x2="64.18" y2="115.05" gradientUnits="userSpaceOnUse"><stop offset="0" stop-color="#bccbef"/><stop offset="0.04" stop-color="#b8bef0"/><stop offset="0.21" stop-color="#ab8ef3"/><stop offset="0.38" stop-color="#9f65f5"/><stop offset="0.55" stop-color="#9646f7"/><stop offset="0.71" stop-color="#902ff8"/><stop offset="0.86" stop-color="#8c22f9"/><stop offset="1" stop-color="#8b1df9"/></linearGradient><clipPath id="clip-path"><path class="cls-1" d="M81.14,58.18c34.72,25.7,4.67,57.25-27.68,66.35-9.31-9.1-39-39.74-13.81-62.91C14.41,28.3,37.74,4.5,73,4.64,92.18,4.5,115.86,27.39,81.14,58.18Z"/></clipPath><radialGradient id="Áåçûìÿííûé_ãðàäèåíò_466" cx="200.66" cy="98.56" fx="185.07121446286214" fy="65.0873173194177" r="51.88" gradientTransform="translate(-141.7 -41.23) scale(1.02 1)" gradientUnits="userSpaceOnUse"><stop offset="0.07" stop-color="#ab77ec"/><stop offset="0.22" stop-color="#aa73ed"/><stop offset="0.38" stop-color="#a567ee"/><stop offset="0.53" stop-color="#9f54f1"/><stop offset="0.68" stop-color="#9539f5"/><stop offset="0.79" stop-color="#8b1df9"/><stop offset="0.82" stop-color="#8c22f9"/><stop offset="0.85" stop-color="#902ff8"/><stop offset="0.89" stop-color="#9646f7"/><stop offset="0.92" stop-color="#9f65f5"/><stop offset="0.96" stop-color="#ab8ef3"/><stop offset="0.99" stop-color="#b8bef0"/><stop offset="1" stop-color="#bccbef"/></radialGradient><clipPath id="clip-path-2"><path class="cls-1" d="M124.67,67.62C115.86,83.88,85.81,115.43,70,106.8c-25.84,8.63-55.58-22-38.36-48.34C14.41,28.3,37.74,4.5,66.3,3.13,92.18,4.5,115.86,27.39,124.67,67.62Z"/></clipPath><linearGradient id="Áåçûìÿííûé_ãðàäèåíò_351" x1="72.04" y1="100.64" x2="106.32" y2="100.64" gradientUnits="userSpaceOnUse"><stop offset="0" stop-color="#406dfb"/><stop offset="1" stop-color="#450651"/></linearGradient><linearGradient id="Áåçûìÿííûé_ãðàäèåíò_351-2" x1="-954.23" y1="-1524.65" x2="-933.35" y2="-1524.65" gradientTransform="translate(-1773.99 92.6) rotate(120.74)" xlink:href="#Áåçûìÿííûé_ãðàäèåíò_351"/><radialGradient id="radial-gradient" cx="65.22" cy="63.94" r="44.84" gradientUnits="userSpaceOnUse"><stop offset="0" stop-color="#fff33b"/><stop offset="1" stop-color="#f9c13b"/></radialGradient><linearGradient id="linear-gradient" x1="106.55" y1="22.54" x2="93.11" y2="35.83" xlink:href="#radial-gradient"/><linearGradient id="linear-gradient-2" x1="122.27" y1="75.75" x2="104.85" y2="69.56" xlink:href="#radial-gradient"/><linearGradient id="linear-gradient-3" x1="63.29" y1="5.83" x2="65.08" y2="23.75" xlink:href="#radial-gradient"/><linearGradient id="linear-gradient-4" x1="62.37" y1="124.84" x2="64.16" y2="106.27" xlink:href="#radial-gradient"/><linearGradient id="linear-gradient-5" x1="8.86" y1="48.58" x2="27.25" y2="62.26" xlink:href="#radial-gradient"/><linearGradient id="linear-gradient-6" x1="119.76" y1="46.19" x2="108.04" y2="52.05" xlink:href="#radial-gradient"/><linearGradient id="linear-gradient-7" x1="29.43" y1="23.57" x2="44.09" y2="33.34" xlink:href="#radial-gradient"/><linearGradient id="linear-gradient-8" x1="25.04" y1="102.4" x2="35.46" y2="91.33" xlink:href="#radial-gradient"/><linearGradient id="linear-gradient-9" x1="94.43" y1="101.7" x2="110.13" y2="101.7" xlink:href="#radial-gradient"/><linearGradient id="linear-gradient-10" x1="65.22" y1="52.11" x2="65.22" y2="98.39" xlink:href="#radial-gradient"/><linearGradient id="linear-gradient-11" x1="59.67" y1="71.37" x2="56.71" y2="95.86" xlink:href="#radial-gradient"/><linearGradient id="linear-gradient-12" x1="34.09" y1="68.72" x2="32.35" y2="83.05" xlink:href="#radial-gradient"/><linearGradient id="linear-gradient-13" x1="72.73" y1="34.4" x2="72.73" y2="54.86" xlink:href="#radial-gradient"/><linearGradient id="linear-gradient-14" x1="106.2" y1="70.91" x2="114.6" y2="70.91" xlink:href="#radial-gradient"/><linearGradient id="linear-gradient-15" x1="106.79" y1="68.5" x2="110.16" y2="68.5" xlink:href="#radial-gradient"/><linearGradient id="linear-gradient-16" x1="106.01" y1="73.32" x2="109.49" y2="73.32" xlink:href="#radial-gradient"/><linearGradient id="linear-gradient-17" x1="95.13" y1="29.64" x2="101.72" y2="29.64" xlink:href="#radial-gradient"/><linearGradient id="linear-gradient-18" x1="99.08" y1="32.1" x2="104.31" y2="32.1" xlink:href="#radial-gradient"/><linearGradient id="linear-gradient-19" x1="94.8" y1="27.24" x2="96.35" y2="27.24" xlink:href="#radial-gradient"/><linearGradient id="linear-gradient-20" x1="63.7" y1="17.93" x2="64.32" y2="17.93" xlink:href="#radial-gradient"/><linearGradient id="linear-gradient-21" x1="72.17" y1="19.18" x2="74.1" y2="19.18" xlink:href="#radial-gradient"/><linearGradient id="linear-gradient-22" x1="54.44" y1="20.28" x2="57.92" y2="20.28" xlink:href="#radial-gradient"/><linearGradient id="linear-gradient-23" x1="39.89" y1="28.18" x2="41.68" y2="28.18" xlink:href="#radial-gradient"/><linearGradient id="linear-gradient-24" x1="36.98" y1="32.46" x2="40.19" y2="32.46" xlink:href="#radial-gradient"/><linearGradient id="linear-gradient-25" x1="16.92" y1="56.53" x2="24.8" y2="56.53" xlink:href="#radial-gradient"/><linearGradient id="linear-gradient-26" x1="22.48" y1="52.64" x2="26.03" y2="52.64" xlink:href="#radial-gradient"/><linearGradient id="linear-gradient-27" x1="16.92" y1="60.92" x2="22.01" y2="60.92" xlink:href="#radial-gradient"/><linearGradient id="linear-gradient-28" x1="30.42" y1="93.83" x2="33.32" y2="93.83" xlink:href="#radial-gradient"/><linearGradient id="linear-gradient-29" x1="34.3" y1="95.75" x2="35.31" y2="95.75" xlink:href="#radial-gradient"/><linearGradient id="linear-gradient-30" x1="63.6" y1="111.68" x2="64.21" y2="111.68" xlink:href="#radial-gradient"/><linearGradient id="linear-gradient-31" x1="68.58" y1="110.55" x2="70.06" y2="110.55" xlink:href="#radial-gradient"/><linearGradient id="linear-gradient-32" x1="56.9" y1="108.87" x2="58.66" y2="108.87" xlink:href="#radial-gradient"/><linearGradient id="linear-gradient-33" x1="99.94" y1="99.38" x2="103.23" y2="99.38" xlink:href="#radial-gradient"/></defs><title>balao_roxo_grande</title><g class="cls-2"><g id="balao_estourado"><g id="balao-estourado"><path class="cls-3" d="M57,121.39c1.85.1,10.17,1.54,12.24-.12,3.53.22,2.35-6.38-1.32-6.21C60,114.89,58.85,121.49,57,121.39Z"/><g class="cls-4"><path class="cls-5" d="M99.54,67.77C122.88,90,97,115.43,34,116.77c-.76-1.34-26.61-26.73-11.74-51C7.39,27.41,33.24,2,78.54-1.52,97,2,122.88,27.41,99.54,67.77Z"/></g><g class="cls-6"><g class="cls-7"><g class="cls-8"><path class="cls-9" d="M40.32,112.21c28.48,8.34,51.21-.22,86.5-17-24.32-4.14-51,25-77.08,9.6-19.86-1.84-24.53-10-32.48-16,37.2,24.29,69.53,18.62,65-4.4,46.46-25.88,38.45-38.11,58.94-34.54-31.46,29.36-75.53,72.82-140,51.5-7.38-36.14,7.44-34.77,32.38-18.5,3.79,19.63,34.4,21.56,61.28,10,24.86-28.37,19.77-49.46,23.71-60-3.94,10.5-2.71-1.18,24,13.8-26.76-15-55.29-46.51-54-34.09,34.56,37.88,6.55,79.84,3.24,88.37C20,89.16,15.07,64-5.51,61.84,15.07,64,11.21,45.27,6.75,42.82c4.46,2.45,6.13-11.72-1.89,3.7,11.07,19.16,18.41,37.92,65.81,34.3C83.81,86,125.46,47.5,77.51,12.42,72.8-11.37,59.36-2.74,117.1,4c-15.8,12.75-13.91,63.57-82.23,73.68-16.25,6-22.19-29-10-34.14C24.5,23.86,17.47,7.13,50,20.61,17.47,7.13,30,7.89,25.14,41c-9.21,4.4-1.94,31,11.43,33.36,43-3.86,61.2-29.72,32.65-40.65C77.08,2.06,65,4.5,29.6,9.89,65,4.5,53.85-2.18,32.19,7.84c21.66-10,3,2.89,6.5-14.65,23.41,10.9,39,27.71,43.13,43.73C77.74,67.88,32.14,66.78,52.38,48,20.52,30,26.83,21.79,73.29,22.68c-38.9-6.56-50.93,4.47-20.29,22-9.24,20.45,11.27,11.32,45.2,3.83-23.87-13.8-32.48-34-38.86-28.26-15.53-13-21.59-5.56,5.89-7.11-27.48,1.55-13-4.64-41.2,28.34,49.08,10.72,17.89,11,5.22-6,2.28-15.65,7.09-20.14,12.51-13.9-5.42-6.24-7.82-6.91,16.55-5.08-31.68,6.88-29.76-4-10.94,1.89-18.82-5.9-13-32.13-2.32-40.19-10.66,8.06-37.61,8.06-6.12,5.27C7.44-13.65,8.9,112.73-28,129c36.89-16.27,70.83,7.15,56.52,14.94,18.59-8.3,15.53-22,50.93-24.17C49,120.43,60.73,115.27,40.32,112.21Z"/></g></g></g><g class="cls-10"><path class="cls-11" d="M74.81,113.69C80.05,111.15,95,99.8,106.32,87.58c-3.82.11-22.56,12.28-24.47,15.34C72.21,108.22,69.3,112.73,74.81,113.69Z"/></g><g class="cls-10"><path class="cls-12" d="M17.14,47.62c-3.43,6.77-1.75,18,3.56,26.4-.82-.64-1.74-14.11-2.84-16.28C17.9,51.33,16.26,48.39,17.14,47.62Z"/></g><g class="cls-13"><path class="cls-14" d="M15.86,50.68c-.09-.38.77,9.89.57,12.7,0,.78.17,3.47.33,2.35C16.27,66.92,14.13,58.86,15.86,50.68Z"/></g><g class="cls-15"><path class="cls-14" d="M42,18.42c-.73-4.77,4.77-4.07,9.8-2.18C48.66,15.75,34.52,26.05,42,18.42Z"/></g><g class="cls-16"><path class="cls-17" d="M70.67,121.47c2.1,0-6-2.8-7.43.18C58.85,121.49,67.17,122.93,70.67,121.47Z"/></g><g class="cls-16"><path class="cls-17" d="M68.34,116.12c-1.45-.71-.63-.74-18.77.13,24.78-1.51,31.42-4.72,39-9.25-24.65,16.65-47.4-2-37-9C44.07,108.68,55.79,115.19,68.34,116.12Z"/></g></g><path class="cls-18" d="M46.78,44.45c-3.13-2.44-4.67-7.8-2-11.1,1.69-2.07,4.8-3.83,7.52-3.65,2,.13,3.71,1.26,5.43,2.1-.26-.13,1.71-2.92,1.92-3.15a11.32,11.32,0,0,1,3.19-2.53c2.36-1.26,6.52-2.5,8.18.46a7,7,0,0,1,.64,3.22c2-1.84,4.34,1.85,4.53,1.73a10.62,10.62,0,0,1,9-1.24,8.36,8.36,0,0,1,3.63,2.24c1.7,1.88,2.23,4.51,2.7,7,2.71-1.57,6.55-.18,8,2.59a8,8,0,0,1-1.28,8.77,8.94,8.94,0,0,1,7.5,3.29,7.84,7.84,0,0,1,1,8,7,7,0,0,1-7,3.91,2.37,2.37,0,0,1-.74,4.4,11.52,11.52,0,0,1,3.58,5.71,7.27,7.27,0,0,1-1.42,6.42A5.4,5.4,0,0,1,95,84.05a13.77,13.77,0,0,1,2.74,5.55c.94,4.08-2.37,8.48-6.52,9.11s-8.41-2.2-9.87-6.12a2.34,2.34,0,0,1-4.45.8c.93,4.55-3.28,7.77-7.11,9-5,1.65-10.54.43-13.25-4.37-.72-1.28-1.14-2.94-.32-4.15A4.48,4.48,0,0,1,53.65,96a2.12,2.12,0,0,1-2.6-1.58c-1,1.41-3.06,1.33-4.73,1s-3.41-.9-4.39-2.28S41.4,89.31,43.05,89A6.42,6.42,0,0,1,39,88.24a2.9,2.9,0,0,1-1.21-3.63c-2.38,1.49-5.61,1-7.95-.52a15.42,15.42,0,0,1-5.07-6.59c-1.88-4.12-2.77-9.33,0-12.9,1.52-2,3.86-3.06,6.12-4.09A4.16,4.16,0,0,1,34,54.41a14.62,14.62,0,0,1-2.4-6.69C31.5,45.33,35.18,38.6,46.78,44.45Z"/><path class="cls-19" d="M103.68,37c3.15-2,4.27-1.83,8-2.12A6.71,6.71,0,0,1,109,34a2.3,2.3,0,0,1-1.07-2.4,3.42,3.42,0,0,1,.85-1.29l2-2.22a10.22,10.22,0,0,1-3.82,0c-.92-.17-2-.61-2.17-1.52a2.84,2.84,0,0,1,1-2.35l4.28-4.86A32.6,32.6,0,0,1,102.37,24a6.1,6.1,0,0,1-2.32.61,2.34,2.34,0,0,1-2.06-1c-.79-1.29.28-2.94.1-4.44a19.58,19.58,0,0,1-3,3.88,2.11,2.11,0,0,1-1,.68c-.79.19-1.53-.48-1.9-1.2a11.85,11.85,0,0,0-1-2.18c.15.19-.23,1.5-.27,1.77a18.66,18.66,0,0,0-.51,3.65c0,1.57,1.07,2.73,1.71,4.1a11.92,11.92,0,0,1,1.32,5.23C95.67,34.61,101.86,34.74,103.68,37Z"/><path class="cls-20" d="M108.39,79.12c.15-1,.46-2.2,1.43-2.5a1.85,1.85,0,0,1,1.7.43,5.6,5.6,0,0,1,1.11,1.44c0-.87-1.07-1.52-1-2.39a1.3,1.3,0,0,1,1.1-1,3.91,3.91,0,0,1,1.55.16l2.39.59a6.91,6.91,0,0,1-2.16-1.31,1.25,1.25,0,0,1-.38-.51.88.88,0,0,1,.45-1,2.45,2.45,0,0,1,1.1-.27l7.15-.66c-2.8-.59-5.58-1.3-8.31-2.15-.49-.16-1.07-.4-1.16-.91-.13-.69.69-1.14,1.35-1.35a3.75,3.75,0,0,1-2.14-.59.72.72,0,0,1-.33-.63.87.87,0,0,1,.26-.4,12.19,12.19,0,0,1,1.78-1.5,25.88,25.88,0,0,1-9.79,3.48c.28,1.36.71,2.94-.86,3.76C104.81,72.7,108,76.65,108.39,79.12Z"/><path class="cls-21" d="M57,26.94s5.45-7.15,13.46-4.7a4.88,4.88,0,0,1,2.56,2.51,41.78,41.78,0,0,1,6.2-13.94c-2.15,2.16-4.59,4-6.74,6.18a1.53,1.53,0,0,1-1,.58,1.35,1.35,0,0,1-.7-.29c-1.43-1.07-1.76-3-2-4.81-.08,1.27-.4,2.84-1.63,3.15a2,2,0,0,1-1.93-.74,5.29,5.29,0,0,1-.93-1.94,29,29,0,0,1-.92-9.58c0,1.83-.49,4-.6,5.81a11.77,11.77,0,0,1-1.06,4.24,2.7,2.7,0,0,1-1.57,1.66c-1.1.27-2.08-.72-2.78-1.61a8.65,8.65,0,0,1,.86,2.25,1.46,1.46,0,0,1,0,.83c-.23.59-1,.65-1.66.53-3.49-.65-6-3.54-8.31-6.27Z"/><path class="cls-22" d="M54.8,101.08s7,10.47,18.63,3.28c.6,4.92,4.77,10.73,4.77,10.73S73,110.17,71.79,112s1.2,7.6,1.2,7.6-3.43-5.36-5.22-5.21-4.77,9.84-4.62,10.28-1.34-11.47-3.28-12.52-5.07,5.37-5.07,5.37,1.94-6.26,0-7.75-6.11,2.53-6.11,2.53S54.51,103.77,54.8,101.08Z"/><path class="cls-23" d="M30.36,52.3s-2.8,1.54-3.49,6.19c-2.14,1.35-5.86,4.06-6.42,8.11a42.85,42.85,0,0,0-8.9,3.49S20,63.9,14.82,63a36.76,36.76,0,0,0-9.69-.34S16.51,60.29,17,59.28s-6.65-6.42-11.83-8.11c0,0,14.42,2.59,15,2.25s-.34-5.52-4.73-7.66c5.07,1.69,9.8,4.28,9,1S23,39.57,23,39.57Z"/><path class="cls-24" d="M107.9,49.63s2.84,2,3.38,4.14L118.63,55s-5-2.37-5-3.6,3-3.75,3-3.75-4,1.76-4.75.69,0-6.44,0-6.44S108.82,48.94,107.9,49.63Z"/><path class="cls-25" d="M40.44,37a9.86,9.86,0,0,1,5.19-8.26l-2-8s1.58,10.71-6.31,2.93c1.12,2.71,2.7,6.31,1.46,7s-10.37-1.79-10.37-1.79,7.44,3.14,7.78,4.61-5.8,3-5.8,3Z"/><path class="cls-26" d="M29.07,89.14a4.52,4.52,0,0,0,5,1.34c.19,1.23,1.14,2.57,2.57,2.28.28.76.57,3.14,2.38,3.71L37.82,104s-1-4.52-2-4.64-2.67,6.83-2.67,6.83.48-7.42-.95-8.52S25.83,104,25.83,104s3.9-7.8,2.86-9-6,1-6,1,5-3.24,4.47-4.09-4.47-2.19-4.47-2.19Z"/><path class="cls-27" d="M100.71,93.1s-1.64,6-6.28,7.37c.82,2.46,4.92,9.83,4.92,9.83s-.41-5.47,1.36-7.17,6.15,2.12,6.15,2.12-4.51-6.55-2.6-8.19a53.4,53.4,0,0,1,5.87-4Z"/><path class="cls-28" d="M101.23,82.64a7.27,7.27,0,0,0,1.42-6.42,11.52,11.52,0,0,0-3.58-5.71,2.37,2.37,0,0,0,.74-4.4,7,7,0,0,0,7-3.91,7.84,7.84,0,0,0-1-8,8.22,8.22,0,0,0-1.28-1.29l-.13,0a12.5,12.5,0,0,1-1.17,7.88A8,8,0,0,1,96.76,65,4.45,4.45,0,0,1,92,69.7,8.65,8.65,0,0,1,86,79.49a11.59,11.59,0,0,1-6.59-.4,6.92,6.92,0,0,1-2.58-1.34A6.26,6.26,0,0,1,75.25,75a11.87,11.87,0,0,1,1.24-9.87,4,4,0,0,1-4.86-4.47,13,13,0,0,1-21.56,8A5.92,5.92,0,0,1,44.32,72,6.26,6.26,0,0,1,39,67.77c-7.74.37-8.11-7.26-8.11-7.26-2.26,1-4.6,2.13-6.12,4.09-2.77,3.57-1.88,8.78,0,12.9a15.42,15.42,0,0,0,5.07,6.59c2.34,1.56,5.57,2,8,.51A2.91,2.91,0,0,0,39,88.24a6.42,6.42,0,0,0,4.08.71c-1.65.36-2.09,2.76-1.12,4.14s2.74,1.93,4.39,2.28,3.76.44,4.73-1A2.12,2.12,0,0,0,53.65,96a4.48,4.48,0,0,0,2.59-2.07c-.82,1.21-.4,2.87.32,4.15,2.71,4.8,8.26,6,13.25,4.37,3.83-1.27,8-4.49,7.11-9a2.34,2.34,0,0,0,4.45-.8c1.46,3.92,5.73,6.75,9.87,6.12s7.46-5,6.52-9.11A13.77,13.77,0,0,0,95,84.05,5.4,5.4,0,0,0,101.23,82.64Z"/><path class="cls-29" d="M52,85a2.21,2.21,0,0,0,1.23,2.29,2.23,2.23,0,0,0,2.54-.58,9.67,9.67,0,0,0,11,5.12,5.15,5.15,0,0,0,2-1,3.58,3.58,0,0,0,.83-4.19,3.12,3.12,0,0,0,2.07-1.25c.41-.72.08-1.87-.75-2a3.83,3.83,0,0,0,1.37-3.34,6.12,6.12,0,0,0-1.52-3.38,5.83,5.83,0,0,0-4.25-2.3,5.62,5.62,0,0,0-3.3,1.39c-.71.59-1.21,1.61-1.93,2.13s-.5.27-1.45-.13c-.46-.19-3.34-.27-3.08.82a3.3,3.3,0,0,0-6.35-.24,4.77,4.77,0,0,0-3-1.34C41,77.26,49,88.65,52,85Z"/><path class="cls-30" d="M30.92,70.12c.46-.05.9.24,1.09,1.2a4,4,0,0,1,2.93-1.23,4.36,4.36,0,0,1,1.24.21,3.69,3.69,0,0,1,2.18,1.76,2.67,2.67,0,0,1-.15,2.74,2.47,2.47,0,0,1,1.14,2,3.63,3.63,0,0,1-1,2.4,3.24,3.24,0,0,1-1.87,1.25,1.65,1.65,0,0,1-1.86-1,3,3,0,0,1-4.89-3.32A3,3,0,0,1,27.27,74a1.66,1.66,0,0,1,2.4-1.86C29,71.73,30,70.22,30.92,70.12Z"/><path class="cls-31" d="M71.26,38.29a4.09,4.09,0,0,0,4-.72c-.47,2.49,1.46,5,3.85,5.84a11.5,11.5,0,0,0,7.45-.36,2.48,2.48,0,0,0,.69,4,8,8,0,0,0-2.32,3.82,3.47,3.47,0,0,0,1.68,3.84A4.36,4.36,0,0,0,81.92,57a7.76,7.76,0,0,0-4.36-3.88,5,5,0,0,0-5.41,1.5,4.4,4.4,0,0,0-4.21-2.85c.26-2-.45-4.2-2.59-4.71a13.05,13.05,0,0,0-7.09-.15,10.78,10.78,0,0,0,3.19-1.66c2.27-1.86,1.8-3.75-.33-5.49,3.33.67,6.41-1.91,7.33-5C68,36.14,70.16,37.9,71.26,38.29Z"/><path class="cls-32" d="M46.38,42.48s-3.53-5,0-9.08,8.4-1.34,8.4-1.34S46,32.81,46.38,42.48Z"/><path class="cls-32" d="M60.61,29.16s3.44-3.91,6.94-3.56,3.14,4.14,3.14,4.14S67.43,25.72,60.61,29.16Z"/><path class="cls-32" d="M77.17,32s4.34-2,8.23-.46,4.34,6.17,4.34,6.17A13.26,13.26,0,0,0,77.17,32Z"/><path class="cls-32" d="M43.41,44.58s-6.43-3.15-9.11,0,0,7.44,0,7.44S33.61,44.88,43.41,44.58Z"/><path class="cls-32" d="M92.8,40.54s4.46-.87,5.77,1.94-.13,6.11-.94,7.05C97.63,49.53,98.88,42.52,92.8,40.54Z"/><path class="cls-32" d="M98.13,51.65s3.87-.06,4.87,2a6.5,6.5,0,0,1-.69,5.86S102.94,53,98.13,51.65Z"/><path class="cls-32" d="M72.73,55.58s1.93-2.67,4.44-1.35,3.48,2.79,3.62,3.9C80.79,58.13,77.14,54.07,72.73,55.58Z"/><path class="cls-32" d="M59.15,47.1a7.58,7.58,0,0,1,5.62.61c2.6,1.55,1.91,3.77,1.91,3.77S63.29,47.58,59.15,47.1Z"/><path class="cls-32" d="M62.77,78.61s1.94-3.79,4.68-2.47,3.79,4.15,3.09,5.83C70.54,82,68.33,76.58,62.77,78.61Z"/><path class="cls-32" d="M51,78.58s.66-1.88,2.37-1.84a3.05,3.05,0,0,1,2.45,1.84A5.58,5.58,0,0,0,51,78.58Z"/><path class="cls-32" d="M32.55,71.46s2.64-1.64,4.37,0a2.32,2.32,0,0,1,.58,3.16S37.25,71.46,32.55,71.46Z"/><path class="cls-33" d="M106.23,70.21a13.75,13.75,0,0,1,2.13.08,18.43,18.43,0,0,1,2.07.4c1.39.28,2.77.57,4.14.88,0,0,0,0,0,0l0,0q-2.1-.21-4.2-.48a21.17,21.17,0,0,1-2.1-.28,12.5,12.5,0,0,1-2-.6s0,0,0,0Z"/><path class="cls-34" d="M106.8,68.66a2.24,2.24,0,0,1,.79-.39,3.37,3.37,0,0,1,.84-.07c.57,0,1.13-.06,1.7-.06a0,0,0,0,1,0,0s0,0,0,0c-.54.17-1.09.32-1.63.46a3.44,3.44,0,0,1-.83.19,2.45,2.45,0,0,1-.87-.13,0,0,0,0,1,0,0Z"/><path class="cls-35" d="M106.05,71.85a4,4,0,0,1,1,.52,6.62,6.62,0,0,1,.82.77c.53.52,1.06,1.06,1.58,1.61a0,0,0,0,1,0,0h0c-.63-.42-1.24-.85-1.85-1.29a6.54,6.54,0,0,1-.89-.68,3.76,3.76,0,0,1-.69-.92,0,0,0,0,1,0-.05Z"/><path class="cls-36" d="M95.14,32.89a14.3,14.3,0,0,1,1.45-1.82,22.86,22.86,0,0,1,1.67-1.59c1.13-1.05,2.26-2.09,3.41-3.12h0a0,0,0,0,1,0,0q-1.55,1.73-3.13,3.41c-.52.57-1,1.16-1.59,1.68a15.16,15.16,0,0,1-1.82,1.44,0,0,0,0,1,0,0A0,0,0,0,1,95.14,32.89Z"/><path class="cls-37" d="M99.09,33.21a5.22,5.22,0,0,1,1.19-.81,8.42,8.42,0,0,1,1.32-.52c.88-.33,1.77-.64,2.67-.94,0,0,0,0,0,0s0,0,0,0c-.83.46-1.66.9-2.51,1.33a10.67,10.67,0,0,1-1.27.62,5.83,5.83,0,0,1-1.4.32,0,0,0,0,1,0,0Z"/><path class="cls-38" d="M94.81,29.73a4.81,4.81,0,0,1,.12-1.32,6.91,6.91,0,0,1,.43-1.23c.29-.82.61-1.63.94-2.44,0,0,0,0,0,0a0,0,0,0,1,0,0c-.16.86-.35,1.71-.54,2.55a9.08,9.08,0,0,1-.32,1.27,5.27,5.27,0,0,1-.62,1.17s0,0-.05,0A0,0,0,0,1,94.81,29.73Z"/><path class="cls-39" d="M64.08,20.71a5.63,5.63,0,0,1-.35-1.37,10.88,10.88,0,0,1,0-1.4c0-.93,0-1.86,0-2.79a0,0,0,0,1,0,0,0,0,0,0,1,0,0c.14.92.26,1.84.36,2.77a9.22,9.22,0,0,1,.14,1.38,5.68,5.68,0,0,1-.18,1.41s0,0,0,0Z"/><path class="cls-40" d="M72.17,20.41a1.89,1.89,0,0,1,.26-.78,2.61,2.61,0,0,1,.51-.59c.36-.39.73-.76,1.11-1.13a0,0,0,0,1,0,0,0,0,0,0,1,0,0c-.24.47-.5.92-.77,1.37a2.84,2.84,0,0,1-.42.66,2.09,2.09,0,0,1-.68.46,0,0,0,0,1,0,0Z"/><path class="cls-41" d="M57.87,22.64a6.43,6.43,0,0,1-1.07-1A11.09,11.09,0,0,1,56,20.42c-.53-.82-1-1.64-1.55-2.47,0,0,0,0,0,0s0,0,0,0c.64.74,1.27,1.48,1.88,2.23a10.11,10.11,0,0,1,.91,1.14,5.84,5.84,0,0,1,.64,1.33s0,0,0,0Z"/><path class="cls-42" d="M41.64,29.44A2.06,2.06,0,0,1,41,29a2.67,2.67,0,0,1-.39-.65c-.25-.45-.48-.9-.7-1.36,0,0,0,0,0,0h0c.36.36.7.73,1,1.12a2.43,2.43,0,0,1,.48.58,1.73,1.73,0,0,1,.22.77s0,0,0,0Z"/><path class="cls-43" d="M40.16,32.88a2.29,2.29,0,0,1-.86,0,2.72,2.72,0,0,1-.77-.27c-.52-.19-1-.39-1.53-.61a0,0,0,0,1,0,0s0,0,0,0c.55.06,1.1.13,1.64.22a3.73,3.73,0,0,1,.81.15,2.13,2.13,0,0,1,.72.47,0,0,0,0,1,0,0Z"/><path class="cls-44" d="M24.77,57.65a11.29,11.29,0,0,1-2-.29,18.21,18.21,0,0,1-1.94-.61c-1.29-.41-2.58-.85-3.86-1.3,0,0,0,0,0,0s0,0,0,0c1.33.28,2.65.58,4,.9a19.73,19.73,0,0,1,2,.49,11.46,11.46,0,0,1,1.88.81s0,0,0,0Z"/><path class="cls-45" d="M26,54.48a4.43,4.43,0,0,1-1.06-.73,6.73,6.73,0,0,1-.83-.94c-.55-.64-1.08-1.29-1.6-2a0,0,0,0,1,0,0,0,0,0,0,1,0,0c.64.55,1.28,1.1,1.9,1.67a7.49,7.49,0,0,1,.91.87A4.59,4.59,0,0,1,26,54.43a0,0,0,0,1,0,0Z"/><path class="cls-46" d="M22,60.31a5.3,5.3,0,0,1-1.2.58,7.73,7.73,0,0,1-1.27.26c-.86.17-1.71.32-2.58.45,0,0,0,0,0,0a.05.05,0,0,1,0,0c.82-.29,1.64-.58,2.47-.84a7.83,7.83,0,0,1,1.25-.38A4.87,4.87,0,0,1,22,60.25s0,0,0,0A0,0,0,0,1,22,60.31Z"/><path class="cls-47" d="M33.32,91.55a5.07,5.07,0,0,1-.49,1.28A8.18,8.18,0,0,1,32.07,94c-.52.73-1.05,1.46-1.59,2.18a0,0,0,0,1-.05,0,0,0,0,0,1,0,0c.4-.81.81-1.61,1.24-2.4a8.49,8.49,0,0,1,.66-1.18,6,6,0,0,1,.94-1s0,0,0,0A0,0,0,0,1,33.32,91.55Z"/><path class="cls-48" d="M35.25,93.83a2.94,2.94,0,0,1,0,1,4.69,4.69,0,0,1-.28,1c-.2.62-.41,1.25-.65,1.87,0,0,0,0,0,0s0,0,0,0c.06-.66.14-1.32.24-2a4.48,4.48,0,0,1,.17-1,2.91,2.91,0,0,1,.48-.9,0,0,0,0,1,0,0Z"/><path class="cls-49" d="M64,108.64a6.21,6.21,0,0,1,.22,1.53,10.84,10.84,0,0,1-.11,1.51q-.12,1.51-.3,3a0,0,0,0,1,0,0,0,0,0,0,1,0,0c-.05-1-.09-2-.11-3a12.85,12.85,0,0,1,0-1.52,7.37,7.37,0,0,1,.31-1.51l0,0S64,108.63,64,108.64Z"/><path class="cls-50" d="M68.64,108.57a3.44,3.44,0,0,1,.61.89,5.87,5.87,0,0,1,.3,1c.18.67.36,1.35.51,2,0,0,0,0,0,0a0,0,0,0,1,0,0c-.32-.63-.62-1.26-.91-1.9a5.13,5.13,0,0,1-.41-1,3.15,3.15,0,0,1-.1-1.07,0,0,0,0,1,0,0Z"/><path class="cls-51" d="M58.66,106.46a4.69,4.69,0,0,1-.18,1.3A8,8,0,0,1,58,109c-.33.79-.68,1.57-1,2.35,0,0,0,0,0,0a0,0,0,0,1,0,0q.3-1.26.66-2.49a7.57,7.57,0,0,1,.37-1.23,5,5,0,0,1,.67-1.12s0,0,0,0Z"/><path class="cls-52" d="M100,98.08a3.47,3.47,0,0,1,1,.43,5.59,5.59,0,0,1,.77.69c.51.46,1,.94,1.49,1.43,0,0,0,0,0,.05h0c-.6-.36-1.18-.73-1.75-1.11a5.6,5.6,0,0,1-.85-.59,3.45,3.45,0,0,1-.64-.85s0,0,0,0Z"/></g></g></svg>