<svg xmlns="http://www.w3.org/2000/svg" xmlns:xlink="http://www.w3.org/1999/xlink" viewBox="0 0 128 128"><defs><style>.cls-1{fill:none;}.cls-2{isolation:isolate;}.cls-3{fill:url(#Áåçûìÿííûé_ãðàäèåíò_479);}.cls-4{clip-path:url(#clip-path);}.cls-5{fill:url(#Áåçûìÿííûé_ãðàäèåíò_466);}.cls-6{opacity:0.36;}.cls-16,.cls-7{fill:#741d81;}.cls-13,.cls-15,.cls-7{mix-blend-mode:multiply;}.cls-10,.cls-11,.cls-12,.cls-8,.cls-9{mix-blend-mode:screen;}.cls-8{fill:url(#Áåçûìÿííûé_ãðàäèåíò_351);}.cls-9{fill:url(#Áåçûìÿííûé_ãðàäèåíò_475);}.cls-10{fill:url(#Áåçûìÿííûé_ãðàäèåíò_351-2);}.cls-11,.cls-12{fill:#fff;}.cls-11{opacity:0.82;}.cls-12{opacity:0.81;}.cls-13{fill:#954cd4;opacity:0.49;}.cls-14{clip-path:url(#clip-path-3);}</style><linearGradient id="Áåçûìÿííûé_ãðàäèåíò_479" x1="64.58" y1="124.02" x2="64.58" y2="116.56" gradientUnits="userSpaceOnUse"><stop offset="0" stop-color="#bccbef"/><stop offset="0.04" stop-color="#b8bef0"/><stop offset="0.21" stop-color="#ab8ef3"/><stop offset="0.38" stop-color="#9f65f5"/><stop offset="0.55" stop-color="#9646f7"/><stop offset="0.71" stop-color="#902ff8"/><stop offset="0.86" stop-color="#8c22f9"/><stop offset="1" stop-color="#8b1df9"/></linearGradient><clipPath id="clip-path"><path class="cls-1" d="M107.36,55.47c0,29.12-25.68,61.64-42.09,61.64-19.21,0-44.63-31.59-44.63-60.71s20-53.65,43.21-53.65S107.36,26.35,107.36,55.47Z"/></clipPath><radialGradient id="Áåçûìÿííûé_ãðàäèåíò_466" cx="181.4" cy="99.66" fx="164.55109360838708" fy="63.467965164494494" r="56.09" gradientTransform="translate(-94.35 -44.4) scale(0.87 1.03)" gradientUnits="userSpaceOnUse"><stop offset="0.07" stop-color="#ab77ec"/><stop offset="0.22" stop-color="#aa73ed"/><stop offset="0.38" stop-color="#a567ee"/><stop offset="0.53" stop-color="#9f54f1"/><stop offset="0.68" stop-color="#9539f5"/><stop offset="0.79" stop-color="#8b1df9"/><stop offset="0.82" stop-color="#8c22f9"/><stop offset="0.85" stop-color="#902ff8"/><stop offset="0.89" stop-color="#9646f7"/><stop offset="0.92" stop-color="#9f65f5"/><stop offset="0.96" stop-color="#ab8ef3"/><stop offset="0.99" stop-color="#b8bef0"/><stop offset="1" stop-color="#bccbef"/></radialGradient><linearGradient id="Áåçûìÿííûé_ãðàäèåíò_351" x1="67.56" y1="101.42" x2="95.94" y2="101.42" gradientUnits="userSpaceOnUse"><stop offset="0" stop-color="#406dfb"/><stop offset="1" stop-color="#450651"/></linearGradient><linearGradient id="Áåçûìÿííûé_ãðàäèåíò_475" x1="159.38" y1="63.67" x2="203.16" y2="105.88" gradientTransform="translate(-101.45 -40.99) scale(0.86 0.89)" gradientUnits="userSpaceOnUse"><stop offset="0" stop-color="#b59af1"/><stop offset="1"/></linearGradient><linearGradient id="Áåçûìÿííûé_ãðàäèåíò_351-2" x1="-737.38" y1="-1404.25" x2="-716.82" y2="-1404.25" gradientTransform="translate(-1554.87 -32.03) rotate(120.74)" xlink:href="#Áåçûìÿííûé_ãðàäèåíò_351"/><clipPath id="clip-path-3"><path class="cls-1" d="M269.67,67.62c-8.81,16.26-38.86,47.81-54.68,39.18-25.84,8.63-55.58-22-38.36-48.34-17.22-30.16,6.11-54,34.67-55.33C237.18,4.5,260.86,27.39,269.67,67.62Z"/></clipPath></defs><title>balao_roxo_grande</title><g class="cls-2"><g id="balao_nao_estourado"><path class="cls-3" d="M58.63,123.35s7.11,1.5,11.9,0c0,0-1-6.79-6-6.79S58.63,123.35,58.63,123.35Z"/><g class="cls-4"><ellipse class="cls-5" cx="64" cy="58.65" rx="49.36" ry="58.46"/></g><g class="cls-6"><g class="cls-4"><path class="cls-7" d="M60.23,116.94c6.91,5.45,26.33-3.37,35.71-25,0,0-22.77,30.08-46,19.54-16.05-7.27-20-15.72-7.54-6.28s40.13,3.59,58.06-21.61,11.09-37.82,6.4-20.84S64.49,124.57,33.79,95s-18-28.2-5.75-9.7,38.43,20.5,60.55-.09,17.76-42.33,17.76-42.33l1.05-12S83-1.71,98.34,24.22,89.74,93.4,52.26,91.43c-26.88-1.41-31-27.37-31-27.37l-3.3-19.28S19.34,30.17,20.64,48s7.58,37.16,33.45,37.94,61.47-38.86,39-69.21S59.07-4.72,77,5.31,96.53,67.73,60.39,76,19.17,48.24,24.22,35.47s-1-30-1-30S34,6.24,28,25.58s.2,46.73,23.52,46C76.3,70.79,91.9,44.13,83.06,22.18S63.85,2.75,63.85,2.75l-9.5-6.88S38.44,9.18,49.92,5.75,74.69,19.66,74.74,43.87,35.8,67,30.84,48s.42-27.43,6.88-33.27c0,0-10.28,11.37-1.14,31s26.68,10.19,31-.78S64.5,13.11,55.14,9.38A12,12,0,0,0,40.6,13.3S53,6.93,61.92,29.45s-17.76,22.85-22.2,6S39.39,14,39.39,14s-2-.69-5.17,3.8-1.49-6.74-1.49-6.74l5-27h-23l1.25,130.3s29,24.14,30.84,23.88S46,123.82,48.08,123,60.23,116.94,60.23,116.94Z"/></g></g><path class="cls-8" d="M67.56,114.33C76.75,112.69,89.5,101,95.94,88.51c0,0-16,12.55-21,16.86A35.85,35.85,0,0,0,67.56,114.33Z"/><path class="cls-9" d="M49.78,66.92S47.65,40.2,55.73,22.1h4.54A115.79,115.79,0,0,1,64,49.86s26.94.3,37.14-16.17a18.12,18.12,0,0,0,1.13-2.13C95.3,15.29,80.34,4,63.81,4c-22.72,0-42.2,22.15-42.2,48.45a45,45,0,0,0,.45,6.21C24.06,60.46,33,67.44,49.78,66.92Z"/><path class="cls-10" d="M22.23,48c-2.18,6.19-.74,17.79,3.09,25.76,0,0-.79-13.89-1.24-18.31A25.53,25.53,0,0,0,22.23,48Z"/><path class="cls-11" d="M21.62,51.13c.19-1.16.93,9.42.83,11.27s.07,4.63.07,4.63C22.24,67.1,20.41,58.79,21.62,51.13Z"/><path class="cls-12" d="M41.18,17.51c2.39-5.33,7.09-4.61,8.74-3.16C49.92,14.35,37.84,25,41.18,17.51Z"/><path class="cls-13" d="M70.53,123.35s-6.92-2.9-11.9,0C58.63,123.35,65.74,124.85,70.53,123.35Z"/><path class="cls-13" d="M64.8,117.1c.7,0,1.4,0,2.09-.09,5-.61,10.67-3.92,16.17-9-20.1,17.59-39.54-1.64-45.34-7.84C46,110.15,56,116.86,64.8,117.1Z"/></g><g id="balao_estourado"><g id="balao-estourado"><g class="cls-6"><g class="cls-14"><g class="cls-15"><path class="cls-16" d="M185.32,112.21c28.48,8.34,51.21-.22,86.5-17-24.32-4.14-51,25-77.08,9.6-19.86-1.84-24.53-10-32.48-16,37.2,24.29,69.53,18.62,65-4.4,46.46-25.88,38.45-38.11,58.94-34.54-31.46,29.36-75.53,72.82-140,51.5-7.38-36.14,7.44-34.77,32.38-18.5,3.79,19.63,34.4,21.56,61.28,10,24.86-28.37,19.77-49.46,23.71-60-3.94,10.5-2.71-1.18,24.05,13.8-26.76-15-55.29-46.51-54-34.09,34.56,37.88,6.55,79.84,3.24,88.37-72-11.8-76.86-37-97.44-39.12,20.58,2.13,16.72-16.57,12.26-19,4.46,2.45,6.13-11.72-1.89,3.7,11.07,19.16,18.41,37.92,65.81,34.3,13.14,5.14,54.79-33.32,6.84-68.4C217.8-11.37,204.36-2.74,262.1,4c-15.8,12.75-13.91,63.57-82.23,73.68-16.25,6-22.19-29-10-34.14-.37-19.64-7.4-36.37,25.09-22.89C162.47,7.13,175,7.89,170.14,41c-9.21,4.4-1.94,31,11.43,33.36,43-3.86,61.2-29.72,32.65-40.65C222.08,2.06,210,4.5,174.6,9.89,210,4.5,198.85-2.18,177.19,7.84c21.66-10,3,2.89,6.5-14.65,23.41,10.9,38.95,27.71,43.13,43.73-4.08,31-49.68,29.86-29.44,11.07-31.86-18-25.55-26.2,20.91-25.31-38.9-6.56-50.93,4.47-20.29,22-9.24,20.45,11.27,11.32,45.2,3.83-23.87-13.8-32.48-34-38.86-28.26-15.53-13-21.59-5.56,5.89-7.11-27.48,1.55-12.95-4.64-41.2,28.34,49.08,10.72,17.89,11,5.22-6,2.28-15.65,7.09-20.14,12.51-13.9-5.42-6.24-7.82-6.91,16.55-5.08-31.68,6.88-29.76-4-10.94,1.89-18.82-5.9-13-32.13-2.32-40.19-10.66,8.06-37.61,8.06-6.12,5.27C152.44-13.65,153.9,112.73,117,129c36.89-16.27,70.83,7.15,56.52,14.94,18.59-8.3,15.53-22,50.93-24.17C194,120.43,205.73,115.27,185.32,112.21Z"/></g></g></g></g></g></g></svg>