<svg xmlns="http://www.w3.org/2000/svg" xmlns:xlink="http://www.w3.org/1999/xlink" viewBox="0 0 900 600"><defs><style>.cls-1{fill:none;}.cls-2{isolation:isolate;}.cls-3{fill:url(#radial-gradient);}.cls-4{clip-path:url(#clip-path);}.cls-17,.cls-18,.cls-5{fill:#fff;}.cls-6{fill:#e7d7ff;}.cls-7{fill:#b59af1;}.cls-8{fill:#7a707b;}.cls-9{fill:url(#Áåçûìÿííûé_ãðàäèåíò_479);}.cls-10{clip-path:url(#clip-path-2);}.cls-11{fill:url(#Áåçûìÿííûé_ãðàäèåíò_466);}.cls-12{opacity:0.36;}.cls-13{fill:#741d81;}.cls-13,.cls-19{mix-blend-mode:multiply;}.cls-14,.cls-15,.cls-16,.cls-17,.cls-18,.cls-23,.cls-24,.cls-25,.cls-29,.cls-30,.cls-31,.cls-35,.cls-36,.cls-37,.cls-41,.cls-42,.cls-43,.cls-47,.cls-48,.cls-49,.cls-53,.cls-54,.cls-55,.cls-59,.cls-60,.cls-61{mix-blend-mode:screen;}.cls-14{fill:url(#Áåçûìÿííûé_ãðàäèåíò_351);}.cls-15{fill:url(#Áåçûìÿííûé_ãðàäèåíò_475);}.cls-16{fill:url(#Áåçûìÿííûé_ãðàäèåíò_351-2);}.cls-17{opacity:0.82;}.cls-18{opacity:0.81;}.cls-19{fill:#954cd4;opacity:0.49;}.cls-20{fill:url(#Áåçûìÿííûé_ãðàäèåíò_479-2);}.cls-21{clip-path:url(#clip-path-4);}.cls-22{fill:url(#Áåçûìÿííûé_ãðàäèåíò_466-2);}.cls-23{fill:url(#Áåçûìÿííûé_ãðàäèåíò_351-3);}.cls-24{fill:url(#Áåçûìÿííûé_ãðàäèåíò_475-2);}.cls-25{fill:url(#Áåçûìÿííûé_ãðàäèåíò_351-4);}.cls-26{fill:url(#Áåçûìÿííûé_ãðàäèåíò_479-3);}.cls-27{clip-path:url(#clip-path-6);}.cls-28{fill:url(#Áåçûìÿííûé_ãðàäèåíò_466-3);}.cls-29{fill:url(#Áåçûìÿííûé_ãðàäèåíò_351-5);}.cls-30{fill:url(#Áåçûìÿííûé_ãðàäèåíò_475-3);}.cls-31{fill:url(#Áåçûìÿííûé_ãðàäèåíò_351-6);}.cls-32{fill:url(#Áåçûìÿííûé_ãðàäèåíò_479-4);}.cls-33{clip-path:url(#clip-path-8);}.cls-34{fill:url(#Áåçûìÿííûé_ãðàäèåíò_466-4);}.cls-35{fill:url(#Áåçûìÿííûé_ãðàäèåíò_351-7);}.cls-36{fill:url(#Áåçûìÿííûé_ãðàäèåíò_475-4);}.cls-37{fill:url(#Áåçûìÿííûé_ãðàäèåíò_351-8);}.cls-38{fill:url(#Áåçûìÿííûé_ãðàäèåíò_479-5);}.cls-39{clip-path:url(#clip-path-10);}.cls-40{fill:url(#Áåçûìÿííûé_ãðàäèåíò_466-5);}.cls-41{fill:url(#Áåçûìÿííûé_ãðàäèåíò_351-9);}.cls-42{fill:url(#Áåçûìÿííûé_ãðàäèåíò_475-5);}.cls-43{fill:url(#Áåçûìÿííûé_ãðàäèåíò_351-10);}.cls-44{fill:url(#Áåçûìÿííûé_ãðàäèåíò_479-6);}.cls-45{clip-path:url(#clip-path-12);}.cls-46{fill:url(#Áåçûìÿííûé_ãðàäèåíò_466-6);}.cls-47{fill:url(#Áåçûìÿííûé_ãðàäèåíò_351-11);}.cls-48{fill:url(#Áåçûìÿííûé_ãðàäèåíò_475-6);}.cls-49{fill:url(#Áåçûìÿííûé_ãðàäèåíò_351-12);}.cls-50{fill:url(#Áåçûìÿííûé_ãðàäèåíò_479-7);}.cls-51{clip-path:url(#clip-path-14);}.cls-52{fill:url(#Áåçûìÿííûé_ãðàäèåíò_466-7);}.cls-53{fill:url(#Áåçûìÿííûé_ãðàäèåíò_351-13);}.cls-54{fill:url(#Áåçûìÿííûé_ãðàäèåíò_475-7);}.cls-55{fill:url(#Áåçûìÿííûé_ãðàäèåíò_351-14);}.cls-56{fill:url(#Áåçûìÿííûé_ãðàäèåíò_479-8);}.cls-57{clip-path:url(#clip-path-16);}.cls-58{fill:url(#Áåçûìÿííûé_ãðàäèåíò_466-8);}.cls-59{fill:url(#Áåçûìÿííûé_ãðàäèåíò_351-15);}.cls-60{fill:url(#Áåçûìÿííûé_ãðàäèåíò_475-8);}.cls-61{fill:url(#Áåçûìÿííûé_ãðàäèåíò_351-16);}</style><radialGradient id="radial-gradient" cx="432.95" cy="497.81" fy="1249.5180457676174" r="885.1" gradientTransform="translate(0 275.05) scale(1 0.45)" gradientUnits="userSpaceOnUse"><stop offset="0" stop-color="#450651"/><stop offset="0.24" stop-color="#460556"/><stop offset="0.53" stop-color="#490465"/><stop offset="0.84" stop-color="#4d027d"/><stop offset="1" stop-color="#50008c"/></radialGradient><clipPath id="clip-path"><rect class="cls-1" width="900" height="600"/></clipPath><linearGradient id="Áåçûìÿííûé_ãðàäèåíò_479" x1="312.42" y1="205.85" x2="312.42" y2="200.52" gradientUnits="userSpaceOnUse"><stop offset="0" stop-color="#bccbef"/><stop offset="0.04" stop-color="#b8bef0"/><stop offset="0.21" stop-color="#ab8ef3"/><stop offset="0.38" stop-color="#9f65f5"/><stop offset="0.55" stop-color="#9646f7"/><stop offset="0.71" stop-color="#902ff8"/><stop offset="0.86" stop-color="#8c22f9"/><stop offset="1" stop-color="#8b1df9"/></linearGradient><clipPath id="clip-path-2"><path class="cls-1" d="M343,156.84c0,20.81-18.36,44.07-30.09,44.07-13.74,0-31.91-22.59-31.91-43.41s14.26-38.36,30.9-38.36S343,136,343,156.84Z"/></clipPath><radialGradient id="Áåçûìÿííûé_ãðàäèåíò_466" cx="409.31" cy="204.58" fx="397.260136232681" fy="178.69857880280415" r="40.11" gradientTransform="translate(-45.29 -52.42) scale(0.87 1.03)" gradientUnits="userSpaceOnUse"><stop offset="0.07" stop-color="#ab77ec"/><stop offset="0.22" stop-color="#aa73ed"/><stop offset="0.38" stop-color="#a567ee"/><stop offset="0.53" stop-color="#9f54f1"/><stop offset="0.68" stop-color="#9539f5"/><stop offset="0.79" stop-color="#8b1df9"/><stop offset="0.82" stop-color="#8c22f9"/><stop offset="0.85" stop-color="#902ff8"/><stop offset="0.89" stop-color="#9646f7"/><stop offset="0.92" stop-color="#9f65f5"/><stop offset="0.96" stop-color="#ab8ef3"/><stop offset="0.99" stop-color="#b8bef0"/><stop offset="1" stop-color="#bccbef"/></radialGradient><linearGradient id="Áåçûìÿííûé_ãðàäèåíò_351" x1="314.55" y1="189.69" x2="334.83" y2="189.69" gradientUnits="userSpaceOnUse"><stop offset="0" stop-color="#406dfb"/><stop offset="1" stop-color="#450651"/></linearGradient><linearGradient id="Áåçûìÿííûé_ãðàäèåíò_475" x1="393.96" y1="161" x2="425.27" y2="191.18" gradientTransform="translate(-46.29 -14.8) scale(0.86 0.89)" gradientUnits="userSpaceOnUse"><stop offset="0" stop-color="#b59af1"/><stop offset="1"/></linearGradient><linearGradient id="Áåçûìÿííûé_ãðàäèåíò_351-2" x1="-400.8" y1="-989.89" x2="-386.1" y2="-989.89" gradientTransform="translate(-768.71 -7.15) rotate(120.74)" xlink:href="#Áåçûìÿííûé_ãðàäèåíò_351"/><linearGradient id="Áåçûìÿííûé_ãðàäèåíò_479-2" x1="236.28" y1="348.1" x2="236.28" y2="344.48" xlink:href="#Áåçûìÿííûé_ãðàäèåíò_479"/><clipPath id="clip-path-4"><path class="cls-1" d="M257,314.89c0,14.11-12.44,29.86-20.38,29.86-9.31,0-21.62-15.3-21.62-29.41s9.66-26,20.93-26S257,300.79,257,314.89Z"/></clipPath><radialGradient id="Áåçûìÿííûé_ãðàäèåíò_466-2" cx="322.24" cy="356.73" fx="314.08131842232876" fy="339.1958395246786" r="27.17" xlink:href="#Áåçûìÿííûé_ãðàäèåíò_466"/><linearGradient id="Áåçûìÿííûé_ãðàäèåíò_351-3" x1="237.72" y1="337.15" x2="251.47" y2="337.15" xlink:href="#Áåçûìÿííûé_ãðàäèåíò_351"/><linearGradient id="Áåçûìÿííûé_ãðàäèåíò_475-2" x1="313.06" y1="349.14" x2="334.26" y2="369.58" xlink:href="#Áåçûìÿííûé_ãðàäèåíò_475"/><linearGradient id="Áåçûìÿííûé_ãðàäèåíò_351-4" x1="-229.56" y1="-1012.7" x2="-219.6" y2="-1012.7" gradientTransform="translate(-768.71 -7.15) rotate(120.74)" xlink:href="#Áåçûìÿííûé_ãðàäèåíò_351"/><linearGradient id="Áåçûìÿííûé_ãðàäèåíò_479-3" x1="103.42" y1="316.85" x2="103.42" y2="311.52" xlink:href="#Áåçûìÿííûé_ãðàäèåíò_479"/><clipPath id="clip-path-6"><path class="cls-1" d="M134,267.84c0,20.81-18.36,44.07-30.09,44.07C90.17,311.91,72,289.32,72,268.5s14.26-38.36,30.9-38.36S134,247,134,267.84Z"/></clipPath><radialGradient id="Áåçûìÿííûé_ãðàäèåíò_466-3" cx="169.88" cy="311.93" fx="157.82835710563222" fy="286.04867551460273" r="40.11" xlink:href="#Áåçûìÿííûé_ãðàäèåíò_466"/><linearGradient id="Áåçûìÿííûé_ãðàäèåíò_351-5" x1="105.55" y1="300.69" x2="125.83" y2="300.69" xlink:href="#Áåçûìÿííûé_ãðàäèåíò_351"/><linearGradient id="Áåçûìÿííûé_ãðàäèåíò_475-3" x1="150.12" y1="285.86" x2="181.42" y2="316.04" xlink:href="#Áåçûìÿííûé_ãðàäèåíò_475"/><linearGradient id="Áåçûìÿííûé_ãðàäèåíò_351-6" x1="-198.57" y1="-867" x2="-183.87" y2="-867" gradientTransform="translate(-768.71 -7.15) rotate(120.74)" xlink:href="#Áåçûìÿííûé_ãðàäèåíò_351"/><linearGradient id="Áåçûìÿííûé_ãðàäèåíò_479-4" x1="75.27" y1="472.92" x2="75.27" y2="469.48" xlink:href="#Áåçûìÿííûé_ãðàäèåíò_479"/><clipPath id="clip-path-8"><path class="cls-1" d="M95,441.3c0,13.43-11.85,28.43-19.41,28.43-8.86,0-20.59-14.57-20.59-28S64.2,417,74.93,417,95,427.87,95,441.3Z"/></clipPath><radialGradient id="Áåçûìÿííûé_ãðàäèåíò_466-4" cx="137.8" cy="478.9" fx="130.02738440163338" fy="462.2088151133063" r="25.88" xlink:href="#Áåçûìÿííûé_ãðàäèåíò_466"/><linearGradient id="Áåçûìÿííûé_ãðàäèåíò_351-7" x1="76.64" y1="462.5" x2="89.73" y2="462.5" xlink:href="#Áåçûìÿííûé_ãðàäèåíò_351"/><linearGradient id="Áåçûìÿííûé_ãðàäèåíò_475-4" x1="125.99" y1="492.36" x2="146.19" y2="511.83" xlink:href="#Áåçûìÿííûé_ãðàäèåíò_475"/><linearGradient id="Áåçûìÿííûé_ãðàäèåíò_351-8" x1="-38.97" y1="-939.68" x2="-29.48" y2="-939.68" gradientTransform="translate(-768.71 -7.15) rotate(120.74)" xlink:href="#Áåçûìÿííûé_ãðàäèåíò_351"/><linearGradient id="Áåçûìÿííûé_ãðàäèåíò_479-5" x1="449.42" y1="205.85" x2="449.42" y2="200.52" gradientTransform="matrix(-1, 0, 0, 1, 1060, 0)" xlink:href="#Áåçûìÿííûé_ãðàäèåíò_479"/><clipPath id="clip-path-10"><path class="cls-1" d="M580,156.84c0,20.81,18.36,44.07,30.09,44.07,13.74,0,31.91-22.59,31.91-43.41s-14.26-38.36-30.9-38.36S580,136,580,156.84Z"/></clipPath><radialGradient id="Áåçûìÿííûé_ãðàäèåíò_466-5" cx="566.26" cy="204.58" fx="554.2082406842616" fy="178.69857847952062" r="40.11" gradientTransform="matrix(-0.87, 0, 0, 1.03, 1105.29, -52.42)" xlink:href="#Áåçûìÿííûé_ãðàäèåíò_466"/><linearGradient id="Áåçûìÿííûé_ãðàäèåíò_351-9" x1="451.55" y1="189.69" x2="471.83" y2="189.69" gradientTransform="matrix(-1, 0, 0, 1, 1060, 0)" xlink:href="#Áåçûìÿííûé_ãðàäèåíò_351"/><linearGradient id="Áåçûìÿííûé_ãðàäèåíò_475-5" x1="553.81" y1="161" x2="585.11" y2="191.18" gradientTransform="matrix(-0.86, 0, 0, 0.89, 1106.29, -14.8)" xlink:href="#Áåçûìÿííûé_ãðàäèåíò_475"/><linearGradient id="Áåçûìÿííûé_ãðàäèåíò_351-10" x1="-470.83" y1="-1107.63" x2="-456.13" y2="-1107.63" gradientTransform="matrix(0.51, 0.86, 0.86, -0.51, 1828.71, -7.15)" xlink:href="#Áåçûìÿííûé_ãðàäèåíò_351"/><linearGradient id="Áåçûìÿííûé_ãðàäèåíò_479-6" x1="373.28" y1="348.1" x2="373.28" y2="344.48" gradientTransform="matrix(-1, 0, 0, 1, 1060, 0)" xlink:href="#Áåçûìÿííûé_ãðàäèåíò_479"/><clipPath id="clip-path-12"><path class="cls-1" d="M666,314.89c0,14.11,12.44,29.86,20.38,29.86,9.31,0,21.62-15.3,21.62-29.41s-9.66-26-20.93-26S666,300.79,666,314.89Z"/></clipPath><radialGradient id="Áåçûìÿííûé_ãðàäèåíò_466-6" cx="479.19" cy="356.73" fx="471.0294228820002" fy="339.19583920469836" r="27.17" gradientTransform="matrix(-0.87, 0, 0, 1.03, 1105.29, -52.42)" xlink:href="#Áåçûìÿííûé_ãðàäèåíò_466"/><linearGradient id="Áåçûìÿííûé_ãðàäèåíò_351-11" x1="374.72" y1="337.15" x2="388.47" y2="337.15" gradientTransform="matrix(-1, 0, 0, 1, 1060, 0)" xlink:href="#Áåçûìÿííûé_ãðàäèåíò_351"/><linearGradient id="Áåçûìÿííûé_ãðàäèåíò_475-6" x1="472.9" y1="349.14" x2="494.1" y2="369.58" gradientTransform="matrix(-0.86, 0, 0, 0.89, 1106.29, -14.8)" xlink:href="#Áåçûìÿííûé_ãðàäèåíò_475"/><linearGradient id="Áåçûìÿííûé_ãðàäèåíò_351-12" x1="-299.59" y1="-1130.44" x2="-289.63" y2="-1130.44" gradientTransform="matrix(0.51, 0.86, 0.86, -0.51, 1828.71, -7.15)" xlink:href="#Áåçûìÿííûé_ãðàäèåíò_351"/><linearGradient id="Áåçûìÿííûé_ãðàäèåíò_479-7" x1="240.42" y1="316.85" x2="240.42" y2="311.52" gradientTransform="matrix(-1, 0, 0, 1, 1060, 0)" xlink:href="#Áåçûìÿííûé_ãðàäèåíò_479"/><clipPath id="clip-path-14"><path class="cls-1" d="M789,267.84c0,20.81,18.36,44.07,30.09,44.07,13.74,0,31.91-22.59,31.91-43.41s-14.26-38.36-30.9-38.36S789,247,789,267.84Z"/></clipPath><radialGradient id="Áåçûìÿííûé_ãðàäèåíò_466-7" cx="326.83" cy="311.93" fx="314.7764615629226" fy="286.04867520039414" r="40.11" gradientTransform="matrix(-0.87, 0, 0, 1.03, 1105.29, -52.42)" xlink:href="#Áåçûìÿííûé_ãðàäèåíò_466"/><linearGradient id="Áåçûìÿííûé_ãðàäèåíò_351-13" x1="242.55" y1="300.69" x2="262.83" y2="300.69" gradientTransform="matrix(-1, 0, 0, 1, 1060, 0)" xlink:href="#Áåçûìÿííûé_ãðàäèåíò_351"/><linearGradient id="Áåçûìÿííûé_ãðàäèåíò_475-7" x1="309.96" y1="285.86" x2="341.26" y2="316.04" gradientTransform="matrix(-0.86, 0, 0, 0.89, 1106.29, -14.8)" xlink:href="#Áåçûìÿííûé_ãðàäèåíò_475"/><linearGradient id="Áåçûìÿííûé_ãðàäèåíò_351-14" x1="-268.6" y1="-984.75" x2="-253.9" y2="-984.75" gradientTransform="matrix(0.51, 0.86, 0.86, -0.51, 1828.71, -7.15)" xlink:href="#Áåçûìÿííûé_ãðàäèåíò_351"/><linearGradient id="Áåçûìÿííûé_ãðàäèåíò_479-8" x1="212.27" y1="472.92" x2="212.27" y2="469.48" gradientTransform="matrix(-1, 0, 0, 1, 1060, 0)" xlink:href="#Áåçûìÿííûé_ãðàäèåíò_479"/><clipPath id="clip-path-16"><path class="cls-1" d="M828,441.3c0,13.43,11.85,28.43,19.41,28.43,8.86,0,20.59-14.57,20.59-28S858.8,417,848.07,417,828,427.87,828,441.3Z"/></clipPath><radialGradient id="Áåçûìÿííûé_ãðàäèåíò_466-8" cx="294.75" cy="478.9" fx="286.9754888678041" fy="462.2088148003146" r="25.88" gradientTransform="matrix(-0.87, 0, 0, 1.03, 1105.29, -52.42)" xlink:href="#Áåçûìÿííûé_ãðàäèåíò_466"/><linearGradient id="Áåçûìÿííûé_ãðàäèåíò_351-15" x1="213.64" y1="462.5" x2="226.73" y2="462.5" gradientTransform="matrix(-1, 0, 0, 1, 1060, 0)" xlink:href="#Áåçûìÿííûé_ãðàäèåíò_351"/><linearGradient id="Áåçûìÿííûé_ãðàäèåíò_475-8" x1="285.83" y1="492.36" x2="306.03" y2="511.83" gradientTransform="matrix(-0.86, 0, 0, 0.89, 1106.29, -14.8)" xlink:href="#Áåçûìÿííûé_ãðàäèåíò_475"/><linearGradient id="Áåçûìÿííûé_ãðàäèåíò_351-16" x1="-109" y1="-1057.42" x2="-99.51" y2="-1057.42" gradientTransform="matrix(0.51, 0.86, 0.86, -0.51, 1828.71, -7.15)" xlink:href="#Áåçûìÿííûé_ãðàäèåíò_351"/></defs><title>cenario</title><g class="cls-2"><g id="Layer_1" data-name="Layer 1"><rect class="cls-3" width="900" height="600"/><g class="cls-4"><path class="cls-5" d="M680.09,61a9,9,0,0,1,2.5.4,15.24,15.24,0,0,1,8-9.75,15.23,15.23,0,0,1,9.85-19.3,16,16,0,0,1-.26-2.79A15.44,15.44,0,0,1,730.88,27a15.41,15.41,0,0,1,11.57,7.33,10.24,10.24,0,0,1,1.36-.1,10.45,10.45,0,0,1,8.91,15.94c.51,0,1-.09,1.56-.09a14.3,14.3,0,0,1,0,28.59,14.49,14.49,0,0,1-4-.58,15.15,15.15,0,0,1-16.48,4,15.19,15.19,0,0,1-22.23-4.65,15.23,15.23,0,0,1-23.78-.23A15.51,15.51,0,0,1,686.42,76a8.84,8.84,0,1,1-6.33-15Z"/><path class="cls-6" d="M675.41,62.31a8.8,8.8,0,0,0,13.53,1,14,14,0,0,0,1.34,1.22,15.21,15.21,0,0,0,23.78.23,15.19,15.19,0,0,0,22.23,4.65,15.1,15.1,0,0,0,16.49-4,14,14,0,0,0,4,.59A14.26,14.26,0,0,0,768,60.55a14,14,0,0,1,.53,3.8,14.29,14.29,0,0,1-14.29,14.29,14.49,14.49,0,0,1-4-.58,15.15,15.15,0,0,1-16.48,4,15.19,15.19,0,0,1-22.23-4.65,15.23,15.23,0,0,1-23.78-.23A15.51,15.51,0,0,1,686.42,76a8.83,8.83,0,1,1-11-13.65Z"/><path class="cls-7" d="M711.48,78.14a15.65,15.65,0,0,1-24-.66c-.36-.29-.71-.6-1-.91a9.15,9.15,0,0,1-6.32,2.5,9.27,9.27,0,1,1,0-18.54,8.86,8.86,0,0,1,2.2.3,15.67,15.67,0,0,1,7.81-9.44A15.67,15.67,0,0,1,700,32a15.31,15.31,0,0,1-.21-2.49,15.87,15.87,0,0,1,31.46-2.94,15.91,15.91,0,0,1,11.43,7.26,9.4,9.4,0,0,1,1.14-.07,10.89,10.89,0,0,1,9.68,15.88l.79,0a14.73,14.73,0,0,1,0,29.45,14.36,14.36,0,0,1-3.89-.53A15.7,15.7,0,0,1,739,83.44a15.49,15.49,0,0,1-5.19-.9,15.53,15.53,0,0,1-9.1,2.94A15.73,15.73,0,0,1,711.48,78.14Zm22.44,3.52a14.74,14.74,0,0,0,16-3.89.42.42,0,0,1,.44-.12,14,14,0,0,0,3.9.56,13.87,13.87,0,0,0,0-27.73,13.44,13.44,0,0,0-1.52.09.43.43,0,0,1-.41-.2.45.45,0,0,1,0-.45,10,10,0,0,0-8.54-15.29,10.66,10.66,0,0,0-1.3.09.41.41,0,0,1-.42-.2,15.12,15.12,0,0,0-11.26-7.13.42.42,0,0,1-.38-.35,15,15,0,0,0-29.81,2.48,14.35,14.35,0,0,0,.26,2.71.44.44,0,0,1-.3.49A14.77,14.77,0,0,0,691,51.48a.45.45,0,0,1-.22.52A14.8,14.8,0,0,0,683,61.47a.45.45,0,0,1-.2.27.45.45,0,0,1-.34,0,8.26,8.26,0,0,0-2.37-.38,8.41,8.41,0,0,0,0,16.82,8.32,8.32,0,0,0,6-2.55.44.44,0,0,1,.31-.13c.12,0,.22,0,.3.13A14.84,14.84,0,0,0,688,76.84l.06.07a14.81,14.81,0,0,0,23.12.23.46.46,0,0,1,.37-.16.4.4,0,0,1,.33.22,14.89,14.89,0,0,0,12.83,7.42,14.72,14.72,0,0,0,8.77-2.9.43.43,0,0,1,.26-.09A.4.4,0,0,1,733.92,81.66Z"/><path class="cls-7" d="M753.78,62.21a.44.44,0,0,0,.38-.22,10.62,10.62,0,0,0-6.61-15.25,10.39,10.39,0,0,0-8,1.07.43.43,0,0,0-.16.59.43.43,0,0,0,.59.15,9.53,9.53,0,0,1,7.31-1,9.76,9.76,0,0,1,6.07,14,.43.43,0,0,0,.18.58A.35.35,0,0,0,753.78,62.21Z"/><path class="cls-7" d="M699.2,43.66a.58.58,0,0,0,.18,0,.45.45,0,0,0,.22-.57,9.7,9.7,0,0,1,14.46-11.83.43.43,0,0,0,.5-.71A10.57,10.57,0,0,0,698.81,43.4.43.43,0,0,0,699.2,43.66Z"/><path class="cls-7" d="M713.55,77.26A14.13,14.13,0,0,0,727.64,64a.43.43,0,0,0-.41-.45.43.43,0,0,0-.45.4,13.27,13.27,0,0,1-25,5.39.43.43,0,1,0-.76.4,14.17,14.17,0,0,0,12.52,7.55Z"/><path class="cls-7" d="M696.39,71.38a8.05,8.05,0,0,0,8-7.57.43.43,0,0,0-.86-.05A7.18,7.18,0,0,1,690,66.68a.43.43,0,1,0-.76.4A8.06,8.06,0,0,0,696.39,71.38Z"/><path class="cls-5" d="M550.45,109.48a8.69,8.69,0,0,0-1.79.19,14.07,14.07,0,0,0-19.88-9.51,20.64,20.64,0,0,0-18.41-11.34c-.27,0-.52,0-.78,0A14,14,0,0,0,495,81.39a22.84,22.84,0,0,0-40.81-5,20.59,20.59,0,0,0-25.26,12.44,20.61,20.61,0,0,0-17.79,11.93A14.12,14.12,0,1,0,414,122.68a20.63,20.63,0,0,0,30.27,1.61,30.1,30.1,0,0,0,50.29-1.57,20.62,20.62,0,0,0,31,.73,14.09,14.09,0,0,0,18.22.41,8.74,8.74,0,1,0,6.67-14.38Z"/><path class="cls-6" d="M550.45,109.48a8.28,8.28,0,0,0-1,.07,8.7,8.7,0,0,1-14,.84,14.08,14.08,0,0,1-18.22-.42,20.6,20.6,0,0,1-31-.72,30.09,30.09,0,0,1-50.29,1.56,20.62,20.62,0,0,1-30.27-1.6,14.07,14.07,0,0,1-15.92,3.08c0,.2,0,.39,0,.58A14.12,14.12,0,0,0,414,122.68a20.63,20.63,0,0,0,30.27,1.61,30.1,30.1,0,0,0,50.29-1.57,20.62,20.62,0,0,0,31,.73,14.09,14.09,0,0,0,18.22.41,8.74,8.74,0,1,0,6.67-14.38Z"/><path class="cls-7" d="M468.87,137.88a31,31,0,0,1-24.75-12.4,21.44,21.44,0,0,1-30.21-1.64,14.94,14.94,0,1,1-3.14-24.14,21.34,21.34,0,0,1,17.59-11.59A21.43,21.43,0,0,1,453.83,75.5a23.64,23.64,0,0,1,41.69,5,13.71,13.71,0,0,1,1.52-.09A14.87,14.87,0,0,1,510,88h.33a21.35,21.35,0,0,1,18.77,11.1,14.86,14.86,0,0,1,20.1,9.64,8.2,8.2,0,0,1,1.21-.08,9.55,9.55,0,1,1-6.77,16.24,14.87,14.87,0,0,1-18.06-.4,21.4,21.4,0,0,1-31-.5A30.71,30.71,0,0,1,468.87,137.88Zm-24.64-14.39h.08a.81.81,0,0,1,.57.34,29.29,29.29,0,0,0,49-1.53.83.83,0,0,1,.62-.37.76.76,0,0,1,.67.28,19.81,19.81,0,0,0,29.85.7.8.8,0,0,1,1.11-.06,13.27,13.27,0,0,0,17.19.39.8.8,0,0,1,1.11.11,7.95,7.95,0,1,0,6.06-13.08,8.13,8.13,0,0,0-1.63.17.79.79,0,0,1-.94-.59,13.29,13.29,0,0,0-18.75-9,.78.78,0,0,1-1-.36,19.78,19.78,0,0,0-17.71-10.89l-.42,0-.33,0a.78.78,0,0,1-.74-.43A13.29,13.29,0,0,0,497,82a13.06,13.06,0,0,0-1.94.16.79.79,0,0,1-.86-.53,22.05,22.05,0,0,0-39.41-4.79.8.8,0,0,1-.89.33,19.64,19.64,0,0,0-5.73-.85,20,20,0,0,0-18.56,12.81.77.77,0,0,1-.7.51,19.78,19.78,0,0,0-17.11,11.47.83.83,0,0,1-.49.43.78.78,0,0,1-.65-.08,13.33,13.33,0,1,0,2.69,20.65.71.71,0,0,1,.6-.24.82.82,0,0,1,.58.28,19.83,19.83,0,0,0,29.11,1.55A.78.78,0,0,1,444.23,123.49Z"/><path class="cls-7" d="M405.39,112.12a.8.8,0,0,1-.79-.75,11.36,11.36,0,0,1,20.72-7,.8.8,0,0,1-.21,1.1.79.79,0,0,1-1.1-.2,9.77,9.77,0,0,0-17.82,6,.81.81,0,0,1-.75.84Z"/><path class="cls-7" d="M493,123.51a11.37,11.37,0,0,1-10.81-7.86.79.79,0,0,1,.51-1,.81.81,0,0,1,1,.51,9.77,9.77,0,0,0,18.8-.76.8.8,0,0,1,1.55.36,11.29,11.29,0,0,1-7.56,8.2A11.45,11.45,0,0,1,493,123.51Z"/><path class="cls-7" d="M480.26,94.68a.8.8,0,0,1-.79-.67,20.59,20.59,0,0,0-39.39-4.65.79.79,0,0,1-1.47-.6,22.18,22.18,0,0,1,42.43,5,.79.79,0,0,1-.66.91Z"/><path class="cls-7" d="M496.3,104.52a.79.79,0,0,1-.78-.67,11.09,11.09,0,0,0-21.22-2.51.79.79,0,0,1-1.47-.6,12.68,12.68,0,0,1,24.26,2.86.79.79,0,0,1-.66.91Z"/><path class="cls-7" d="M514.26,99.5a.65.65,0,0,1-.19,0,.78.78,0,0,1-.58-1,7.88,7.88,0,0,0-13.28-7.34.79.79,0,0,1-1.12,0,.8.8,0,0,1,0-1.12A9.46,9.46,0,0,1,515,98.89.79.79,0,0,1,514.26,99.5Z"/><path class="cls-7" d="M551.12,119.44a.62.62,0,0,1-.19,0,.8.8,0,0,1-.59-1,7.87,7.87,0,0,0-13.27-7.33.79.79,0,0,1-1.12,0,.8.8,0,0,1,0-1.12,9.46,9.46,0,0,1,15.95,8.81A.79.79,0,0,1,551.12,119.44Z"/><path class="cls-5" d="M240.37,177.13a7.37,7.37,0,0,0-5.94,3,9.78,9.78,0,0,0-7.3-1v-.31a16.37,16.37,0,0,0-16.37-16.37h-.15a25.63,25.63,0,0,0-51,0h-.15a16.38,16.38,0,0,0-16.38,16.37A10,10,0,1,0,152,193.4a16.39,16.39,0,0,0,15.48-.25,16.33,16.33,0,0,0,18.75.1,16.35,16.35,0,0,0,19.21,1.08,16.46,16.46,0,0,0,5.33.89,16.29,16.29,0,0,0,9.4-3,10,10,0,0,0,18.9-.43,7,7,0,0,0,1.31.13,7.41,7.41,0,0,0,0-14.82Z"/><path class="cls-6" d="M243.07,177.64a7.36,7.36,0,0,1-5.42,2.37,7.12,7.12,0,0,1-1.32-.12,10,10,0,0,1-18.89.43,16.4,16.4,0,0,1-14.74,2.08,16.35,16.35,0,0,1-19.21-1.08,16.33,16.33,0,0,1-18.75-.1,16.39,16.39,0,0,1-15.48.25,10,10,0,0,1-15.18,3.15,9.87,9.87,0,0,0-.94,4.21A10,10,0,0,0,152,193.4a16.39,16.39,0,0,0,15.48-.25,16.33,16.33,0,0,0,18.75.1,16.35,16.35,0,0,0,19.21,1.08,16.46,16.46,0,0,0,5.33.89,16.29,16.29,0,0,0,9.4-3,10,10,0,0,0,18.9-.43,7,7,0,0,0,1.31.13,7.41,7.41,0,0,0,2.7-14.31Z"/><path class="cls-7" d="M229.53,199.41a10.62,10.62,0,0,1-9.64-6.26A16.9,16.9,0,0,1,205.51,195a17,17,0,0,1-19.32-1,17,17,0,0,1-18.76-.14,17,17,0,0,1-7.93,2,16.69,16.69,0,0,1-7.26-1.64,10.57,10.57,0,1,1-9.7-15.92,17,17,0,0,1,16.58-16.39,26.23,26.23,0,0,1,52,0,17,17,0,0,1,16.59,16.54,10.4,10.4,0,0,1,6.54,1,7.91,7.91,0,0,1,6.1-2.84,8,8,0,1,1,0,16c-.3,0-.6,0-.91,0A10.54,10.54,0,0,1,229.53,199.41Zm-9.37-7.76a.61.61,0,0,1,.56.39,9.38,9.38,0,0,0,17.77-.4.58.58,0,0,1,.67-.4,7.45,7.45,0,0,0,1.21.11,6.82,6.82,0,1,0-5.47-10.86.59.59,0,0,1-.77.16,9.22,9.22,0,0,0-6.86-.92.61.61,0,0,1-.74-.59v-.3a15.8,15.8,0,0,0-15.78-15.78c-.31,0-.71-.22-.74-.53a25,25,0,0,0-49.78,0,.6.6,0,0,1-.59.54h-.15a15.8,15.8,0,0,0-15.78,15.78.6.6,0,0,1-.6.6,9.39,9.39,0,1,0,8.34,13.68.59.59,0,0,1,.35-.29.61.61,0,0,1,.46,0,15.79,15.79,0,0,0,14.9-.24.59.59,0,0,1,.64,0,15.77,15.77,0,0,0,18.07.09.6.6,0,0,1,.72,0,15.76,15.76,0,0,0,18.5,1,.6.6,0,0,1,.52-.07,15.54,15.54,0,0,0,5.14.86,15.71,15.71,0,0,0,9.06-2.86A.6.6,0,0,1,220.16,191.65Z"/><path class="cls-7" d="M185.82,193.71a10.58,10.58,0,0,1-10.24-8,.61.61,0,0,1,.44-.73.6.6,0,0,1,.72.44,9.37,9.37,0,0,0,18,.57.6.6,0,1,1,1.14.35,10.59,10.59,0,0,1-10.1,7.41Z"/><path class="cls-7" d="M156.54,182.74a.61.61,0,0,1-.52-.31,15.67,15.67,0,0,1,21.59-21.11.61.61,0,0,1,.22.82.6.6,0,0,1-.82.21,14.49,14.49,0,0,0-19.95,19.5.59.59,0,0,1-.23.81A.6.6,0,0,1,156.54,182.74Z"/><path class="cls-7" d="M178.27,169.27a.58.58,0,0,1-.52-.31,9,9,0,0,1,12.36-12.08.59.59,0,0,1,.22.81.6.6,0,0,1-.82.22,7.78,7.78,0,0,0-10.72,10.48.6.6,0,0,1-.23.81A.62.62,0,0,1,178.27,169.27Z"/><path class="cls-7" d="M228.14,187.08a.66.66,0,0,1-.23,0,.61.61,0,0,1-.31-.79,6.2,6.2,0,0,0-9.28-7.52.6.6,0,0,1-.69-1,7.39,7.39,0,0,1,11.06,9A.6.6,0,0,1,228.14,187.08Z"/><path class="cls-5" d="M720.68,137.39a23.52,23.52,0,0,0,5.91-.75A23.76,23.76,0,0,1,751.9,123c.68.11,1.36.26,2,.42a41.45,41.45,0,0,1,17.59-27.31,38.85,38.85,0,0,0-7.49-.76,39.67,39.67,0,0,0-37,25.73,1.57,1.57,0,0,1-1.76,1,22.92,22.92,0,0,0-4.59-.47,22.38,22.38,0,0,0-17.4,8.31A23.88,23.88,0,0,0,720.68,137.39Z"/><path class="cls-5" d="M842.13,39.09a67.39,67.39,0,0,0-66.31,54.45,41.5,41.5,0,0,1,57.49,21.1,1.55,1.55,0,0,1-2.86,1.18,38.46,38.46,0,0,0-73.55,8.54,23.6,23.6,0,0,1,13.33,13.1,1.55,1.55,0,0,1-2.86,1.18A20.66,20.66,0,0,0,731,135a25.23,25.23,0,0,0,3.55-2.09,41,41,0,0,0,19.55,11.21,54.11,54.11,0,0,0,91.78,15,37.81,37.81,0,0,0,50.83-8.74c1.06.51,2.15,1,3.25,1.39V79.07h0a9.66,9.66,0,0,0-7.4,6A1.55,1.55,0,0,1,889.69,84,12.76,12.76,0,0,1,899.44,76L900,76V71.74A67.27,67.27,0,0,0,842.13,39.09Z"/><path class="cls-6" d="M900,180.66V180l-.69.36Z"/><path class="cls-6" d="M866.64,165.33a37.71,37.71,0,0,1-20.72-6.19,54.11,54.11,0,0,1-91.78-15,41,41,0,0,1-19.55-11.21A25.23,25.23,0,0,1,731,135a20.5,20.5,0,0,0-3.26,8.3,1.55,1.55,0,0,1-1.53,1.31l-.24,0a1.55,1.55,0,0,1-1.29-1.76,24.07,24.07,0,0,1,1.87-6.2,23.52,23.52,0,0,1-5.91.75,23.88,23.88,0,0,1-17.4-7.5,22.38,22.38,0,0,0,30.41,32.3,1.51,1.51,0,0,1,.9-.29,1.54,1.54,0,0,1,1.11.47,39.5,39.5,0,0,0,18.81,10.79,1.58,1.58,0,0,1,1.07.93,52.56,52.56,0,0,0,89.16,14.59,1.54,1.54,0,0,1,2-.3,36.24,36.24,0,0,0,46.69-5.94,21.22,21.22,0,0,1-21.64-8.87,1.55,1.55,0,1,1,2.55-1.75,18.24,18.24,0,0,0,25.32,4.75l.31-.22V151.79c-1.1-.43-2.19-.88-3.25-1.39A37.82,37.82,0,0,1,866.64,165.33Z"/><path class="cls-7" d="M900,180.66l-.69-.27a20.82,20.82,0,0,1-5.85,2.05,36.24,36.24,0,0,1-46.69,5.94,1.54,1.54,0,0,0-2,.3,52.56,52.56,0,0,1-89.16-14.59,1.58,1.58,0,0,0-1.07-.93,39.5,39.5,0,0,1-18.81-10.79,1.54,1.54,0,0,0-1.11-.47,1.51,1.51,0,0,0-.9.29,22.39,22.39,0,1,1-13-40.61,22.92,22.92,0,0,1,4.59.47,1.57,1.57,0,0,0,1.76-1,39.67,39.67,0,0,1,37-25.73,38.85,38.85,0,0,1,7.49.76,41.52,41.52,0,0,1,4.31-2.57A67.61,67.61,0,0,1,900,71.74V66.07A70.72,70.72,0,0,0,772.71,93.19a42.13,42.13,0,0,0-8.69-.93,42.77,42.77,0,0,0-39.42,26.53,25.79,25.79,0,0,0-3.92-.31,25.5,25.5,0,1,0,13.72,47A42.5,42.5,0,0,0,753,176a55.65,55.65,0,0,0,93.23,15.73,39.35,39.35,0,0,0,51-8.84c.92.41,1.85.78,2.79,1.12Z"/><path class="cls-7" d="M874.37,171.82a1.55,1.55,0,1,0-2.55,1.75,21.22,21.22,0,0,0,21.64,8.87,20.82,20.82,0,0,0,5.85-2.05L900,180v-3.68l-.31.22A18.24,18.24,0,0,1,874.37,171.82Z"/><path class="cls-7" d="M753.92,123.42a23.44,23.44,0,0,1,3,.94,38.46,38.46,0,0,1,73.55-8.54,1.55,1.55,0,0,0,2.86-1.18,41.57,41.57,0,0,0-79.39,8.78Z"/><path class="cls-7" d="M751.9,123a23.76,23.76,0,0,0-25.31,13.64,24.07,24.07,0,0,0-1.87,6.2A1.55,1.55,0,0,0,726,144.6l.24,0a1.55,1.55,0,0,0,1.53-1.31,20.7,20.7,0,0,1,39.59-4.67,1.55,1.55,0,0,0,2.86-1.18,23.71,23.71,0,0,0-16.31-14C753.26,123.26,752.58,123.11,751.9,123Z"/><path class="cls-7" d="M889.69,84a1.55,1.55,0,0,0,2.88,1.14,9.66,9.66,0,0,1,7.4-6h0V76l-.56.07A12.76,12.76,0,0,0,889.69,84Z"/><path class="cls-1" d="M0,88v.71H.35C.22,88.47.11,88.23,0,88Z"/><path class="cls-5" d="M0,90.17v1.24c.26-.41.54-.8.83-1.19Z"/><path class="cls-5" d="M89.6,124.25c.58,0,1.17-.08,1.74-.15q-.61-.36-1.2-.78C90,123.64,89.78,123.94,89.6,124.25Z"/><path class="cls-5" d="M2.07,88.77a18,18,0,0,1,8.46-5,17.71,17.71,0,0,1,13.65,1.83.72.72,0,0,1,.26,1,.73.73,0,0,1-1,.27,16.34,16.34,0,0,0-12.53-1.68A16.6,16.6,0,0,0,.8,92.87c-.3.52-.56,1-.8,1.57v13.73c.15.33.32.66.49,1a.73.73,0,0,1-.3,1,.59.59,0,0,1-.19,0v6c.53-.12,1.05-.25,1.57-.4a26,26,0,0,0,28.26,6.86,26,26,0,0,0,15.48,5.11,26.24,26.24,0,0,0,4.89-.46,24.17,24.17,0,0,1-5.54-14,.74.74,0,0,1,1.47-.09,22.64,22.64,0,0,0,5.71,13.77,26.18,26.18,0,0,0,16.09-12.25,26.07,26.07,0,0,0,19.94,9.59c.39-.6.76-1.22,1.1-1.86l0,0A13.7,13.7,0,0,1,84.48,113a.74.74,0,0,1,.69-.78.76.76,0,0,1,.78.69,12.23,12.23,0,0,0,7.89,10.76,26.06,26.06,0,0,0,14.86-9.38,23.85,23.85,0,0,0,2.3-2.08A15.1,15.1,0,0,0,133.74,111a14.27,14.27,0,0,0-7.57-2.17,14,14,0,0,0-4.07.66.75.75,0,0,1-.92-.52,25.4,25.4,0,0,0-13.39-16.25.73.73,0,0,1-.37-.89A25.33,25.33,0,0,0,92.13,60.09a18,18,0,0,1,2,17.91.75.75,0,0,1-.68.44.59.59,0,0,1-.29-.07.73.73,0,0,1-.38-1,16.63,16.63,0,0,0-24.8-20.29.74.74,0,0,1-.84-1.21,18.15,18.15,0,0,1,23.5,2.3,25.36,25.36,0,0,0,.35-4A25.73,25.73,0,0,0,39.84,50a.73.73,0,0,1-.65.61A25.84,25.84,0,0,0,19.9,62.78a.76.76,0,0,1-.73.35A17.19,17.19,0,0,0,16.94,63,17.23,17.23,0,0,0,0,77.27V83.1A17.45,17.45,0,0,0,2.07,88.77Z"/><path class="cls-6" d="M57.55,133.24a24.25,24.25,0,0,1-7.35-5.93,26.24,26.24,0,0,1-4.89.46,26,26,0,0,1-15.48-5.11A26,26,0,0,1,1.57,115.8c-.52.15-1,.28-1.57.4v21.44a24.07,24.07,0,0,0,5.68-.93.72.72,0,0,1,.75.21,25.22,25.22,0,0,0,27.47,6.66.73.73,0,0,1,.25,0,.7.7,0,0,1,.44.14,25.17,25.17,0,0,0,15,5,25.48,25.48,0,0,0,22-12.72s0,0,.07-.07a25.3,25.3,0,0,1-2.87.19A24.12,24.12,0,0,1,57.55,133.24Z"/><path class="cls-6" d="M58.24,131.94a22.75,22.75,0,0,0,29.63-7.66,26.07,26.07,0,0,1-19.94-9.59,26.18,26.18,0,0,1-16.09,12.25A22.7,22.7,0,0,0,58.24,131.94Z"/><path class="cls-6" d="M121.85,116.8A15.08,15.08,0,0,1,111,112.2a23.85,23.85,0,0,1-2.3,2.08,26.06,26.06,0,0,1-14.86,9.38,12.34,12.34,0,0,0,15.31-5.75.73.73,0,1,1,1.3.68,13.82,13.82,0,0,1-18.63,5.78l-.48-.27c-.57.07-1.16.12-1.74.15A24,24,0,0,1,76,135a25.92,25.92,0,0,1-3.33.78.71.71,0,0,1,.14.1,25.35,25.35,0,0,0,39.62-.39l.12-.12a22.81,22.81,0,0,0,2.24-2c.14-.14.32-.29.52-.22a.75.75,0,0,1,.53.22A14.4,14.4,0,1,0,133.74,111,15.09,15.09,0,0,1,121.85,116.8Z"/><path class="cls-7" d="M126.17,107.37a14.86,14.86,0,0,0-3.77.51A26.84,26.84,0,0,0,109,91.7a26.84,26.84,0,0,0-17-33.22A27.14,27.14,0,0,0,65.2,27,27.1,27.1,0,0,0,38.48,49.16,27.35,27.35,0,0,0,18.89,61.61a17.25,17.25,0,0,0-1.95-.12A18.69,18.69,0,0,0,0,72.36v4.91A17.23,17.23,0,0,1,16.94,63a17.19,17.19,0,0,1,2.23.17.76.76,0,0,0,.73-.35A25.84,25.84,0,0,1,39.19,50.56a.73.73,0,0,0,.65-.61,25.73,25.73,0,0,1,51.1,4.26,25.36,25.36,0,0,1-.35,4,17.29,17.29,0,0,1,1.54,1.88,25.33,25.33,0,0,1,15.29,31.75.73.73,0,0,0,.37.89A25.4,25.4,0,0,1,121.18,109a.75.75,0,0,0,.92.52,14,14,0,0,1,4.07-.66,14.47,14.47,0,0,1,14.42,14.42,14.4,14.4,0,0,1-24.74,10,.75.75,0,0,0-.53-.22c-.2-.07-.38.08-.52.22a22.81,22.81,0,0,1-2.24,2l-.12.12a25.35,25.35,0,0,1-39.62.39.71.71,0,0,0-.14-.1l-1,.13s-.06,0-.07.07a25.48,25.48,0,0,1-22,12.72,25.17,25.17,0,0,1-15-5,.7.7,0,0,0-.44-.14.73.73,0,0,0-.25,0,25.22,25.22,0,0,1-27.47-6.66.72.72,0,0,0-.75-.21,24.07,24.07,0,0,1-5.68.93v1.47a25,25,0,0,0,5.66-.87A26.69,26.69,0,0,0,34,145.1a26.64,26.64,0,0,0,15.6,5,27,27,0,0,0,22.73-12.56,26.83,26.83,0,0,0,41.19-1.14c.62-.5,1.21-1,1.77-1.57a15.75,15.75,0,0,0,10.85,4.3,15.89,15.89,0,0,0,0-31.78Z"/><path class="cls-7" d="M2.07,88.77A17.45,17.45,0,0,1,0,83.1V88c.11.24.22.48.35.72H0v1.47l.83,0A19,19,0,0,1,2.07,88.77Z"/><path class="cls-7" d="M.49,109.16c-.17-.33-.34-.66-.49-1v2a.59.59,0,0,0,.19,0A.73.73,0,0,0,.49,109.16Z"/><path class="cls-7" d="M10.91,85.15a16.34,16.34,0,0,1,12.53,1.68.73.73,0,0,0,1-.27.72.72,0,0,0-.26-1,17.71,17.71,0,0,0-13.65-1.83,18,18,0,0,0-8.46,5A19,19,0,0,0,.83,90.22C.54,90.61.26,91,0,91.41v3c.24-.53.5-1,.8-1.57A16.6,16.6,0,0,1,10.91,85.15Z"/><path class="cls-7" d="M84.77,54.15a18,18,0,0,0-17.68,1.76.74.74,0,0,0,.84,1.21,16.64,16.64,0,0,1,24.8,20.29.73.73,0,0,0,.38,1,.59.59,0,0,0,.29.07.75.75,0,0,0,.68-.44,18,18,0,0,0-2-17.91,17.29,17.29,0,0,0-1.54-1.88A18,18,0,0,0,84.77,54.15Z"/><path class="cls-7" d="M89.6,124.25c.18-.31.37-.61.54-.93-.4-.29-.78-.6-1.15-.92l0,0c-.34.64-.71,1.26-1.1,1.86a22.75,22.75,0,0,1-41.74-11.11.74.74,0,0,0-1.47.09,24.27,24.27,0,0,0,24.16,22.79,25.3,25.3,0,0,0,2.87-.19l1-.13A25.92,25.92,0,0,0,76,135,24,24,0,0,0,89.6,124.25Z"/><path class="cls-7" d="M91.34,124.1l.48.27a13.82,13.82,0,0,0,18.63-5.78.73.73,0,1,0-1.3-.68,12.34,12.34,0,0,1-15.31,5.75A12.23,12.23,0,0,1,86,112.9a.76.76,0,0,0-.78-.69.74.74,0,0,0-.69.78A13.7,13.7,0,0,0,89,122.4c.37.32.75.63,1.15.92S90.93,123.86,91.34,124.1Z"/><path class="cls-1" d="M315.15,0h-4.67a21.53,21.53,0,0,1,3.6,1.86C314.42,1.22,314.78.61,315.15,0Z"/><path class="cls-5" d="M316.89,3.2a6.91,6.91,0,0,1,5.31,4.32.84.84,0,1,1-1.57.62,5.23,5.23,0,0,0-4-3.28,5.3,5.3,0,0,0-6.12,4.32.85.85,0,0,1-.83.7l-.14,0a.83.83,0,0,1-.69-1,7,7,0,0,1,4.62-5.42A19.78,19.78,0,0,0,282.63,20a.92.92,0,0,1,0,.16A.83.83,0,0,1,282,21a12.16,12.16,0,0,0-7.2,4.3,13,13,0,0,0,9.47,4.1,13.38,13.38,0,0,0,2.78-.3,22.31,22.31,0,0,0,31.36,14.64,20.62,20.62,0,0,0,27.7,4.76,29.48,29.48,0,0,0,50-8.18,22.27,22.27,0,0,0,10.65-6.11,13,13,0,0,0,1.94,1.14,11.28,11.28,0,0,0-2.72-2.84,11.28,11.28,0,0,0-17.08,4.82.84.84,0,0,1-1.1.46.85.85,0,0,1-.46-1.1,12.89,12.89,0,0,1,7.27-7.13,21,21,0,0,0-40.09-4.67.84.84,0,1,1-1.55-.64,22.63,22.63,0,0,1,31.33-11.5A36.94,36.94,0,0,0,379.16,0h-62c-.64,1-1.24,2-1.8,3.11A6.76,6.76,0,0,1,316.89,3.2Z"/><path class="cls-5" d="M396.19,29c.37-.09.73-.18,1.1-.24a13,13,0,0,1,13.79,7.43,13.15,13.15,0,0,0,3.22.41,13,13,0,0,0,9.47-4.1A12.2,12.2,0,0,0,414.3,28a12.49,12.49,0,0,0-2.5.26.86.86,0,0,1-1-.53,21.6,21.6,0,0,0-20.15-14,21.3,21.3,0,0,0-4.08.41A22.6,22.6,0,0,1,396.19,29Z"/><path class="cls-6" d="M414.3,36.64a13.15,13.15,0,0,1-3.22-.41,12.49,12.49,0,0,1,1,3.38.84.84,0,0,1-.7,1h-.13a.86.86,0,0,1-.84-.71,11.17,11.17,0,0,0-1.77-4.53,13,13,0,0,1-1.94-1.14,22.27,22.27,0,0,1-10.65,6.11,29.48,29.48,0,0,1-50,8.18,20.62,20.62,0,0,1-27.7-4.76A22.31,22.31,0,0,1,287,29.09a13.38,13.38,0,0,1-2.78.3,13,13,0,0,1-9.47-4.1A12.2,12.2,0,0,0,286.82,44.9a.84.84,0,0,1,1,.62,21.49,21.49,0,0,0,20.84,16.24,21.2,21.2,0,0,0,8.3-1.69,12.64,12.64,0,0,1-1.16-.69,11.53,11.53,0,0,1-5-10.22.83.83,0,0,1,.89-.8.84.84,0,0,1,.79.89,9.93,9.93,0,0,0,18.11,6.15.85.85,0,0,1,1.17-.22.84.84,0,0,1,.22,1.17,11.54,11.54,0,0,1-11.79,4.84,19.75,19.75,0,0,0,25.44,3.24.83.83,0,0,1,1.11.16,28.64,28.64,0,0,0,48.59-8,.83.83,0,0,1,.58-.51,21.48,21.48,0,0,0,10.25-5.88.83.83,0,0,1,.6-.26.87.87,0,0,1,.49.16,12.08,12.08,0,0,0,7.09,2.28,12.19,12.19,0,0,0,9.47-19.89A13,13,0,0,1,414.3,36.64Z"/><path class="cls-7" d="M379.16,0a36.94,36.94,0,0,1,5.1,12.74,24.26,24.26,0,0,1,2.35,1.4,21.3,21.3,0,0,1,4.08-.41,21.6,21.6,0,0,1,20.15,14,.86.86,0,0,0,1,.53,12.49,12.49,0,0,1,2.5-.26,12.21,12.21,0,1,1-7.09,22.13.87.87,0,0,0-.49-.16.83.83,0,0,0-.6.26,21.48,21.48,0,0,1-10.25,5.88.83.83,0,0,0-.58.51,28.64,28.64,0,0,1-48.59,8,.83.83,0,0,0-1.11-.16,19.75,19.75,0,0,1-25.44-3.24A11.45,11.45,0,0,1,317,60.07a21.2,21.2,0,0,1-8.3,1.69,21.49,21.49,0,0,1-20.84-16.24.84.84,0,0,0-1-.62A12.2,12.2,0,1,1,282,21a.83.83,0,0,0,.69-.84.92.92,0,0,0,0-.16A19.78,19.78,0,0,1,313.44,3.47a6.8,6.8,0,0,1,1.9-.36C315.9,2,316.5,1,317.14,0h-2c-.37.61-.73,1.22-1.07,1.86A21.53,21.53,0,0,0,310.48,0H294.39A21.53,21.53,0,0,0,281,19.48a13.89,13.89,0,0,0,3.27,27.39,14.42,14.42,0,0,0,2.17-.17,23.17,23.17,0,0,0,22.27,16.74,22.91,22.91,0,0,0,9.45-2,21.45,21.45,0,0,0,27.78,4.82,30.33,30.33,0,0,0,50.81-8.57,23.23,23.23,0,0,0,10.13-5.73,13.89,13.89,0,1,0,7.47-25.59,14,14,0,0,0-2.14.16A23.3,23.3,0,0,0,390.69,12a22.83,22.83,0,0,0-4.74.51A38.63,38.63,0,0,0,381.15,0Z"/><path class="cls-7" d="M331.94,56.35a.84.84,0,0,0-.22-1.17.85.85,0,0,0-1.17.22,9.93,9.93,0,0,1-18.11-6.15.84.84,0,0,0-.79-.89.83.83,0,0,0-.89.8,11.53,11.53,0,0,0,5,10.22,12.64,12.64,0,0,0,1.16.69,11.45,11.45,0,0,0,3.19,1.12,11.54,11.54,0,0,0,11.79-4.84Z"/><path class="cls-7" d="M370.38,10.48a22.47,22.47,0,0,0-17.45,13.76.84.84,0,1,0,1.55.64,21,21,0,0,1,40.09,4.67,14.53,14.53,0,0,1,1.62-.51,22.6,22.6,0,0,0-9.58-14.9,24.26,24.26,0,0,0-2.35-1.4A22.52,22.52,0,0,0,370.38,10.48Z"/><path class="cls-7" d="M411.27,40.58h.13a.84.84,0,0,0,.7-1,12.49,12.49,0,0,0-1-3.38,13,13,0,0,0-13.79-7.43c-.37.06-.73.15-1.1.24a14.53,14.53,0,0,0-1.62.51,12.89,12.89,0,0,0-7.27,7.13.85.85,0,0,0,.46,1.1.84.84,0,0,0,1.1-.46,11.28,11.28,0,0,1,21.57,2.55A.86.86,0,0,0,411.27,40.58Z"/><path class="cls-7" d="M308.82,8.89a.83.83,0,0,0,.69,1l.14,0a.85.85,0,0,0,.83-.7,5.3,5.3,0,0,1,6.12-4.32,5.23,5.23,0,0,1,4,3.28.84.84,0,1,0,1.57-.62,6.91,6.91,0,0,0-5.31-4.32,7.13,7.13,0,0,0-3.45.27A7,7,0,0,0,308.82,8.89Z"/></g><path class="cls-8" d="M316.78,122.16s.3,24.81.3,38.18-7.75,55.28-5.11,76.59,3,44.76,3,44.76l-1.41-.95a248.46,248.46,0,0,0-.71-28.65c-1.31-13.62-4.07-22.7-1.47-41.72s5.25-42.93,4.9-65.54L316,122.22Z"/><path class="cls-9" d="M308.16,205.38s5.09,1.06,8.51,0c0,0-.73-4.86-4.25-4.86S308.16,205.38,308.16,205.38Z"/><g class="cls-10"><ellipse class="cls-11" cx="312" cy="159.11" rx="35.29" ry="41.8"/></g><g class="cls-12"><g class="cls-10"><path class="cls-13" d="M309.31,200.79c4.93,3.9,18.82-2.41,25.52-17.84,0,0-16.27,21.5-32.89,14-11.48-5.2-14.34-11.24-5.4-4.49S325.23,195,338.06,177s7.92-27,4.57-14.9-30.28,44.17-52.23,23-12.9-20.17-4.11-6.94,27.48,14.66,43.29-.06,12.7-30.27,12.7-30.27l.75-8.61s-17.43-23.24-6.47-4.7S330.4,184,303.61,182.55c-19.22-1-22.21-19.57-22.21-19.57l-2.35-13.78s1-10.45,1.95,2.29,5.42,26.58,23.92,27.14,43.95-27.8,27.86-49.49S308.47,113.8,321.29,121s14,44.64-11.87,50.56-29.47-19.86-25.86-29-.69-21.46-.69-21.46,7.66.56,3.36,14.39.15,33.41,16.82,32.88c17.75-.56,28.9-19.62,22.57-35.31s-13.72-13.9-13.72-13.9l-6.8-4.92s-11.38,9.52-3.16,7.07,17.71,9.94,17.74,27.26-27.84,16.5-31.39,2.94.3-19.61,4.92-23.78c0,0-7.35,8.13-.81,22.14s19.07,7.29,22.15-.56-2.19-22.74-8.89-25.41a8.58,8.58,0,0,0-10.39,2.81s8.88-4.56,15.24,11.54-12.7,16.34-15.87,4.31-.23-15.34-.23-15.34-1.47-.5-3.71,2.71-1.06-4.81-1.06-4.81l3.57-19.34H276.75l.89,93.16s20.74,17.26,22,17.08-.56-10.29.94-10.85S309.31,200.79,309.31,200.79Z"/></g></g><path class="cls-14" d="M314.55,198.92c6.57-1.17,15.68-9.53,20.28-18.46,0,0-11.45,9-15,12A25.53,25.53,0,0,0,314.55,198.92Z"/><path class="cls-15" d="M301.83,165s-1.52-19.1,4.26-32.05h3.24A83.14,83.14,0,0,1,312,152.82s19.25.22,26.55-11.56a13,13,0,0,0,.81-1.52C334.38,128.1,323.68,120,311.86,120c-16.24,0-30.17,15.85-30.17,34.65a31.79,31.79,0,0,0,.32,4.44C283.44,160.4,289.81,165.4,301.83,165Z"/><path class="cls-16" d="M282.13,151.49c-1.55,4.43-.53,12.72,2.21,18.42,0,0-.56-9.93-.88-13.09A18.56,18.56,0,0,0,282.13,151.49Z"/><path class="cls-17" d="M281.7,153.73c.13-.83.66,6.74.59,8.06s0,3.31,0,3.31C282.14,165.15,280.83,159.21,281.7,153.73Z"/><path class="cls-18" d="M295.69,129.69c1.7-3.81,5.06-3.29,6.25-2.26C301.94,127.43,293.29,135,295.69,129.69Z"/><path class="cls-19" d="M316.67,205.38s-4.95-2.08-8.51,0C308.16,205.38,313.25,206.44,316.67,205.38Z"/><path class="cls-19" d="M312.57,200.9l1.5-.06c3.56-.44,7.62-2.8,11.55-6.45-14.36,12.58-28.27-1.17-32.41-5.6C299.13,195.93,306.29,200.74,312.57,200.9Z"/><path class="cls-8" d="M239.24,291.4s.2,16.81.2,25.87-5.25,37.45-3.46,51.88S238,399.47,238,399.47l-1-.64a168.39,168.39,0,0,0-.48-19.41c-.88-9.22-2.75-15.38-1-28.26s3.56-29.08,3.32-44.4l-.24-15.32Z"/><path class="cls-20" d="M233.4,347.77a13.93,13.93,0,0,0,5.76,0s-.49-3.29-2.88-3.29S233.4,347.77,233.4,347.77Z"/><g class="cls-21"><ellipse class="cls-22" cx="236" cy="316.43" rx="23.91" ry="28.32"/></g><g class="cls-12"><g class="cls-21"><path class="cls-13" d="M234.18,344.67c3.34,2.64,12.75-1.64,17.29-12.09,0,0-11,14.57-22.29,9.47-7.77-3.53-9.71-7.62-3.65-3.05s19.43,1.75,28.12-10.46,5.37-18.32,3.1-10.1S236.24,348.37,221.37,334s-8.74-13.66-2.79-4.7,18.62,9.93,29.33-.05,8.6-20.5,8.6-20.5l.51-5.83s-11.81-15.74-4.39-3.19-4.16,33.51-22.31,32.56c-13-.68-15-13.25-15-13.25l-1.59-9.34s.69-7.08,1.32,1.55,3.67,18,16.2,18.38,29.78-18.82,18.88-33.52-16.47-10.39-7.79-5.53,9.47,30.23-8,34.24-20-13.45-17.52-19.63-.46-14.54-.46-14.54,5.19.38,2.27,9.75.1,22.63,11.4,22.27c12-.38,19.57-13.29,15.29-23.92s-9.3-9.41-9.3-9.41l-4.6-3.34s-7.71,6.45-2.15,4.79,12,6.74,12,18.47-18.86,11.18-21.26,2,.2-13.28,3.33-16.11c0,0-5,5.51-.55,15s12.92,4.94,15-.38-1.48-15.4-6-17.21a5.82,5.82,0,0,0-7.05,1.9s6-3.09,10.33,7.82-8.6,11.07-10.75,2.92-.16-10.39-.16-10.39-1-.34-2.51,1.84-.72-3.27-.72-3.27l2.42-13.1H212.12l.6,63.11s14.05,11.69,14.94,11.57-.38-7,.63-7.35S234.18,344.67,234.18,344.67Z"/></g></g><path class="cls-23" d="M237.72,343.4c4.46-.79,10.63-6.45,13.75-12.5,0,0-7.76,6.07-10.15,8.16A17.47,17.47,0,0,0,237.72,343.4Z"/><path class="cls-24" d="M229.11,320.44s-1-12.94,2.88-21.71h2.2A56,56,0,0,1,236,312.17s13,.15,18-7.83a9.14,9.14,0,0,0,.54-1c-3.35-7.88-10.6-13.35-18.6-13.35-11,0-20.44,10.73-20.44,23.47a21.86,21.86,0,0,0,.21,3C216.66,317.31,221,320.69,229.11,320.44Z"/><path class="cls-25" d="M215.77,311.27c-1.06,3-.36,8.62,1.49,12.48,0,0-.38-6.73-.6-8.87A12.27,12.27,0,0,0,215.77,311.27Z"/><path class="cls-17" d="M215.47,312.79a39.16,39.16,0,0,1,.4,5.46c0,.9,0,2.24,0,2.24A18.53,18.53,0,0,1,215.47,312.79Z"/><path class="cls-18" d="M225,296.5c1.16-2.58,3.43-2.22,4.23-1.53C229.18,295,223.33,300.12,225,296.5Z"/><path class="cls-19" d="M239.16,347.77s-3.35-1.4-5.76,0A13.93,13.93,0,0,0,239.16,347.77Z"/><path class="cls-19" d="M236.39,344.74c.34,0,.68,0,1,0,2.41-.29,5.17-1.9,7.83-4.37-9.73,8.52-19.15-.79-22-3.79C227.28,341.38,232.13,344.63,236.39,344.74Z"/><path class="cls-8" d="M107.78,233.16s.3,24.81.3,38.18-7.75,55.28-5.11,76.59,3,44.76,3,44.76l-1.41-.95a248.46,248.46,0,0,0-.71-28.65c-1.31-13.62-4.07-22.7-1.47-41.72s5.25-42.93,4.9-65.54L107,233.22Z"/><path class="cls-26" d="M99.16,316.38s5.09,1.06,8.51,0c0,0-.73-4.86-4.25-4.86S99.16,316.38,99.16,316.38Z"/><g class="cls-27"><ellipse class="cls-28" cx="103" cy="270.11" rx="35.29" ry="41.8"/></g><g class="cls-12"><g class="cls-27"><path class="cls-13" d="M100.31,311.79c4.93,3.9,18.82-2.41,25.52-17.84,0,0-16.27,21.5-32.89,14-11.48-5.2-14.34-11.24-5.4-4.49S116.23,306,129.06,288s7.92-27,4.57-14.9-30.28,44.17-52.23,23-12.9-20.17-4.11-6.94,27.48,14.66,43.29-.06,12.7-30.27,12.7-30.27l.75-8.61s-17.43-23.24-6.47-4.7S121.4,295,94.61,293.55C75.39,292.54,72.4,274,72.4,274L70.05,260.2s1-10.45,2,2.29,5.42,26.58,23.92,27.14,44-27.8,27.86-49.49S99.47,224.8,112.29,232s14,44.64-11.87,50.56-29.47-19.86-25.86-29-.69-21.46-.69-21.46,7.66.56,3.36,14.39.15,33.41,16.82,32.88c17.75-.56,28.9-19.62,22.57-35.31s-13.72-13.9-13.72-13.9l-6.8-4.92s-11.38,9.52-3.16,7.07,17.71,9.94,17.74,27.26-27.84,16.5-31.39,2.94.3-19.61,4.92-23.78c0,0-7.35,8.13-.81,22.14s19.07,7.29,22.15-.56-2.19-22.74-8.89-25.41a8.58,8.58,0,0,0-10.39,2.81s8.88-4.56,15.24,11.54-12.7,16.34-15.87,4.31-.23-15.34-.23-15.34-1.47-.5-3.71,2.71-1.06-4.81-1.06-4.81l3.57-19.34H67.75l.89,93.16s20.74,17.26,22,17.08-.56-10.29.94-10.85S100.31,311.79,100.31,311.79Z"/></g></g><path class="cls-29" d="M105.55,309.92c6.57-1.17,15.68-9.53,20.28-18.46,0,0-11.45,9-15,12.05A25.53,25.53,0,0,0,105.55,309.92Z"/><path class="cls-30" d="M92.83,276s-1.52-19.1,4.26-32h3.24A83.14,83.14,0,0,1,103,263.82s19.25.22,26.55-11.56a13,13,0,0,0,.81-1.52c-5-11.64-15.65-19.71-27.47-19.71-16.24,0-30.17,15.85-30.17,34.65a31.79,31.79,0,0,0,.32,4.44C74.44,271.4,80.81,276.4,92.83,276Z"/><path class="cls-31" d="M73.13,262.49c-1.55,4.43-.53,12.72,2.21,18.42,0,0-.56-9.93-.88-13.09A18.56,18.56,0,0,0,73.13,262.49Z"/><path class="cls-17" d="M72.7,264.73c.13-.83.66,6.74.59,8.06s0,3.31,0,3.31C73.14,276.15,71.83,270.21,72.7,264.73Z"/><path class="cls-18" d="M86.69,240.69c1.7-3.81,5.06-3.29,6.25-2.26C92.94,238.43,84.29,246,86.69,240.69Z"/><path class="cls-19" d="M107.67,316.38s-5-2.08-8.51,0C99.16,316.38,104.25,317.44,107.67,316.38Z"/><path class="cls-19" d="M103.57,311.9q.75,0,1.5-.06c3.56-.44,7.62-2.8,11.55-6.45-14.36,12.58-28.27-1.17-32.41-5.6C90.13,306.93,97.29,311.74,103.57,311.9Z"/><path class="cls-8" d="M78.08,418.93s.19,16,.2,24.63-5,35.67-3.3,49.41,2,28.88,2,28.88l-.91-.61a160.32,160.32,0,0,0-.46-18.49c-.84-8.78-2.62-14.64-.95-26.91s3.4-27.7,3.17-42.29L77.56,419Z"/><path class="cls-32" d="M72.52,472.61a13.39,13.39,0,0,0,5.49,0s-.47-3.13-2.74-3.13S72.52,472.61,72.52,472.61Z"/><g class="cls-33"><ellipse class="cls-34" cx="75" cy="442.77" rx="22.77" ry="26.97"/></g><g class="cls-12"><g class="cls-33"><path class="cls-13" d="M73.26,469.66c3.19,2.51,12.15-1.56,16.47-11.52,0,0-10.5,13.88-21.22,9-7.41-3.36-9.25-7.25-3.48-2.9s18.51,1.66,26.78-10,5.12-17.44,3-9.61-19.54,28.5-33.7,14.83-8.32-13-2.65-4.47,17.73,9.45,27.93,0,8.2-19.53,8.2-19.53l.48-5.56s-11.25-15-4.18-3-4,31.91-21.25,31c-12.41-.65-14.33-12.63-14.33-12.63l-1.52-8.89s.66-6.74,1.26,1.48S58.5,455,70.43,455.36s28.36-17.93,18-31.93-15.68-9.9-7.42-5.27,9,28.8-7.66,32.62-19-12.82-16.68-18.71-.44-13.84-.44-13.84,4.94.36,2.17,9.28.09,21.56,10.84,21.22c11.46-.36,18.65-12.66,14.57-22.79s-8.86-9-8.86-9l-4.38-3.18s-7.34,6.14-2,4.56S79.93,424.78,80,436s-18,10.65-20.25,1.9.2-12.65,3.18-15.34c0,0-4.75,5.24-.53,14.28s12.31,4.7,14.29-.36S75.23,421.76,70.91,420a5.55,5.55,0,0,0-6.71,1.81s5.73-2.94,9.84,7.45-8.19,10.54-10.24,2.77-.15-9.89-.15-9.89-.95-.32-2.39,1.75-.68-3.11-.68-3.11l2.3-12.48H52.26l.57,60.11s13.38,11.14,14.22,11-.36-6.64.61-7S73.26,469.66,73.26,469.66Z"/></g></g><path class="cls-35" d="M76.64,468.45c4.24-.75,10.12-6.15,13.09-11.91,0,0-7.39,5.79-9.66,7.78A16.37,16.37,0,0,0,76.64,468.45Z"/><path class="cls-36" d="M68.44,446.58s-1-12.33,2.74-20.68h2.1A53.44,53.44,0,0,1,75,438.71s12.42.14,17.13-7.46a7.06,7.06,0,0,0,.52-1c-3.19-7.51-10.09-12.72-17.72-12.72-10.48,0-19.46,10.23-19.46,22.35a21.3,21.3,0,0,0,.2,2.87C56.58,443.6,60.68,446.82,68.44,446.58Z"/><path class="cls-37" d="M55.73,437.85c-1,2.86-.34,8.21,1.43,11.88,0,0-.37-6.4-.57-8.44A11.82,11.82,0,0,0,55.73,437.85Z"/><path class="cls-17" d="M55.45,439.3a36.05,36.05,0,0,1,.38,5.2c0,.85,0,2.13,0,2.13A17.54,17.54,0,0,1,55.45,439.3Z"/><path class="cls-18" d="M64.47,423.79c1.11-2.46,3.27-2.13,4-1.46C68.51,422.33,62.93,427.22,64.47,423.79Z"/><path class="cls-19" d="M78,472.61s-3.19-1.33-5.49,0A13.39,13.39,0,0,0,78,472.61Z"/><path class="cls-19" d="M75.37,469.73l1,0c2.29-.28,4.91-1.81,7.45-4.16-9.27,8.11-18.24-.76-20.91-3.62C66.69,466.52,71.32,469.62,75.37,469.73Z"/><path class="cls-8" d="M606.22,122.16s-.3,24.81-.3,38.18,7.75,55.28,5.11,76.59-3,44.76-3,44.76l1.41-.95a248.46,248.46,0,0,1,.71-28.65c1.31-13.62,4.07-22.7,1.47-41.72s-5.25-42.93-4.9-65.54l.36-22.61Z"/><path class="cls-38" d="M614.84,205.38s-5.09,1.06-8.51,0c0,0,.73-4.86,4.25-4.86S614.84,205.38,614.84,205.38Z"/><g class="cls-39"><ellipse class="cls-40" cx="611" cy="159.11" rx="35.29" ry="41.8"/></g><g class="cls-12"><g class="cls-39"><path class="cls-13" d="M613.69,200.79c-4.93,3.9-18.82-2.41-25.52-17.84,0,0,16.27,21.5,32.89,14,11.48-5.2,14.34-11.24,5.4-4.49S597.77,195,584.94,177s-7.92-27-4.57-14.9,30.28,44.17,52.23,23,12.9-20.17,4.11-6.94-27.48,14.66-43.29-.06-12.7-30.27-12.7-30.27l-.75-8.61s17.43-23.24,6.47-4.7,6.16,49.47,32.95,48.06c19.22-1,22.21-19.57,22.21-19.57L644,149.2s-1-10.45-2,2.29-5.42,26.58-23.92,27.14-44-27.8-27.86-49.49,24.31-15.34,11.49-8.17-14,44.64,11.87,50.56,29.47-19.86,25.86-29,.69-21.46.69-21.46-7.66.56-3.36,14.39-.15,33.41-16.82,32.88c-17.75-.56-28.9-19.62-22.57-35.31s13.72-13.9,13.72-13.9l6.8-4.92s11.38,9.52,3.16,7.07-17.71,9.94-17.74,27.26,27.84,16.5,31.39,2.94-.3-19.61-4.92-23.78c0,0,7.35,8.13.81,22.14s-19.07,7.29-22.15-.56,2.19-22.74,8.89-25.41a8.58,8.58,0,0,1,10.39,2.81s-8.88-4.56-15.24,11.54,12.7,16.34,15.87,4.31.23-15.34.23-15.34,1.47-.5,3.71,2.71,1.06-4.81,1.06-4.81l-3.57-19.34h16.46l-.89,93.16s-20.74,17.26-22,17.08.56-10.29-.94-10.85S613.69,200.79,613.69,200.79Z"/></g></g><path class="cls-41" d="M608.45,198.92c-6.57-1.17-15.68-9.53-20.28-18.46,0,0,11.45,9,15,12A25.53,25.53,0,0,1,608.45,198.92Z"/><path class="cls-42" d="M621.17,165s1.52-19.1-4.26-32.05h-3.24A83.14,83.14,0,0,0,611,152.82s-19.25.22-26.55-11.56a13,13,0,0,1-.81-1.52c5-11.64,15.65-19.71,27.47-19.71,16.24,0,30.17,15.85,30.17,34.65a31.79,31.79,0,0,1-.32,4.44C639.56,160.4,633.19,165.4,621.17,165Z"/><path class="cls-43" d="M640.87,151.49c1.55,4.43.53,12.72-2.21,18.42,0,0,.56-9.93.88-13.09A18.56,18.56,0,0,1,640.87,151.49Z"/><path class="cls-17" d="M641.3,153.73c-.13-.83-.66,6.74-.59,8.06s-.05,3.31-.05,3.31C640.86,165.15,642.17,159.21,641.3,153.73Z"/><path class="cls-18" d="M627.31,129.69c-1.7-3.81-5.06-3.29-6.25-2.26C621.06,127.43,629.71,135,627.31,129.69Z"/><path class="cls-19" d="M606.33,205.38s4.95-2.08,8.51,0C614.84,205.38,609.75,206.44,606.33,205.38Z"/><path class="cls-19" d="M610.43,200.9l-1.5-.06c-3.56-.44-7.62-2.8-11.55-6.45,14.36,12.58,28.27-1.17,32.41-5.6C623.87,195.93,616.71,200.74,610.43,200.9Z"/><path class="cls-8" d="M683.76,291.4s-.2,16.81-.2,25.87,5.25,37.45,3.46,51.88S685,399.47,685,399.47l1-.64a168.39,168.39,0,0,1,.48-19.41c.88-9.22,2.75-15.38,1-28.26s-3.56-29.08-3.32-44.4l.24-15.32Z"/><path class="cls-44" d="M689.6,347.77a13.93,13.93,0,0,1-5.76,0s.49-3.29,2.88-3.29S689.6,347.77,689.6,347.77Z"/><g class="cls-45"><ellipse class="cls-46" cx="687" cy="316.43" rx="23.91" ry="28.32"/></g><g class="cls-12"><g class="cls-45"><path class="cls-13" d="M688.82,344.67c-3.34,2.64-12.75-1.64-17.29-12.09,0,0,11,14.57,22.29,9.47,7.77-3.53,9.71-7.62,3.65-3.05s-19.43,1.75-28.12-10.46-5.37-18.32-3.1-10.1,20.51,29.93,35.38,15.58,8.74-13.66,2.79-4.7-18.62,9.93-29.33-.05-8.6-20.5-8.6-20.5l-.51-5.83s11.81-15.74,4.39-3.19,4.16,33.51,22.31,32.56c13-.68,15.05-13.25,15.05-13.25l1.59-9.34s-.69-7.08-1.32,1.55-3.67,18-16.2,18.38S662,310.83,672.92,296.13s16.47-10.39,7.79-5.53-9.47,30.23,8,34.24,20-13.45,17.52-19.63.46-14.54.46-14.54-5.19.38-2.27,9.75-.1,22.63-11.4,22.27c-12-.38-19.57-13.29-15.29-23.92s9.3-9.41,9.3-9.41l4.6-3.34s7.71,6.45,2.15,4.79-12,6.74-12,18.47,18.86,11.18,21.26,2-.2-13.28-3.33-16.11c0,0,5,5.51.55,15s-12.92,4.94-15-.38,1.48-15.4,6-17.21a5.82,5.82,0,0,1,7.05,1.9s-6-3.09-10.33,7.82,8.6,11.07,10.75,2.92.16-10.39.16-10.39,1-.34,2.51,1.84.72-3.27.72-3.27l-2.42-13.1h11.15l-.6,63.11s-14,11.69-14.94,11.57.38-7-.63-7.35S688.82,344.67,688.82,344.67Z"/></g></g><path class="cls-47" d="M685.28,343.4c-4.46-.79-10.63-6.45-13.75-12.5,0,0,7.76,6.07,10.15,8.16A17.47,17.47,0,0,1,685.28,343.4Z"/><path class="cls-48" d="M693.89,320.44s1-12.94-2.88-21.71h-2.2A56,56,0,0,0,687,312.17s-13,.15-18-7.83a9.14,9.14,0,0,1-.54-1c3.35-7.88,10.6-13.35,18.6-13.35,11,0,20.44,10.73,20.44,23.47a21.86,21.86,0,0,1-.21,3C706.34,317.31,702,320.69,693.89,320.44Z"/><path class="cls-49" d="M707.23,311.27c1.06,3,.36,8.62-1.49,12.48,0,0,.38-6.73.6-8.87A12.27,12.27,0,0,1,707.23,311.27Z"/><path class="cls-17" d="M707.53,312.79a39.16,39.16,0,0,0-.4,5.46c0,.9,0,2.24,0,2.24A18.53,18.53,0,0,0,707.53,312.79Z"/><path class="cls-18" d="M698.05,296.5c-1.16-2.58-3.43-2.22-4.23-1.53C693.82,295,699.67,300.12,698.05,296.5Z"/><path class="cls-19" d="M683.84,347.77s3.35-1.4,5.76,0A13.93,13.93,0,0,1,683.84,347.77Z"/><path class="cls-19" d="M686.61,344.74c-.34,0-.68,0-1,0-2.41-.29-5.17-1.9-7.83-4.37,9.73,8.52,19.15-.79,22-3.79C695.72,341.38,690.87,344.63,686.61,344.74Z"/><path class="cls-8" d="M815.22,233.16s-.3,24.81-.3,38.18,7.75,55.28,5.11,76.59-3,44.76-3,44.76l1.41-.95a248.46,248.46,0,0,1,.71-28.65c1.31-13.62,4.07-22.7,1.47-41.72s-5.25-42.93-4.9-65.54l.36-22.61Z"/><path class="cls-50" d="M823.84,316.38s-5.09,1.06-8.51,0c0,0,.73-4.86,4.25-4.86S823.84,316.38,823.84,316.38Z"/><g class="cls-51"><ellipse class="cls-52" cx="820" cy="270.11" rx="35.29" ry="41.8"/></g><g class="cls-12"><g class="cls-51"><path class="cls-13" d="M822.69,311.79c-4.93,3.9-18.82-2.41-25.52-17.84,0,0,16.27,21.5,32.89,14,11.48-5.2,14.34-11.24,5.4-4.49S806.77,306,793.94,288s-7.92-27-4.57-14.9,30.28,44.17,52.23,23,12.9-20.17,4.11-6.94-27.48,14.66-43.29-.06-12.7-30.27-12.7-30.27l-.75-8.61s17.43-23.24,6.47-4.7,6.16,49.47,32.95,48.06c19.22-1,22.21-19.57,22.21-19.57L853,260.2s-1-10.45-2,2.29-5.42,26.58-23.92,27.14-44-27.8-27.86-49.49,24.31-15.34,11.49-8.17-14,44.64,11.87,50.56,29.47-19.86,25.86-29,.69-21.46.69-21.46-7.66.56-3.36,14.39-.15,33.41-16.82,32.88c-17.75-.56-28.9-19.62-22.57-35.31s13.72-13.9,13.72-13.9l6.8-4.92s11.38,9.52,3.16,7.07-17.71,9.94-17.74,27.26,27.84,16.5,31.39,2.94-.3-19.61-4.92-23.78c0,0,7.35,8.13.81,22.14s-19.07,7.29-22.15-.56,2.19-22.74,8.89-25.41a8.58,8.58,0,0,1,10.39,2.81s-8.88-4.56-15.24,11.54,12.7,16.34,15.87,4.31.23-15.34.23-15.34,1.47-.5,3.71,2.71,1.06-4.81,1.06-4.81l-3.57-19.34h16.46l-.89,93.16s-20.74,17.26-22,17.08.56-10.29-.94-10.85S822.69,311.79,822.69,311.79Z"/></g></g><path class="cls-53" d="M817.45,309.92c-6.57-1.17-15.68-9.53-20.28-18.46,0,0,11.45,9,15,12.05A25.53,25.53,0,0,1,817.45,309.92Z"/><path class="cls-54" d="M830.17,276s1.52-19.1-4.26-32h-3.24A83.14,83.14,0,0,0,820,263.82s-19.25.22-26.55-11.56a13,13,0,0,1-.81-1.52c5-11.64,15.65-19.71,27.47-19.71,16.24,0,30.17,15.85,30.17,34.65a31.79,31.79,0,0,1-.32,4.44C848.56,271.4,842.19,276.4,830.17,276Z"/><path class="cls-55" d="M849.87,262.49c1.55,4.43.53,12.72-2.21,18.42,0,0,.56-9.93.88-13.09A18.56,18.56,0,0,1,849.87,262.49Z"/><path class="cls-17" d="M850.3,264.73c-.13-.83-.66,6.74-.59,8.06s-.05,3.31-.05,3.31C849.86,276.15,851.17,270.21,850.3,264.73Z"/><path class="cls-18" d="M836.31,240.69c-1.7-3.81-5.06-3.29-6.25-2.26C830.06,238.43,838.71,246,836.31,240.69Z"/><path class="cls-19" d="M815.33,316.38s4.95-2.08,8.51,0C823.84,316.38,818.75,317.44,815.33,316.38Z"/><path class="cls-19" d="M819.43,311.9q-.75,0-1.5-.06c-3.56-.44-7.62-2.8-11.55-6.45,14.36,12.58,28.27-1.17,32.41-5.6C832.87,306.93,825.71,311.74,819.43,311.9Z"/><path class="cls-8" d="M844.92,418.93s-.19,16-.2,24.63,5,35.67,3.3,49.41-2,28.88-2,28.88l.91-.61a160.32,160.32,0,0,1,.46-18.49c.84-8.78,2.62-14.64,1-26.91s-3.4-27.7-3.17-42.29l.23-14.59Z"/><path class="cls-56" d="M850.48,472.61a13.39,13.39,0,0,1-5.49,0s.47-3.13,2.74-3.13S850.48,472.61,850.48,472.61Z"/><g class="cls-57"><ellipse class="cls-58" cx="848" cy="442.77" rx="22.77" ry="26.97"/></g><g class="cls-12"><g class="cls-57"><path class="cls-13" d="M849.74,469.66c-3.19,2.51-12.15-1.56-16.47-11.52,0,0,10.5,13.88,21.22,9,7.41-3.36,9.25-7.25,3.48-2.9s-18.51,1.66-26.78-10-5.12-17.44-3-9.61,19.54,28.5,33.7,14.83,8.32-13,2.65-4.47-17.73,9.45-27.93,0-8.2-19.53-8.2-19.53l-.48-5.56s11.25-15,4.18-3,4,31.91,21.25,31c12.41-.65,14.33-12.63,14.33-12.63l1.52-8.89s-.66-6.74-1.26,1.48-3.5,17.15-15.43,17.51-28.36-17.93-18-31.93,15.68-9.9,7.42-5.27-9,28.8,7.66,32.62,19-12.82,16.68-18.71.44-13.84.44-13.84-4.94.36-2.17,9.28-.09,21.56-10.84,21.22c-11.46-.36-18.65-12.66-14.57-22.79s8.86-9,8.86-9l4.38-3.18s7.34,6.14,2,4.56-11.42,6.42-11.44,17.59,18,10.65,20.25,1.9-.2-12.65-3.18-15.34c0,0,4.75,5.24.53,14.28s-12.31,4.7-14.29-.36,1.41-14.67,5.73-16.39a5.55,5.55,0,0,1,6.71,1.81s-5.73-2.94-9.84,7.45,8.19,10.54,10.24,2.77.15-9.89.15-9.89.95-.32,2.39,1.75.68-3.11.68-3.11l-2.3-12.48h10.62l-.57,60.11s-13.38,11.14-14.22,11,.36-6.64-.61-7S849.74,469.66,849.74,469.66Z"/></g></g><path class="cls-59" d="M846.36,468.45c-4.24-.75-10.12-6.15-13.09-11.91,0,0,7.39,5.79,9.66,7.78A16.37,16.37,0,0,1,846.36,468.45Z"/><path class="cls-60" d="M854.56,446.58s1-12.33-2.74-20.68h-2.1a53.44,53.44,0,0,0-1.7,12.81s-12.42.14-17.13-7.46a7.06,7.06,0,0,1-.52-1c3.19-7.51,10.09-12.72,17.72-12.72,10.48,0,19.46,10.23,19.46,22.35a21.3,21.3,0,0,1-.2,2.87C866.42,443.6,862.32,446.82,854.56,446.58Z"/><path class="cls-61" d="M867.27,437.85c1,2.86.34,8.21-1.43,11.88,0,0,.37-6.4.57-8.44A11.82,11.82,0,0,1,867.27,437.85Z"/><path class="cls-17" d="M867.55,439.3a36.05,36.05,0,0,0-.38,5.2c0,.85,0,2.13,0,2.13A17.54,17.54,0,0,0,867.55,439.3Z"/><path class="cls-18" d="M858.53,423.79c-1.11-2.46-3.27-2.13-4-1.46C854.49,422.33,860.07,427.22,858.53,423.79Z"/><path class="cls-19" d="M845,472.61s3.19-1.33,5.49,0A13.39,13.39,0,0,1,845,472.61Z"/><path class="cls-19" d="M847.63,469.73l-1,0c-2.29-.28-4.91-1.81-7.45-4.16,9.27,8.11,18.24-.76,20.91-3.62C856.31,466.52,851.68,469.62,847.63,469.73Z"/></g></g></svg>