<svg xmlns="http://www.w3.org/2000/svg" viewBox="0 0 46 46"><defs><style>.cls-1{fill:#ffe33e;}.cls-2{fill:#fff33b;}.cls-3{fill:#f9c13b;}.cls-4{fill:#d3961c;}</style></defs><title>elementos</title><g id="audio"><g id="mute"><g id="quad"><rect class="cls-1" x="3.81" y="3.79" width="38.38" height="38.42" rx="3.84"/><path class="cls-2" d="M38.35,5.07a2.56,2.56,0,0,1,2.56,2.56V38.37a2.56,2.56,0,0,1-2.56,2.56H7.65a2.56,2.56,0,0,1-2.56-2.56V7.63A2.56,2.56,0,0,1,7.65,5.07h30.7m0-2.56H7.65A5.12,5.12,0,0,0,2.53,7.63V38.37a5.12,5.12,0,0,0,5.12,5.12h30.7a5.12,5.12,0,0,0,5.12-5.12V7.63a5.12,5.12,0,0,0-5.12-5.12Z"/><path class="cls-3" d="M38.35,44.77H7.65a6.41,6.41,0,0,1-6.4-6.4V7.63a6.41,6.41,0,0,1,6.4-6.4h30.7a6.41,6.41,0,0,1,6.4,6.4V38.37A6.41,6.41,0,0,1,38.35,44.77Zm-30.7-41A3.84,3.84,0,0,0,3.81,7.63V38.37a3.84,3.84,0,0,0,3.84,3.84h30.7a3.84,3.84,0,0,0,3.84-3.84V7.63a3.84,3.84,0,0,0-3.84-3.84Z"/></g><path class="cls-4" d="M15.74,29,29.57,15.21V13.92a2.81,2.81,0,0,0-1.09-2.25,3,3,0,0,0-3.86,0l-6.12,4.6a3.22,3.22,0,0,1-2.05.7q-1.65,0-3.3,0A3,3,0,0,0,10,20q0,3,0,5.93a3,3,0,0,0,2.74,3A21.16,21.16,0,0,0,15.74,29Z"/><path class="cls-4" d="M21.61,32.07l3,2.28a3,3,0,0,0,4.93-2.48q0-3.89,0-7.76Z"/><path class="cls-4" d="M15.26,34h0a1.35,1.35,0,0,1,0-1.91L33.7,13.63a1.33,1.33,0,0,1,1.9,0h0a1.33,1.33,0,0,1,0,1.9L17.17,34A1.35,1.35,0,0,1,15.26,34Z"/></g></g></svg>