<svg xmlns="http://www.w3.org/2000/svg" xmlns:xlink="http://www.w3.org/1999/xlink" viewBox="0 0 128 46"><defs><style>.cls-1{fill:#741d81;}.cls-2{opacity:0.15;}.cls-3{fill:url(#linear-gradient);}.cls-4{fill:#954cd4;}.cls-5{fill:#450651;}</style><linearGradient id="linear-gradient" x1="64.25" y1="44.19" x2="64.25" y2="2.85" gradientUnits="userSpaceOnUse"><stop offset="0" stop-color="#fff"/><stop offset="0.09" stop-color="#fff" stop-opacity="0.96"/><stop offset="0.24" stop-color="#fff" stop-opacity="0.84"/><stop offset="0.44" stop-color="#fff" stop-opacity="0.65"/><stop offset="0.68" stop-color="#fff" stop-opacity="0.39"/><stop offset="0.95" stop-color="#fff" stop-opacity="0.06"/><stop offset="1" stop-color="#fff" stop-opacity="0"/></linearGradient></defs><title>elementos</title><g id="botao_jogar"><rect class="cls-1" x="4.06" y="3.56" width="120.38" height="38.42" rx="3.84"/><g class="cls-2"><path class="cls-3" d="M120.6,3.56H7.9c-2.12,0-3.84,1.37-3.84,3.06v13C16.2,24.05,37.16,27,61,27c28.92,0,53.61-4.34,63.44-10.45V6.62C124.44,4.93,122.72,3.56,120.6,3.56Z"/></g><path class="cls-4" d="M120.6,4.84a2.56,2.56,0,0,1,2.56,2.56V38.14a2.56,2.56,0,0,1-2.56,2.56H7.9a2.56,2.56,0,0,1-2.56-2.56V7.4A2.56,2.56,0,0,1,7.9,4.84H120.6m0-2.56H7.9A5.12,5.12,0,0,0,2.78,7.4V38.14A5.12,5.12,0,0,0,7.9,43.26H120.6a5.12,5.12,0,0,0,5.12-5.12V7.4a5.12,5.12,0,0,0-5.12-5.12Z"/><path class="cls-5" d="M120.6,44.54H7.9a6.41,6.41,0,0,1-6.4-6.4V7.4A6.41,6.41,0,0,1,7.9,1H120.6A6.41,6.41,0,0,1,127,7.4V38.14A6.41,6.41,0,0,1,120.6,44.54ZM7.9,3.56A3.84,3.84,0,0,0,4.06,7.4V38.14A3.84,3.84,0,0,0,7.9,42H120.6a3.84,3.84,0,0,0,3.84-3.84V7.4a3.84,3.84,0,0,0-3.84-3.84Z"/></g></svg>