<svg xmlns="http://www.w3.org/2000/svg" xmlns:xlink="http://www.w3.org/1999/xlink" viewBox="0 0 128 46"><defs><style>.cls-1{fill:#741d81;}.cls-2{opacity:0.15;}.cls-3{fill:url(#linear-gradient);}.cls-4{fill:#954cd4;}.cls-5{fill:#450651;}.cls-6{fill:#fff;}</style><linearGradient id="linear-gradient" x1="64.25" y1="44.19" x2="64.25" y2="2.85" gradientUnits="userSpaceOnUse"><stop offset="0" stop-color="#fff"/><stop offset="0.09" stop-color="#fff" stop-opacity="0.96"/><stop offset="0.24" stop-color="#fff" stop-opacity="0.84"/><stop offset="0.44" stop-color="#fff" stop-opacity="0.65"/><stop offset="0.68" stop-color="#fff" stop-opacity="0.39"/><stop offset="0.95" stop-color="#fff" stop-opacity="0.06"/><stop offset="1" stop-color="#fff" stop-opacity="0"/></linearGradient></defs><title>elementos_botao_iniciar</title><g id="botao_iniciar"><rect class="cls-1" x="4.06" y="3.56" width="120.38" height="38.42" rx="3.84"/><g class="cls-2"><path class="cls-3" d="M120.6,3.56H7.9c-2.12,0-3.84,1.37-3.84,3.06v13C16.2,24.05,37.16,27,61,27c28.92,0,53.61-4.34,63.44-10.45V6.62C124.44,4.93,122.72,3.56,120.6,3.56Z"/></g><path class="cls-4" d="M120.6,4.84a2.56,2.56,0,0,1,2.56,2.56V38.14a2.56,2.56,0,0,1-2.56,2.56H7.9a2.56,2.56,0,0,1-2.56-2.56V7.4A2.56,2.56,0,0,1,7.9,4.84H120.6m0-2.56H7.9A5.12,5.12,0,0,0,2.78,7.4V38.14A5.12,5.12,0,0,0,7.9,43.26H120.6a5.12,5.12,0,0,0,5.12-5.12V7.4a5.12,5.12,0,0,0-5.12-5.12Z"/><path class="cls-5" d="M120.6,44.54H7.9a6.41,6.41,0,0,1-6.4-6.4V7.4A6.41,6.41,0,0,1,7.9,1H120.6A6.41,6.41,0,0,1,127,7.4V38.14A6.41,6.41,0,0,1,120.6,44.54ZM7.9,3.56A3.84,3.84,0,0,0,4.06,7.4V38.14A3.84,3.84,0,0,0,7.9,42H120.6a3.84,3.84,0,0,0,3.84-3.84V7.4a3.84,3.84,0,0,0-3.84-3.84Z"/><path class="cls-6" d="M31.52,26.39h3.17v2.92a.82.82,0,0,0,.17.58.9.9,0,0,0,.63.16h.66a.84.84,0,0,0,.62-.16.88.88,0,0,0,.15-.58V15.08h3.2V29.75a2.75,2.75,0,0,1-.71,2,3.13,3.13,0,0,1-2.29.72H34.53a3.09,3.09,0,0,1-2.3-.72,2.75,2.75,0,0,1-.71-2Z"/><path class="cls-6" d="M45.75,18.25v7.53H42.58v-8a2.71,2.71,0,0,1,.71-2,3.13,3.13,0,0,1,2.29-.72h1.87v2.43h-.91a1,1,0,0,0-.63.15A.8.8,0,0,0,45.75,18.25Zm0,6.45v4.61a.82.82,0,0,0,.16.58.9.9,0,0,0,.63.16h.89v2.43H45.58a3.13,3.13,0,0,1-2.29-.72,2.71,2.71,0,0,1-.71-2V24.7Zm3,4.61V24.84H52v4.91a2.75,2.75,0,0,1-.71,2,3.09,3.09,0,0,1-2.3.72H47V30.05h1a.61.61,0,0,0,.77-.74Zm0-3.53V18.25a.86.86,0,0,0-.15-.59.93.93,0,0,0-.62-.15h-.94V15.08h1.87a3.09,3.09,0,0,1,2.3.72,2.75,2.75,0,0,1,.71,2v8Z"/><path class="cls-6" d="M57.57,18.14V29.45a.79.79,0,0,0,.17.57.84.84,0,0,0,.6.17h.75V32.5H57.38a3.13,3.13,0,0,1-2.29-.71,2.72,2.72,0,0,1-.72-2v-12a2.72,2.72,0,0,1,.72-2,3.13,3.13,0,0,1,2.29-.72h1.84V17.4h-.88a.9.9,0,0,0-.6.15A.8.8,0,0,0,57.57,18.14Zm2.84,2.29V18.14a.86.86,0,0,0-.15-.59.91.91,0,0,0-.62-.15h-.86V15.08H60.6a3.09,3.09,0,0,1,2.3.72,2.75,2.75,0,0,1,.71,2v2.62Zm0,9V24.9h3.2v4.88a2.75,2.75,0,0,1-.71,2,3.09,3.09,0,0,1-2.3.71H58.84V30.19h.8a.62.62,0,0,0,.77-.74Zm3.2-6.1v2.24H59V23.35Z"/><path class="cls-6" d="M76.31,32.48H73.12L70.5,18.14,68,32.48H64.87l3.51-17.4h4.27Zm-2.45-6v2.4H67.3v-2.4Z"/><path class="cls-6" d="M77.86,15.08H81v17.4H77.86Zm6.23,7.53V18.25a.86.86,0,0,0-.15-.59.93.93,0,0,0-.62-.15H78.57V15.08h5.68a3.11,3.11,0,0,1,2.3.72,2.75,2.75,0,0,1,.71,2V23a2.75,2.75,0,0,1-.71,2,3.11,3.11,0,0,1-2.3.72h-5V23.35h4.11a.61.61,0,0,0,.77-.74Zm-2.51,1.85h3.17l3.39,8H84.72Z"/><path class="cls-6" d="M89.76,15.08h3.7l-.55,11.55H90.32Zm.17,17.4V28.76h3.34v3.72Z"/></g></svg>