<svg id="botao_nivel" xmlns="http://www.w3.org/2000/svg" viewBox="0 0 128 46"><defs><style>.cls-1{fill:#ffe33e;}.cls-2{fill:#fff33b;}.cls-3{fill:#f9c13b;}</style></defs><title>elementos</title><rect class="cls-1" x="4.06" y="3.56" width="120.38" height="38.42" rx="3.84"/><path class="cls-2" d="M120.6,4.84a2.56,2.56,0,0,1,2.56,2.56V38.14a2.56,2.56,0,0,1-2.56,2.56H7.9a2.56,2.56,0,0,1-2.56-2.56V7.4A2.56,2.56,0,0,1,7.9,4.84H120.6m0-2.56H7.9A5.12,5.12,0,0,0,2.78,7.4V38.14A5.12,5.12,0,0,0,7.9,43.26H120.6a5.12,5.12,0,0,0,5.12-5.12V7.4a5.12,5.12,0,0,0-5.12-5.12Z"/><path class="cls-3" d="M120.6,44.54H7.9a6.41,6.41,0,0,1-6.4-6.4V7.4A6.41,6.41,0,0,1,7.9,1H120.6A6.41,6.41,0,0,1,127,7.4V38.14A6.41,6.41,0,0,1,120.6,44.54ZM7.9,3.56A3.84,3.84,0,0,0,4.06,7.4V38.14A3.84,3.84,0,0,0,7.9,42H120.6a3.84,3.84,0,0,0,3.84-3.84V7.4a3.84,3.84,0,0,0-3.84-3.84Z"/></svg>