<svg xmlns="http://www.w3.org/2000/svg" viewBox="0 0 46 46"><defs><style>.cls-1{fill:#ffe33e;}.cls-2{fill:#fff33b;}.cls-3{fill:#f9c13b;}.cls-4{fill:#d3961c;}</style></defs><title>elementos</title><g id="audio"><g id="play"><g id="quad"><rect class="cls-1" x="3.81" y="3.79" width="38.38" height="38.42" rx="3.84"/><path class="cls-2" d="M38.35,5.07a2.56,2.56,0,0,1,2.56,2.56V38.37a2.56,2.56,0,0,1-2.56,2.56H7.65a2.56,2.56,0,0,1-2.56-2.56V7.63A2.56,2.56,0,0,1,7.65,5.07h30.7m0-2.56H7.65A5.12,5.12,0,0,0,2.53,7.63V38.37a5.12,5.12,0,0,0,5.12,5.12h30.7a5.12,5.12,0,0,0,5.12-5.12V7.63a5.12,5.12,0,0,0-5.12-5.12Z"/><path class="cls-3" d="M38.35,44.77H7.65a6.41,6.41,0,0,1-6.4-6.4V7.63a6.41,6.41,0,0,1,6.4-6.4h30.7a6.41,6.41,0,0,1,6.4,6.4V38.37A6.41,6.41,0,0,1,38.35,44.77Zm-30.7-41A3.84,3.84,0,0,0,3.81,7.63V38.37a3.84,3.84,0,0,0,3.84,3.84h30.7a3.84,3.84,0,0,0,3.84-3.84V7.63a3.84,3.84,0,0,0-3.84-3.84Z"/></g><path class="cls-4" d="M13,33.25V12.75a1.8,1.8,0,0,1,2.75-1.53l16.4,10.25a1.8,1.8,0,0,1,0,3.06L15.75,34.78A1.8,1.8,0,0,1,13,33.25Z"/></g></g></svg>