<svg xmlns="http://www.w3.org/2000/svg" xmlns:xlink="http://www.w3.org/1999/xlink" viewBox="0 0 300 150"><defs><style>.cls-1{fill:none;}.cls-2{isolation:isolate;}.cls-3{fill:url(#radial-gradient);}.cls-4{fill:#450651;}.cls-5{fill:#7a707b;}.cls-6{fill:url(#Áåçûìÿííûé_ãðàäèåíò_479);}.cls-7{clip-path:url(#clip-path);}.cls-8{fill:url(#Áåçûìÿííûé_ãðàäèåíò_466);}.cls-9{opacity:0.36;}.cls-10{fill:#741d81;}.cls-10,.cls-16,.cls-39,.cls-42,.cls-44,.cls-45,.cls-46,.cls-47,.cls-48,.cls-49,.cls-50,.cls-51,.cls-52,.cls-53,.cls-54,.cls-55,.cls-56,.cls-57,.cls-58,.cls-59,.cls-60,.cls-61,.cls-62,.cls-63,.cls-74,.cls-77,.cls-78,.cls-79,.cls-80,.cls-81,.cls-82,.cls-83,.cls-84,.cls-85,.cls-86,.cls-87,.cls-88,.cls-89,.cls-90,.cls-91,.cls-92,.cls-93,.cls-94,.cls-95,.cls-96,.cls-97{mix-blend-mode:multiply;}.cls-11,.cls-12,.cls-13,.cls-14,.cls-15,.cls-20,.cls-21,.cls-22,.cls-26,.cls-27,.cls-28{mix-blend-mode:screen;}.cls-11{fill:url(#Áåçûìÿííûé_ãðàäèåíò_351);}.cls-12{fill:url(#Áåçûìÿííûé_ãðàäèåíò_475);}.cls-13{fill:url(#Áåçûìÿííûé_ãðàäèåíò_351-2);}.cls-14,.cls-15,.cls-43{fill:#fff;}.cls-14{opacity:0.82;}.cls-15{opacity:0.81;}.cls-16{fill:#954cd4;opacity:0.49;}.cls-17{fill:url(#Áåçûìÿííûé_ãðàäèåíò_479-2);}.cls-18{clip-path:url(#clip-path-3);}.cls-19{fill:url(#Áåçûìÿííûé_ãðàäèåíò_466-2);}.cls-20{fill:url(#Áåçûìÿííûé_ãðàäèåíò_351-3);}.cls-21{fill:url(#Áåçûìÿííûé_ãðàäèåíò_475-2);}.cls-22{fill:url(#Áåçûìÿííûé_ãðàäèåíò_351-4);}.cls-23{fill:url(#Áåçûìÿííûé_ãðàäèåíò_479-3);}.cls-24{clip-path:url(#clip-path-5);}.cls-25{fill:url(#Áåçûìÿííûé_ãðàäèåíò_466-3);}.cls-26{fill:url(#Áåçûìÿííûé_ãðàäèåíò_351-5);}.cls-27{fill:url(#Áåçûìÿííûé_ãðàäèåíò_475-3);}.cls-28{fill:url(#Áåçûìÿííûé_ãðàäèåíò_351-6);}.cls-29{fill:url(#radial-gradient-2);}.cls-30{fill:url(#linear-gradient);}.cls-31{fill:url(#linear-gradient-2);}.cls-32{fill:url(#linear-gradient-3);}.cls-33{fill:url(#linear-gradient-4);}.cls-34{fill:url(#linear-gradient-5);}.cls-35{fill:url(#linear-gradient-6);}.cls-36{fill:url(#linear-gradient-7);}.cls-37{fill:url(#linear-gradient-8);}.cls-38{fill:url(#linear-gradient-9);}.cls-39{fill:url(#linear-gradient-10);}.cls-40{fill:url(#linear-gradient-11);}.cls-41{fill:url(#linear-gradient-12);}.cls-42{fill:url(#linear-gradient-13);}.cls-43{mix-blend-mode:soft-light;}.cls-44{fill:url(#linear-gradient-14);}.cls-45{fill:url(#linear-gradient-15);}.cls-46{fill:url(#linear-gradient-16);}.cls-47{fill:url(#linear-gradient-17);}.cls-48{fill:url(#linear-gradient-18);}.cls-49{fill:url(#linear-gradient-19);}.cls-50{fill:url(#linear-gradient-20);}.cls-51{fill:url(#linear-gradient-21);}.cls-52{fill:url(#linear-gradient-22);}.cls-53{fill:url(#linear-gradient-23);}.cls-54{fill:url(#linear-gradient-24);}.cls-55{fill:url(#linear-gradient-25);}.cls-56{fill:url(#linear-gradient-26);}.cls-57{fill:url(#linear-gradient-27);}.cls-58{fill:url(#linear-gradient-28);}.cls-59{fill:url(#linear-gradient-29);}.cls-60{fill:url(#linear-gradient-30);}.cls-61{fill:url(#linear-gradient-31);}.cls-62{fill:url(#linear-gradient-32);}.cls-63{fill:url(#linear-gradient-33);}.cls-64{fill:url(#radial-gradient-3);}.cls-65{fill:url(#linear-gradient-34);}.cls-66{fill:url(#linear-gradient-35);}.cls-67{fill:url(#linear-gradient-36);}.cls-68{fill:url(#linear-gradient-37);}.cls-69{fill:url(#linear-gradient-38);}.cls-70{fill:url(#linear-gradient-39);}.cls-71{fill:url(#linear-gradient-40);}.cls-72{fill:url(#linear-gradient-41);}.cls-73{fill:url(#linear-gradient-42);}.cls-74{fill:url(#linear-gradient-43);}.cls-75{fill:url(#linear-gradient-44);}.cls-76{fill:url(#linear-gradient-45);}.cls-77{fill:url(#linear-gradient-46);}.cls-78{fill:url(#linear-gradient-47);}.cls-79{fill:url(#linear-gradient-48);}.cls-80{fill:url(#linear-gradient-49);}.cls-81{fill:url(#linear-gradient-50);}.cls-82{fill:url(#linear-gradient-51);}.cls-83{fill:url(#linear-gradient-52);}.cls-84{fill:url(#linear-gradient-53);}.cls-85{fill:url(#linear-gradient-54);}.cls-86{fill:url(#linear-gradient-55);}.cls-87{fill:url(#linear-gradient-56);}.cls-88{fill:url(#linear-gradient-57);}.cls-89{fill:url(#linear-gradient-58);}.cls-90{fill:url(#linear-gradient-59);}.cls-91{fill:url(#linear-gradient-60);}.cls-92{fill:url(#linear-gradient-61);}.cls-93{fill:url(#linear-gradient-62);}.cls-94{fill:url(#linear-gradient-63);}.cls-95{fill:url(#linear-gradient-64);}.cls-96{fill:url(#linear-gradient-65);}.cls-97{fill:url(#linear-gradient-66);}</style><radialGradient id="radial-gradient" cx="149.28" cy="70" fy="200.0108273312886" r="130.02" gradientTransform="translate(0 27.03) scale(1 0.61)" gradientUnits="userSpaceOnUse"><stop offset="0" stop-color="#fff33b"/><stop offset="1" stop-color="#f9c13b"/></radialGradient><linearGradient id="Áåçûìÿííûé_ãðàäèåíò_479" x1="130.83" y1="64.2" x2="130.83" y2="61.04" gradientTransform="matrix(1, -0.03, 0.12, 1, -7.9, 3.32)" gradientUnits="userSpaceOnUse"><stop offset="0" stop-color="#bccbef"/><stop offset="0.04" stop-color="#b8bef0"/><stop offset="0.21" stop-color="#ab8ef3"/><stop offset="0.38" stop-color="#9f65f5"/><stop offset="0.55" stop-color="#9646f7"/><stop offset="0.71" stop-color="#902ff8"/><stop offset="0.86" stop-color="#8c22f9"/><stop offset="1" stop-color="#8b1df9"/></linearGradient><clipPath id="clip-path"><path class="cls-1" d="M145,34.52c1.53,12.33-7.61,26.39-14.53,26.57-8.12.22-20.51-12.87-22-25.2S114,13,123.84,12.69,143.45,22.19,145,34.52Z"/></clipPath><radialGradient id="Áåçûìÿííûé_ãðàäèåíò_466" cx="253.09" cy="74.85" fx="245.9568367763989" fy="59.522073943723456" r="23.76" gradientTransform="matrix(0.83, 0.26, -0.21, 1.02, -68.12, -104.9)" gradientUnits="userSpaceOnUse"><stop offset="0.07" stop-color="#ab77ec"/><stop offset="0.22" stop-color="#aa73ed"/><stop offset="0.38" stop-color="#a567ee"/><stop offset="0.53" stop-color="#9f54f1"/><stop offset="0.68" stop-color="#9539f5"/><stop offset="0.79" stop-color="#8b1df9"/><stop offset="0.82" stop-color="#8c22f9"/><stop offset="0.85" stop-color="#902ff8"/><stop offset="0.89" stop-color="#9646f7"/><stop offset="0.92" stop-color="#9f65f5"/><stop offset="0.96" stop-color="#ab8ef3"/><stop offset="0.99" stop-color="#b8bef0"/><stop offset="1" stop-color="#bccbef"/></radialGradient><linearGradient id="Áåçûìÿííûé_ãðàäèåíò_351" x1="132.09" y1="54.63" x2="144.11" y2="54.63" gradientTransform="matrix(1, -0.03, 0.12, 1, -7.9, 3.32)" gradientUnits="userSpaceOnUse"><stop offset="0" stop-color="#406dfb"/><stop offset="1" stop-color="#450651"/></linearGradient><linearGradient id="Áåçûìÿííûé_ãðàäèåíò_475" x1="251.21" y1="79.61" x2="269.76" y2="97.48" gradientTransform="matrix(0.85, -0.02, 0.11, 0.89, -111.08, -46.57)" gradientUnits="userSpaceOnUse"><stop offset="0" stop-color="#b59af1"/><stop offset="1"/></linearGradient><linearGradient id="Áåçûìÿííûé_ãðàäèåíò_351-2" x1="-660.91" y1="-1598.76" x2="-652.21" y2="-1598.76" gradientTransform="matrix(-0.4, 0.87, -0.92, -0.49, -1626.27, -169.73)" xlink:href="#Áåçûìÿííûé_ãðàäèåíò_351"/><linearGradient id="Áåçûìÿííûé_ãðàäèåíò_479-2" x1="57.8" y1="112.64" x2="57.8" y2="110.37" xlink:href="#Áåçûìÿííûé_ãðàäèåíò_479"/><clipPath id="clip-path-3"><path class="cls-1" d="M74.11,93.12c1.1,8.88-5.48,19-10.48,19.15-5.84.15-14.78-9.28-15.88-18.16s4-16.54,11.13-16.73S73,84.23,74.11,93.12Z"/></clipPath><radialGradient id="Áåçûìÿííûé_ãðàäèåíò_466-2" cx="169.51" cy="129.18" fx="169.50735914107463" fy="118.12825063912767" r="17.12" gradientTransform="matrix(0.83, 0.26, -0.21, 1.02, -53, -80.81)" xlink:href="#Áåçûìÿííûé_ãðàäèåíò_466"/><linearGradient id="Áåçûìÿííûé_ãðàäèåíò_351-3" x1="58.71" y1="105.75" x2="67.37" y2="105.75" xlink:href="#Áåçûìÿííûé_ãðàäèåíò_351"/><linearGradient id="Áåçûìÿííûé_ãðàäèåíò_475-2" x1="170.06" y1="148.52" x2="183.43" y2="161.4" xlink:href="#Áåçûìÿííûé_ãðàäèåíò_475"/><linearGradient id="Áåçûìÿííûé_ãðàäèåíò_351-4" x1="-576.78" y1="-1568.72" x2="-570.51" y2="-1568.72" gradientTransform="matrix(-0.4, 0.87, -0.92, -0.49, -1626.27, -169.73)" xlink:href="#Áåçûìÿííûé_ãðàäèåíò_351"/><linearGradient id="Áåçûìÿííûé_ãðàäèåíò_479-3" x1="268.74" y1="64.11" x2="268.74" y2="62.44" xlink:href="#Áåçûìÿííûé_ãðàäèåíò_479"/><clipPath id="clip-path-5"><path class="cls-1" d="M275.68,44.62c.81,6.54-4,14-7.71,14.1-4.3.11-10.88-6.83-11.69-13.37s3-12.17,8.19-12.31S274.87,38.09,275.68,44.62Z"/></clipPath><radialGradient id="Áåçûìÿííûé_ãðàäèåíò_466-3" cx="411.21" cy="87.34" fx="411.2144967792301" fy="79.20548643817973" r="12.6" gradientTransform="matrix(0.83, 0.26, -0.21, 1.02, -57.85, -148.94)" xlink:href="#Áåçûìÿííûé_ãðàäèåíò_466"/><linearGradient id="Áåçûìÿííûé_ãðàäèåíò_351-5" x1="269.4" y1="59.04" x2="275.78" y2="59.04" xlink:href="#Áåçûìÿííûé_ãðàäèåíò_351"/><linearGradient id="Áåçûìÿííûé_ãðàäèåíò_475-3" x1="418.94" y1="103.76" x2="428.78" y2="113.24" xlink:href="#Áåçûìÿííûé_ãðàäèåíò_475"/><linearGradient id="Áåçûìÿííûé_ãðàäèåíò_351-6" x1="-722.8" y1="-1730.64" x2="-718.18" y2="-1730.64" gradientTransform="matrix(-0.4, 0.87, -0.92, -0.49, -1626.27, -169.73)" xlink:href="#Áåçûìÿííûé_ãðàäèåíò_351"/><radialGradient id="radial-gradient-2" cx="228.54" cy="121.4" fy="121.39748055407108" r="18" gradientTransform="matrix(1, 0, 0, 1, 0, 0)" xlink:href="#radial-gradient"/><linearGradient id="linear-gradient" x1="245.13" y1="104.78" x2="239.74" y2="110.12" gradientTransform="matrix(1, 0, 0, 1, 0, 0)" xlink:href="#radial-gradient"/><linearGradient id="linear-gradient-2" x1="251.44" y1="126.14" x2="244.45" y2="123.66" gradientTransform="matrix(1, 0, 0, 1, 0, 0)" xlink:href="#radial-gradient"/><linearGradient id="linear-gradient-3" x1="227.76" y1="98.07" x2="228.48" y2="105.26" gradientTransform="matrix(1, 0, 0, 1, 0, 0)" xlink:href="#radial-gradient"/><linearGradient id="linear-gradient-4" x1="227.39" y1="145.84" x2="228.11" y2="138.39" gradientTransform="matrix(1, 0, 0, 1, 0, 0)" xlink:href="#radial-gradient"/><linearGradient id="linear-gradient-5" x1="205.91" y1="115.23" x2="213.3" y2="120.72" gradientTransform="matrix(1, 0, 0, 1, 0, 0)" xlink:href="#radial-gradient"/><linearGradient id="linear-gradient-6" x1="250.43" y1="114.27" x2="245.72" y2="116.63" gradientTransform="matrix(1, 0, 0, 1, 0, 0)" xlink:href="#radial-gradient"/><linearGradient id="linear-gradient-7" x1="214.17" y1="105.19" x2="220.06" y2="109.11" gradientTransform="matrix(1, 0, 0, 1, 0, 0)" xlink:href="#radial-gradient"/><linearGradient id="linear-gradient-8" x1="212.41" y1="136.84" x2="216.59" y2="132.39" gradientTransform="matrix(1, 0, 0, 1, 0, 0)" xlink:href="#radial-gradient"/><linearGradient id="linear-gradient-9" x1="240.26" y1="136.56" x2="246.57" y2="136.56" gradientTransform="matrix(1, 0, 0, 1, 0, 0)" xlink:href="#radial-gradient"/><linearGradient id="linear-gradient-10" x1="228.54" y1="116.65" x2="228.54" y2="135.23" gradientTransform="matrix(1, 0, 0, 1, 0, 0)" xlink:href="#radial-gradient"/><linearGradient id="linear-gradient-11" x1="226.31" y1="124.38" x2="225.12" y2="134.21" gradientTransform="matrix(1, 0, 0, 1, 0, 0)" xlink:href="#radial-gradient"/><linearGradient id="linear-gradient-12" x1="216.04" y1="123.32" x2="215.35" y2="129.07" gradientTransform="matrix(1, 0, 0, 1, 0, 0)" xlink:href="#radial-gradient"/><linearGradient id="linear-gradient-13" x1="231.55" y1="109.54" x2="231.55" y2="117.75" gradientTransform="matrix(1, 0, 0, 1, 0, 0)" xlink:href="#radial-gradient"/><linearGradient id="linear-gradient-14" x1="244.99" y1="124.2" x2="248.36" y2="124.2" gradientTransform="matrix(1, 0, 0, 1, 0, 0)" xlink:href="#radial-gradient"/><linearGradient id="linear-gradient-15" x1="245.22" y1="123.23" x2="246.58" y2="123.23" gradientTransform="matrix(1, 0, 0, 1, 0, 0)" xlink:href="#radial-gradient"/><linearGradient id="linear-gradient-16" x1="244.91" y1="125.16" x2="246.31" y2="125.16" gradientTransform="matrix(1, 0, 0, 1, 0, 0)" xlink:href="#radial-gradient"/><linearGradient id="linear-gradient-17" x1="240.55" y1="107.63" x2="243.19" y2="107.63" gradientTransform="matrix(1, 0, 0, 1, 0, 0)" xlink:href="#radial-gradient"/><linearGradient id="linear-gradient-18" x1="242.13" y1="108.62" x2="244.23" y2="108.62" gradientTransform="matrix(1, 0, 0, 1, 0, 0)" xlink:href="#radial-gradient"/><linearGradient id="linear-gradient-19" x1="240.41" y1="106.67" x2="241.04" y2="106.67" gradientTransform="matrix(1, 0, 0, 1, 0, 0)" xlink:href="#radial-gradient"/><linearGradient id="linear-gradient-20" x1="227.93" y1="102.93" x2="228.18" y2="102.93" gradientTransform="matrix(1, 0, 0, 1, 0, 0)" xlink:href="#radial-gradient"/><linearGradient id="linear-gradient-21" x1="231.33" y1="103.43" x2="232.1" y2="103.43" gradientTransform="matrix(1, 0, 0, 1, 0, 0)" xlink:href="#radial-gradient"/><linearGradient id="linear-gradient-22" x1="224.21" y1="103.87" x2="225.61" y2="103.87" gradientTransform="matrix(1, 0, 0, 1, 0, 0)" xlink:href="#radial-gradient"/><linearGradient id="linear-gradient-23" x1="218.37" y1="107.04" x2="219.09" y2="107.04" gradientTransform="matrix(1, 0, 0, 1, 0, 0)" xlink:href="#radial-gradient"/><linearGradient id="linear-gradient-24" x1="217.2" y1="108.76" x2="218.49" y2="108.76" gradientTransform="matrix(1, 0, 0, 1, 0, 0)" xlink:href="#radial-gradient"/><linearGradient id="linear-gradient-25" x1="209.15" y1="118.42" x2="212.31" y2="118.42" gradientTransform="matrix(1, 0, 0, 1, 0, 0)" xlink:href="#radial-gradient"/><linearGradient id="linear-gradient-26" x1="211.38" y1="116.86" x2="212.81" y2="116.86" gradientTransform="matrix(1, 0, 0, 1, 0, 0)" xlink:href="#radial-gradient"/><linearGradient id="linear-gradient-27" x1="209.15" y1="120.18" x2="211.2" y2="120.18" gradientTransform="matrix(1, 0, 0, 1, 0, 0)" xlink:href="#radial-gradient"/><linearGradient id="linear-gradient-28" x1="214.57" y1="133.39" x2="215.73" y2="133.39" gradientTransform="matrix(1, 0, 0, 1, 0, 0)" xlink:href="#radial-gradient"/><linearGradient id="linear-gradient-29" x1="216.13" y1="134.16" x2="216.53" y2="134.16" gradientTransform="matrix(1, 0, 0, 1, 0, 0)" xlink:href="#radial-gradient"/><linearGradient id="linear-gradient-30" x1="227.89" y1="140.56" x2="228.13" y2="140.56" gradientTransform="matrix(1, 0, 0, 1, 0, 0)" xlink:href="#radial-gradient"/><linearGradient id="linear-gradient-31" x1="229.89" y1="140.11" x2="230.48" y2="140.11" gradientTransform="matrix(1, 0, 0, 1, 0, 0)" xlink:href="#radial-gradient"/><linearGradient id="linear-gradient-32" x1="225.2" y1="139.43" x2="225.9" y2="139.43" gradientTransform="matrix(1, 0, 0, 1, 0, 0)" xlink:href="#radial-gradient"/><linearGradient id="linear-gradient-33" x1="242.48" y1="135.62" x2="243.8" y2="135.62" gradientTransform="matrix(1, 0, 0, 1, 0, 0)" xlink:href="#radial-gradient"/><radialGradient id="radial-gradient-3" cx="26.83" cy="43.39" fy="43.38735519008878" r="18" gradientTransform="matrix(1, 0, 0, 1, 0, 0)" xlink:href="#radial-gradient"/><linearGradient id="linear-gradient-34" x1="43.41" y1="26.77" x2="38.02" y2="32.11" gradientTransform="matrix(1, 0, 0, 1, 0, 0)" xlink:href="#radial-gradient"/><linearGradient id="linear-gradient-35" x1="49.73" y1="48.13" x2="42.73" y2="45.64" gradientTransform="matrix(1, 0, 0, 1, 0, 0)" xlink:href="#radial-gradient"/><linearGradient id="linear-gradient-36" x1="26.05" y1="20.06" x2="26.77" y2="27.25" gradientTransform="matrix(1, 0, 0, 1, 0, 0)" xlink:href="#radial-gradient"/><linearGradient id="linear-gradient-37" x1="25.68" y1="67.83" x2="26.4" y2="60.38" gradientTransform="matrix(1, 0, 0, 1, 0, 0)" xlink:href="#radial-gradient"/><linearGradient id="linear-gradient-38" x1="4.2" y1="37.22" x2="11.59" y2="42.71" gradientTransform="matrix(1, 0, 0, 1, 0, 0)" xlink:href="#radial-gradient"/><linearGradient id="linear-gradient-39" x1="48.72" y1="36.26" x2="44.01" y2="38.62" gradientTransform="matrix(1, 0, 0, 1, 0, 0)" xlink:href="#radial-gradient"/><linearGradient id="linear-gradient-40" x1="12.46" y1="27.18" x2="18.34" y2="31.1" gradientTransform="matrix(1, 0, 0, 1, 0, 0)" xlink:href="#radial-gradient"/><linearGradient id="linear-gradient-41" x1="10.7" y1="58.82" x2="14.88" y2="54.38" gradientTransform="matrix(1, 0, 0, 1, 0, 0)" xlink:href="#radial-gradient"/><linearGradient id="linear-gradient-42" x1="38.55" y1="58.55" x2="44.85" y2="58.55" gradientTransform="matrix(1, 0, 0, 1, 0, 0)" xlink:href="#radial-gradient"/><linearGradient id="linear-gradient-43" x1="26.83" y1="38.64" x2="26.83" y2="57.22" gradientTransform="matrix(1, 0, 0, 1, 0, 0)" xlink:href="#radial-gradient"/><linearGradient id="linear-gradient-44" x1="24.6" y1="46.37" x2="23.41" y2="56.2" gradientTransform="matrix(1, 0, 0, 1, 0, 0)" xlink:href="#radial-gradient"/><linearGradient id="linear-gradient-45" x1="14.33" y1="45.31" x2="13.63" y2="51.06" gradientTransform="matrix(1, 0, 0, 1, 0, 0)" xlink:href="#radial-gradient"/><linearGradient id="linear-gradient-46" x1="29.84" y1="31.53" x2="29.84" y2="39.74" gradientTransform="matrix(1, 0, 0, 1, 0, 0)" xlink:href="#radial-gradient"/><linearGradient id="linear-gradient-47" x1="43.28" y1="46.19" x2="46.65" y2="46.19" gradientTransform="matrix(1, 0, 0, 1, 0, 0)" xlink:href="#radial-gradient"/><linearGradient id="linear-gradient-48" x1="43.51" y1="45.22" x2="44.86" y2="45.22" gradientTransform="matrix(1, 0, 0, 1, 0, 0)" xlink:href="#radial-gradient"/><linearGradient id="linear-gradient-49" x1="43.2" y1="47.15" x2="44.59" y2="47.15" gradientTransform="matrix(1, 0, 0, 1, 0, 0)" xlink:href="#radial-gradient"/><linearGradient id="linear-gradient-50" x1="38.83" y1="29.62" x2="41.48" y2="29.62" gradientTransform="matrix(1, 0, 0, 1, 0, 0)" xlink:href="#radial-gradient"/><linearGradient id="linear-gradient-51" x1="40.42" y1="30.61" x2="42.52" y2="30.61" gradientTransform="matrix(1, 0, 0, 1, 0, 0)" xlink:href="#radial-gradient"/><linearGradient id="linear-gradient-52" x1="38.7" y1="28.66" x2="39.32" y2="28.66" gradientTransform="matrix(1, 0, 0, 1, 0, 0)" xlink:href="#radial-gradient"/><linearGradient id="linear-gradient-53" x1="26.21" y1="24.92" x2="26.47" y2="24.92" gradientTransform="matrix(1, 0, 0, 1, 0, 0)" xlink:href="#radial-gradient"/><linearGradient id="linear-gradient-54" x1="29.62" y1="25.42" x2="30.39" y2="25.42" gradientTransform="matrix(1, 0, 0, 1, 0, 0)" xlink:href="#radial-gradient"/><linearGradient id="linear-gradient-55" x1="22.5" y1="25.86" x2="23.9" y2="25.86" gradientTransform="matrix(1, 0, 0, 1, 0, 0)" xlink:href="#radial-gradient"/><linearGradient id="linear-gradient-56" x1="16.66" y1="29.03" x2="17.38" y2="29.03" gradientTransform="matrix(1, 0, 0, 1, 0, 0)" xlink:href="#radial-gradient"/><linearGradient id="linear-gradient-57" x1="15.49" y1="30.75" x2="16.78" y2="30.75" gradientTransform="matrix(1, 0, 0, 1, 0, 0)" xlink:href="#radial-gradient"/><linearGradient id="linear-gradient-58" x1="7.44" y1="40.41" x2="10.6" y2="40.41" gradientTransform="matrix(1, 0, 0, 1, 0, 0)" xlink:href="#radial-gradient"/><linearGradient id="linear-gradient-59" x1="9.67" y1="38.85" x2="11.09" y2="38.85" gradientTransform="matrix(1, 0, 0, 1, 0, 0)" xlink:href="#radial-gradient"/><linearGradient id="linear-gradient-60" x1="7.44" y1="42.17" x2="9.48" y2="42.17" gradientTransform="matrix(1, 0, 0, 1, 0, 0)" xlink:href="#radial-gradient"/><linearGradient id="linear-gradient-61" x1="12.86" y1="55.38" x2="14.02" y2="55.38" gradientTransform="matrix(1, 0, 0, 1, 0, 0)" xlink:href="#radial-gradient"/><linearGradient id="linear-gradient-62" x1="14.41" y1="56.15" x2="14.82" y2="56.15" gradientTransform="matrix(1, 0, 0, 1, 0, 0)" xlink:href="#radial-gradient"/><linearGradient id="linear-gradient-63" x1="26.17" y1="62.55" x2="26.42" y2="62.55" gradientTransform="matrix(1, 0, 0, 1, 0, 0)" xlink:href="#radial-gradient"/><linearGradient id="linear-gradient-64" x1="28.17" y1="62.1" x2="28.77" y2="62.1" gradientTransform="matrix(1, 0, 0, 1, 0, 0)" xlink:href="#radial-gradient"/><linearGradient id="linear-gradient-65" x1="23.49" y1="61.42" x2="24.19" y2="61.42" gradientTransform="matrix(1, 0, 0, 1, 0, 0)" xlink:href="#radial-gradient"/><linearGradient id="linear-gradient-66" x1="40.76" y1="57.61" x2="42.08" y2="57.61" gradientTransform="matrix(1, 0, 0, 1, 0, 0)" xlink:href="#radial-gradient"/></defs><title>elementos</title><g class="cls-2"><g id="titulo"><path class="cls-3" d="M273.54,81.87a13.7,13.7,0,0,1-19.31,12.55c-6.93-3.09-15.37-6.66-24.68-10.21a10.36,10.36,0,0,1,1.09,4.58v31.54a10.39,10.39,0,0,1-10.38,10.39,10.2,10.2,0,0,1-4.22-.91,174.62,174.62,0,0,0-69.87-15.1c-30,0-50.66,6.94-68.5,15.42a10.37,10.37,0,0,1-14.85-9.37L63.93,91.4a10.37,10.37,0,0,1,3.83-8c-8.77,3.42-16.6,6.91-23.09,10A13.71,13.71,0,0,1,25,81V51a13.78,13.78,0,0,1,6.83-11.88C47.72,29.84,90.17,8.84,149.1,8.84c53.39,0,99.49,20.52,117,29.41a13.69,13.69,0,0,1,7.47,12.22Z"/><path class="cls-4" d="M267.58,35.27C250,26.32,203.23,5.5,149.1,5.5,89.23,5.5,46,27,30.18,36.21A17.16,17.16,0,0,0,21.68,51V81A17,17,0,0,0,46.11,96.38c4.8-2.28,9.67-4.47,14.57-6.53a12.12,12.12,0,0,0-.09,1.48l-1.11,29.31v.12a13.7,13.7,0,0,0,19.63,12.39c15.69-7.46,35.92-15.09,67.06-15.09a170.24,170.24,0,0,1,68.51,14.81A13.69,13.69,0,0,0,234,120.33V89.52c6.27,2.49,12.6,5.15,18.89,8a17,17,0,0,0,24-15.6V50.47A17,17,0,0,0,267.58,35.27Zm6,46.6a13.7,13.7,0,0,1-19.31,12.55c-6.93-3.09-15.37-6.66-24.68-10.21a10.36,10.36,0,0,1,1.09,4.58v31.54a10.39,10.39,0,0,1-10.38,10.39,10.2,10.2,0,0,1-4.22-.91,174.62,174.62,0,0,0-69.87-15.1c-30,0-50.66,6.94-68.5,15.42a10.37,10.37,0,0,1-14.85-9.37L63.93,91.4a10.37,10.37,0,0,1,3.83-8c-8.77,3.42-16.6,6.91-23.09,10A13.71,13.71,0,0,1,25,81V51a13.78,13.78,0,0,1,6.83-11.88C47.72,29.84,90.17,8.84,149.1,8.84c53.39,0,99.49,20.52,117,29.41a13.69,13.69,0,0,1,7.47,12.22Z"/><path class="cls-4" d="M34.94,46.22c3.45-1.9,5.2-2.81,8.71-4.56V82.52c-3.51,1.75-5.26,2.66-8.71,4.56ZM55.73,36.08v6.74c-5.88,2.5-11.73,5.29-17.36,8.3V44.37C44,41.36,49.85,38.57,55.73,36.08ZM56.22,70v6.75c-6,2.54-12.06,5.41-17.85,8.5V78.49C44.16,75.39,50.17,72.53,56.22,70ZM53.93,53.56v6.75c-6.08,2.67-9.09,4.11-15,7.23V60.79C44.84,57.68,47.85,56.23,53.93,53.56Z"/><path class="cls-4" d="M74.06,61.61V54.22c0-.56-.13-.91-.38-1.06a1.75,1.75,0,0,0-1.34.1c-2.24.77-3.36,1.17-5.58,2-2.78,1-4.7,1.14-5.79.27S59.34,53.13,59.34,51V41.69a10.27,10.27,0,0,1,1.82-6,12.42,12.42,0,0,1,6.11-4.24c3.08-1.13,4.63-1.67,7.74-2.7,2.9-1,5-.94,6.21-.05s1.87,2.46,1.87,4.69v5.27c-3.68,1.06-5.52,1.63-9.16,2.85v-4c0-.6-.13-1-.38-1.13a1.75,1.75,0,0,0-1.34.1l-2.16.75a3,3,0,0,0-1.33.83,2.25,2.25,0,0,0-.38,1.39v7.2c0,.56.13.91.38,1a1.75,1.75,0,0,0,1.33-.12c2.18-.77,3.28-1.15,5.47-1.86,2.85-.94,4.86-.91,6,0s1.71,2.48,1.71,4.71V60a9.29,9.29,0,0,1-1.87,5.78C80.11,67.4,78,68.65,75.14,69.6c-3.09,1-4.62,1.55-7.68,2.67-2.87,1.06-4.91,1.23-6.14.46s-1.85-2.26-1.85-4.49V63c3.58-1.46,5.38-2.15,9-3.46v4c0,.56.12.92.38,1.09s.69.13,1.33-.09c.86-.31,1.29-.46,2.16-.75A2.81,2.81,0,0,0,73.68,63,2.23,2.23,0,0,0,74.06,61.61Z"/><path class="cls-4" d="M110.15,20.13v6.75A235.67,235.67,0,0,0,85.66,32.3V25.56A238.32,238.32,0,0,1,110.15,20.13Zm-17,6.17c3.71-.9,5.57-1.31,9.31-2.06V62.4c-3.74.75-5.6,1.16-9.31,2.06Z"/><path class="cls-4" d="M153.87,17V49.47a1.71,1.71,0,0,0,.4,1.23,1.92,1.92,0,0,0,1.33.41l2.19.07v6.75c-2-.07-3-.1-5-.13-3,0-5.16-.66-6.44-1.91a6.93,6.93,0,0,1-1.92-5.2V17C148.18,16.88,150.08,16.88,153.87,17Zm6.7,32.74V17.19c3.8.18,5.69.31,9.48.65V51.57a6.49,6.49,0,0,1-1.92,5.07c-1.28,1.16-3.42,1.63-6.43,1.47-2.09-.12-3.14-.16-5.24-.22V51.14l2.32.08a2,2,0,0,0,1.4-.32A1.6,1.6,0,0,0,160.57,49.7Z"/><path class="cls-4" d="M175.86,18.43c3.78.43,5.66.68,9.43,1.26V60.55c-3.77-.58-5.65-.84-9.43-1.26Zm16.19,19.94V29.18a2,2,0,0,0-.36-1.31,2.3,2.3,0,0,0-1.35-.6c-4.69-.83-7.05-1.18-11.77-1.78V18.75c5.86.73,8.78,1.19,14.59,2.29,3,.56,5.08,1.65,6.34,3.19a8.61,8.61,0,0,1,1.89,5.65V41.25c0,2.18-.63,3.77-1.89,4.75s-3.37,1.17-6.34.61c-5.5-1-8.26-1.48-13.8-2.19V37.93c4.4.57,6.6.9,11,1.68a1.76,1.76,0,0,0,1.35-.12A1.38,1.38,0,0,0,192.05,38.37Zm-6.7,3.3c3.74.58,5.6.9,9.32,1.63q4.44,10.38,8.8,20.79c-4-.94-6-1.36-10-2.13Q189.46,51.8,185.35,41.67Z"/><path class="cls-4" d="M234.4,73.65c-3.63-1.4-5.45-2.06-9.12-3.3q-3-16.66-6.06-33.32-3,14.78-6,29.56c-3.66-1-5.5-1.5-9.19-2.38q4.68-19.21,9.38-38.42c4.69,1.32,7,2,11.66,3.61Q229.76,51.53,234.4,73.65Zm-6.26-16.38V64c-5.81-2.08-11.77-3.93-17.74-5.51V51.76C216.37,53.33,222.33,55.19,228.14,57.27Z"/><path class="cls-4" d="M237.41,34c3.58,1.44,5.37,2.2,8.9,3.79V78.63c-3.53-1.59-5.32-2.35-8.9-3.79Zm15.24,24.29V49.09a2.53,2.53,0,0,0-.34-1.42,3,3,0,0,0-1.25-1c-4.4-2.09-6.62-3.08-11.09-4.94V35c5.55,2.3,8.29,3.54,13.72,6.21a13.92,13.92,0,0,1,5.89,4.9,11.46,11.46,0,0,1,1.75,6.17V63.68c0,2.18-.58,3.59-1.75,4.24s-3.12.25-5.89-1.11c-5.13-2.52-7.73-3.7-13-5.9V54.42c4.17,1.75,6.24,2.67,10.34,4.63.61.29,1,.38,1.25.25S252.65,58.83,252.65,58.27Zm-6.28,1.5c3.52,1.58,5.26,2.41,8.72,4.14q4.14,11.57,8.17,23.17c-3.68-2-5.53-3-9.27-4.83Q250.22,71,246.37,59.77Z"/><path class="cls-4" d="M71.35,85.55c6-2.28,9.06-3.3,15.2-5.11,2.66-.78,4.57-.71,5.69.15s1.69,2.31,1.69,4.35v6.52A10.57,10.57,0,0,1,93.38,95a5.28,5.28,0,0,1-2.07,2.63,2.46,2.46,0,0,1,2.07,1.31,7,7,0,0,1,.55,3.06v7.29a8.24,8.24,0,0,1-1.69,5.23c-1.12,1.45-3,2.54-5.69,3.32-6.14,1.81-9.18,2.83-15.2,5.11Zm14.39,9.36v-7c0-.55-.11-.89-.35-1a1.54,1.54,0,0,0-1.21,0c-1.89.58-2.84.88-4.72,1.51v9.93c1.88-.63,2.83-.93,4.72-1.51a2.36,2.36,0,0,0,1.21-.72A1.92,1.92,0,0,0,85.74,94.91Zm0,15.92v-7.22c0-.55-.11-.9-.35-1a1.58,1.58,0,0,0-1.21,0c-1.89.58-2.84.88-4.72,1.51v10.17c1.88-.63,2.83-.93,4.72-1.51a2.36,2.36,0,0,0,1.21-.72A2,2,0,0,0,85.74,110.83Z"/><path class="cls-4" d="M124.55,110.29c-3.43.36-5.14.58-8.55,1.08q-2.81-13.89-5.62-27.78-2.79,14.85-5.55,29.72c-3.34.67-5,1-8.33,1.84q4.23-19.64,8.51-39.26c4.29-.86,6.44-1.23,10.75-1.87Q120.17,92.16,124.55,110.29Zm-5.88-12.17v6.12c-6.58.87-9.86,1.44-16.37,2.83V101C108.81,99.57,112.09,99,118.67,98.12Z"/><path class="cls-4" d="M127.41,72.63c3.41-.31,5.11-.43,8.53-.61V109.4c-3.42.18-5.12.3-8.53.61Zm3.16,37.12v-6.17c6.51-.5,9.77-.63,16.3-.63v6.17C140.34,109.12,137.08,109.25,130.57,109.75Z"/><path class="cls-4" d="M157.92,79.66V91.53c-3.42-.17-5.12-.23-8.54-.27v-13a6.3,6.3,0,0,1,1.76-4.77c1.17-1.13,3.12-1.67,5.82-1.54,1.82.09,2.73.14,4.54.26V78.4l-2-.12a1.77,1.77,0,0,0-1.25.25A1.43,1.43,0,0,0,157.92,79.66Zm0,10.28v11.82a1.56,1.56,0,0,0,.36,1.13,1.86,1.86,0,0,0,1.25.43l1.91.12v6.17c-1.79-.12-2.69-.17-4.48-.26-2.7-.13-4.65-.75-5.82-1.93a6.46,6.46,0,0,1-1.76-4.81V89.68C152.8,89.72,154.5,89.77,157.92,89.94Zm7-19.38a6.51,6.51,0,0,1-2.83-.9,21.26,21.26,0,0,1-2.27-1.53,3.21,3.21,0,0,0-1.7-.8c-.68,0-1,.38-1,1.24V70c-2.7-.13-4-.17-6.75-.21V67.36a5.8,5.8,0,0,1,1.17-3.86c.77-.92,2.2-1.36,4.27-1.28l.9,0a5.94,5.94,0,0,1,2.83.86c.86.52,1.61,1,2.27,1.52a3.32,3.32,0,0,0,1.58.79,1,1,0,0,0,.86-.22,1.38,1.38,0,0,0,.27-1V62.76c2.69.23,4,.36,6.73.66v2.77a4.82,4.82,0,0,1-1.19,3.57c-.8.77-2.22,1-4.29.87Zm-1,31.59V90.51c3.41.28,5.12.45,8.52.85v12.76a5.83,5.83,0,0,1-1.73,4.59c-1.15,1-3.07,1.39-5.77,1.17-1.89-.16-2.83-.23-4.71-.35v-6.17l2.14.14a1.17,1.17,0,0,0,1.55-1.35Zm0-10.22V80.05a1.74,1.74,0,0,0-.32-1.17,1.87,1.87,0,0,0-1.23-.41l-2-.14V72.16c1.83.11,2.75.18,4.59.34,2.7.22,4.62,1,5.77,2.3a7.2,7.2,0,0,1,1.73,5v13C169.06,92.37,167.35,92.2,163.94,91.93Z"/><path class="cls-4" d="M177.5,73.93c3.42.49,5.12.77,8.52,1.4v37.38c-3.4-.63-5.1-.91-8.52-1.4Zm20,3.87V84c-6.62-1.61-9.95-2.28-16.65-3.35V74.44C187.58,75.52,190.91,76.19,197.53,77.8Zm.47,31.32v6.18c-5.63-1.41-11.39-2.58-17.12-3.48v-6.17C186.61,106.55,192.37,107.72,198,109.12Zm-2.17-16.44v6.17c-5.73-1.35-8.62-1.92-14.42-2.87V89.81C187.21,90.76,190.1,91.33,195.83,92.68Z"/><path class="cls-4" d="M214.4,112.39v-6.76a1.88,1.88,0,0,0-.35-1.2,2.37,2.37,0,0,0-1.2-.72c-2-.66-3-1-5.08-1.58-2.55-.75-4.33-1.83-5.34-3.3a8.89,8.89,0,0,1-1.51-5.19V85.18q0-3.06,1.68-4.34c1.13-.86,3-.92,5.63-.14,2.82.84,4.23,1.29,7,2.23a10.77,10.77,0,0,1,5.55,3.69A9.17,9.17,0,0,1,222.46,92v4.82c-3.25-1.23-4.89-1.81-8.18-2.9v-3.7a2,2,0,0,0-.34-1.26,2.5,2.5,0,0,0-1.21-.72l-2-.62a1.54,1.54,0,0,0-1.21-.05c-.23.14-.34.49-.34,1v6.58a1.83,1.83,0,0,0,.34,1.19,2.46,2.46,0,0,0,1.21.7c2,.62,3,.94,4.95,1.61a10,10,0,0,1,5.34,3.6,9.37,9.37,0,0,1,1.51,5.33v8.75c0,2-.55,3.43-1.65,4.18s-2.94.65-5.54-.23c-2.78-.93-4.18-1.38-7-2.22a10.86,10.86,0,0,1-5.66-3.34,8.3,8.3,0,0,1-1.72-5.25v-4.82c3.34.87,5,1.34,8.3,2.35v3.7a2,2,0,0,0,.35,1.22,2.3,2.3,0,0,0,1.21.73l2,.63c.57.18,1,.2,1.2,0A1.15,1.15,0,0,0,214.4,112.39Z"/><path class="cls-5" d="M126.94,14.4s2,14.69,3,22.61-.52,32.85,2.6,45.42,5.08,26.45,5.08,26.45l-.9-.54a152.75,152.75,0,0,0-2.52-17c-1.77-8-4.07-13.38-3.93-24.67s-.05-25.51-1.92-38.89l-1.87-13.38Z"/><path class="cls-6" d="M128,63.81a12.24,12.24,0,0,0,5-.14s-.78-2.86-2.87-2.81S128,63.81,128,63.81Z"/><g class="cls-7"><ellipse class="cls-8" cx="126.83" cy="36.36" rx="20.55" ry="25.19" transform="translate(-4.97 42.47) rotate(-18.65)"/></g><g class="cls-9"><g class="cls-7"><path class="cls-10" d="M128.3,61.08c3.2,2.22,10.94-1.73,13.77-11,0,0-8,13-18.41,8.79-7.16-2.9-9.29-6.43-3.52-2.57s17.14,1.07,23.39-9.8,2.7-16.14,1.61-8.9S130.49,64.26,116,52.06s-9.1-11.73-2.94-4,17.31,8.25,25.56-.72,5.29-18.12,5.29-18.12l-.19-5.11s-12-13.48-4.17-2.68,0,29.39-15.94,29C112.17,50.07,109,39.13,109,39.13L106.64,31s-.16-6.2,1.32,1.33S113.11,48,124.08,48,148,30.88,136.9,18.28s-15.48-8.7-7.38-4.65,11.53,26.21-3.3,30.12S107.35,32.45,108.81,27s-2-12.69-2-12.69,4.56.21,3,8.46S112.41,42.54,122.22,42C132.66,41.36,137.85,29.9,133,20.7s-9.12-8-9.12-8l-4.38-2.81s-6,5.82-1.35,4.24S129.3,19.73,130.59,30s-15.23,10.21-18.32,2.24S111,20.6,113.43,18.06c0,0-3.75,4.93,1.14,13.12s11.8,4,13-.68-3-13.43-7.11-14.9a4.67,4.67,0,0,0-5.93,1.82s4.91-2.84,9.85,6.6-6.3,9.87-9.06,2.8-1.26-9.08-1.26-9.08-.91-.27-2,1.66-1-2.83-1-2.83l.69-11.51-9.73.26,7.37,55.15s13.51,9.89,14.27,9.76-1.09-6.08-.24-6.44S128.3,61.08,128.3,61.08Z"/></g></g><path class="cls-11" d="M131.26,59.89c3.79-.8,8.56-5.89,10.62-11.25,0,0-6.1,5.49-8,7.37A13.09,13.09,0,0,0,131.26,59.89Z"/><path class="cls-12" d="M121.26,40S119,28.73,121.42,21l1.92,0a52.46,52.46,0,0,1,3,11.71s11.39-.17,14.84-7.26a7.17,7.17,0,0,0,.36-.91c-3.78-6.81-10.69-11.43-17.67-11.24-9.59.26-16.66,9.86-15.28,21a20.23,20.23,0,0,0,.52,2.62C110.06,37.57,114.19,40.43,121.26,40Z"/><path class="cls-13" d="M108.63,32.32c-.59,2.64.62,7.54,2.66,10.87,0,0-1.06-5.87-1.49-7.74A11.73,11.73,0,0,0,108.63,32.32Z"/><path class="cls-14" d="M108.54,33.65a36.2,36.2,0,0,1,.94,4.76c0,.79.27,2,.27,2A17.23,17.23,0,0,1,108.54,33.65Z"/><path class="cls-15" d="M115,19.19a2.26,2.26,0,0,1,3.52-1.43S114,22.39,115,19.19Z"/><path class="cls-16" d="M133,63.67s-3.07-1.14-5,.14A12.24,12.24,0,0,0,133,63.67Z"/><path class="cls-16" d="M130.24,61.09l.87-.06c2.08-.31,4.3-1.78,6.36-4-7.57,7.67-16.79-.25-19.56-2.81C121.93,58.36,126.51,61.09,130.24,61.09Z"/><path class="cls-5" d="M61.11,78.62s1.44,10.58,2.15,16.29-.37,23.68,1.88,32.74,3.66,19.06,3.66,19.06l-.65-.38a110,110,0,0,0-1.82-12.22c-1.28-5.8-2.93-9.64-2.83-17.79a192.18,192.18,0,0,0-1.38-28l-1.35-9.65Z"/><path class="cls-17" d="M61.85,114.23a8.77,8.77,0,0,0,3.62-.1s-.57-2.06-2.07-2S61.85,114.23,61.85,114.23Z"/><g class="cls-18"><ellipse class="cls-19" cx="61.03" cy="94.44" rx="14.81" ry="18.16" transform="translate(-27 24.48) rotate(-18.65)"/></g><g class="cls-9"><g class="cls-18"><path class="cls-10" d="M62.09,112.26C64.4,113.86,70,111,72,104.35c0,0-5.8,9.37-13.27,6.34-5.16-2.09-6.7-4.63-2.54-1.86s12.36.78,16.86-7.06,2-11.63,1.16-6.41-10.55,19.19-21,10.4-6.55-8.46-2.12-2.91,12.48,5.94,18.43-.52,3.81-13.06,3.81-13.06l-.14-3.68s-8.65-9.72-3-1.93,0,21.17-11.49,20.88c-8.23-.21-10.49-8.1-10.49-8.1l-1.73-5.86s-.12-4.47,1,1,3.72,11.28,11.62,11.31,17.24-12.36,9.24-21.44S57.14,75.15,63,78.06,71.28,97,60.59,99.77,47,91.63,48.05,87.69s-1.43-9.15-1.43-9.15,3.29.15,2.19,6.1,1.83,14.26,8.9,13.85c7.53-.44,11.27-8.7,7.75-15.33s-6.58-5.78-6.58-5.78l-3.16-2s-4.34,4.19-1,3,8.06,4,9,11.44-11,7.35-13.2,1.61-.91-8.37.84-10.21c0,0-2.71,3.56.82,9.46s8.5,2.9,9.4-.49-2.13-9.68-5.13-10.74a3.37,3.37,0,0,0-4.27,1.31s3.54-2,7.1,4.76-4.54,7.11-6.53,2S51.86,81,51.86,81s-.65-.19-1.44,1.2-.7-2-.7-2l.49-8.29-7,.18,5.31,39.75s9.74,7.13,10.29,7-.78-4.39-.18-4.64S62.09,112.26,62.09,112.26Z"/></g></g><path class="cls-20" d="M64.22,111.4c2.74-.57,6.18-4.24,7.66-8.11,0,0-4.4,4-5.74,5.32A9.44,9.44,0,0,0,64.22,111.4Z"/><path class="cls-21" d="M57,97.08s-1.66-8.14.11-13.72l1.39,0a37.85,37.85,0,0,1,2.17,8.44s8.21-.13,10.69-5.24a5.18,5.18,0,0,0,.26-.65c-2.72-4.91-7.7-8.24-12.73-8.1-6.92.18-12,7.1-11,15.12a14,14,0,0,0,.37,1.89A13,13,0,0,0,57,97.08Z"/><path class="cls-22" d="M47.92,91.53c-.43,1.9.44,5.43,1.91,7.83,0,0-.76-4.23-1.07-5.57A8.44,8.44,0,0,0,47.92,91.53Z"/><path class="cls-14" d="M47.85,92.49a26.26,26.26,0,0,1,.68,3.43c0,.57.2,1.41.2,1.41A12.06,12.06,0,0,1,47.85,92.49Z"/><path class="cls-15" d="M52.53,82.07a1.63,1.63,0,0,1,2.54-1S51.8,84.37,52.53,82.07Z"/><path class="cls-16" d="M65.47,114.13s-2.22-.83-3.62.1A8.77,8.77,0,0,0,65.47,114.13Z"/><path class="cls-16" d="M63.49,112.27l.63,0a8.42,8.42,0,0,0,4.58-2.88c-5.45,5.53-12.1-.18-14.09-2C57.5,110.3,60.8,112.27,63.49,112.27Z"/><path class="cls-5" d="M266.12,34s1.06,7.79,1.58,12-.28,17.43,1.38,24.1,2.69,14,2.69,14l-.48-.29a81.29,81.29,0,0,0-1.33-9c-.94-4.26-2.16-7.1-2.09-13.09a139.93,139.93,0,0,0-1-20.62l-1-7.1Z"/><path class="cls-23" d="M266.66,60.16a6.56,6.56,0,0,0,2.66-.07s-.41-1.52-1.52-1.49S266.66,60.16,266.66,60.16Z"/><g class="cls-24"><ellipse class="cls-25" cx="266.06" cy="45.6" rx="10.9" ry="13.36" transform="translate(-0.61 87.48) rotate(-18.65)"/></g><g class="cls-9"><g class="cls-24"><path class="cls-10" d="M266.84,58.71c1.7,1.18,5.8-.91,7.3-5.82,0,0-4.26,6.89-9.76,4.67-3.8-1.54-4.93-3.41-1.87-1.37s9.09.57,12.41-5.2,1.43-8.56.85-4.72S268,60.4,260.3,53.93s-4.82-6.23-1.56-2.14,9.18,4.37,13.56-.39,2.81-9.61,2.81-9.61l-.1-2.71s-6.37-7.15-2.22-1.42,0,15.59-8.45,15.37c-6.06-.16-7.72-6-7.72-6l-1.27-4.31s-.09-3.29.7.7,2.73,8.3,8.55,8.33,12.69-9.1,6.8-15.78-8.21-4.61-3.92-2.47,6.12,13.9-1.75,16-10-6-9.23-8.89-1.05-6.73-1.05-6.73,2.42.11,1.62,4.49,1.34,10.49,6.54,10.18c5.54-.32,8.29-6.4,5.7-11.27S264.47,33,264.47,33l-2.32-1.48s-3.19,3.08-.72,2.24,5.94,3,6.62,8.42-8.08,5.41-9.72,1.18-.67-6.16.62-7.51c0,0-2,2.62.61,7s6.26,2.13,6.91-.36-1.57-7.12-3.77-7.9a2.48,2.48,0,0,0-3.15,1s2.61-1.5,5.23,3.5-3.34,5.24-4.81,1.49-.67-4.82-.67-4.82-.47-.14-1.05.89-.52-1.51-.52-1.51l.37-6.1-5.16.14,3.9,29.25s7.17,5.24,7.57,5.18-.57-3.23-.12-3.42S266.84,58.71,266.84,58.71Z"/></g></g><path class="cls-26" d="M268.41,58.08c2-.42,4.54-3.12,5.63-6,0,0-3.23,2.92-4.22,3.91A6.88,6.88,0,0,0,268.41,58.08Z"/><path class="cls-27" d="M263.1,47.54s-1.22-6,.09-10.1l1,0a27.36,27.36,0,0,1,1.6,6.21s6.05-.09,7.87-3.85a4.89,4.89,0,0,0,.2-.48c-2-3.62-5.67-6.06-9.38-6-5.09.13-8.83,5.22-8.1,11.13a11.36,11.36,0,0,0,.27,1.39A9.59,9.59,0,0,0,263.1,47.54Z"/><path class="cls-28" d="M256.41,43.45a9.39,9.39,0,0,0,1.4,5.77s-.56-3.11-.78-4.1A6.76,6.76,0,0,0,256.41,43.45Z"/><path class="cls-14" d="M256.36,44.16a17.85,17.85,0,0,1,.49,2.53c0,.41.15,1,.15,1A9.15,9.15,0,0,1,256.36,44.16Z"/><path class="cls-15" d="M259.8,36.49a1.2,1.2,0,0,1,1.87-.76S259.26,38.19,259.8,36.49Z"/><path class="cls-16" d="M269.32,60.09a3.45,3.45,0,0,0-2.66.07A6.56,6.56,0,0,0,269.32,60.09Z"/><path class="cls-16" d="M267.86,58.72l.47,0a6.19,6.19,0,0,0,3.37-2.12c-4,4.07-8.9-.13-10.37-1.49C263.46,57.27,265.89,58.72,267.86,58.72Z"/><path class="cls-29" d="M221.14,113.57c-1.26-1-1.88-3.13-.8-4.45a4,4,0,0,1,3-1.47,6.25,6.25,0,0,1,2.18.84c-.11,0,.69-1.17.77-1.26a4.47,4.47,0,0,1,1.28-1c.95-.51,2.62-1,3.28.18a2.84,2.84,0,0,1,.26,1.29c.79-.74,1.75.75,1.82.7a4.25,4.25,0,0,1,3.62-.5,3.38,3.38,0,0,1,1.45.9,5.54,5.54,0,0,1,1.09,2.81,2.45,2.45,0,0,1,3.22,1,3.2,3.2,0,0,1-.51,3.52,3.58,3.58,0,0,1,3,1.32,3.13,3.13,0,0,1,.38,3.22,2.8,2.8,0,0,1-2.79,1.57,1,1,0,0,1-.29,1.77,4.57,4.57,0,0,1,1.43,2.29,2.89,2.89,0,0,1-.57,2.57,2.15,2.15,0,0,1-2.49.57,5.49,5.49,0,0,1,1.1,2.23,3.18,3.18,0,0,1-2.62,3.65,3.81,3.81,0,0,1-4-2.45,1,1,0,0,1-.77.85,1,1,0,0,1-1-.53c.38,1.82-1.31,3.12-2.85,3.63a4.33,4.33,0,0,1-5.32-1.76,1.64,1.64,0,0,1-.13-1.66,1.77,1.77,0,0,1-1,.83.86.86,0,0,1-1.05-.64c-.39.57-1.23.54-1.9.39a2.77,2.77,0,0,1-1.76-.91c-.39-.56-.21-1.52.45-1.66a2.58,2.58,0,0,1-1.64-.29,1.16,1.16,0,0,1-.48-1.46,3,3,0,0,1-3.19-.2,6.16,6.16,0,0,1-2-2.65c-.76-1.65-1.11-3.74,0-5.18a6.13,6.13,0,0,1,2.46-1.64,1.67,1.67,0,0,1,1.26-2.45,5.71,5.71,0,0,1-1-2.68C215,113.93,216.48,111.23,221.14,113.57Z"/><path class="cls-30" d="M244,110.57a5.24,5.24,0,0,1,3.2-.85,2.77,2.77,0,0,1-1.06-.35.94.94,0,0,1-.43-1,1.37,1.37,0,0,1,.35-.51l.81-.89a4.37,4.37,0,0,1-1.53,0c-.37-.07-.79-.25-.88-.61a1.13,1.13,0,0,1,.41-.94l1.71-2a12.65,12.65,0,0,1-3.11,1.88,2.39,2.39,0,0,1-.93.25,1,1,0,0,1-.83-.41c-.31-.52.12-1.18,0-1.78a7.81,7.81,0,0,1-1.18,1.56.82.82,0,0,1-.4.27c-.32.08-.62-.19-.77-.48a4.18,4.18,0,0,0-.42-.88c.06.08-.09.61-.11.71a8.12,8.12,0,0,0-.2,1.47,4.23,4.23,0,0,0,.69,1.64,5,5,0,0,1,.53,2.1C240.76,109.63,243.25,109.68,244,110.57Z"/><path class="cls-31" d="M245.87,127.49c.06-.4.18-.88.57-1a.72.72,0,0,1,.68.17,2.32,2.32,0,0,1,.45.58c0-.35-.43-.61-.38-1a.51.51,0,0,1,.43-.4,1.51,1.51,0,0,1,.63.07l.95.23a2.91,2.91,0,0,1-.86-.52.43.43,0,0,1-.15-.21.35.35,0,0,1,.18-.38,1.1,1.1,0,0,1,.44-.11l2.87-.26c-1.13-.24-2.24-.53-3.34-.87-.19-.06-.42-.16-.46-.36s.27-.46.54-.54a1.51,1.51,0,0,1-.86-.24.28.28,0,0,1-.13-.25.29.29,0,0,1,.1-.16,4.65,4.65,0,0,1,.72-.61,10.38,10.38,0,0,1-3.93,1.4c.11.55.28,1.18-.35,1.51A6.83,6.83,0,0,1,245.87,127.49Z"/><path class="cls-32" d="M225.25,106.55s2.19-2.88,5.41-1.89a2,2,0,0,1,1,1,16.76,16.76,0,0,1,2.48-5.6c-.86.87-1.84,1.62-2.7,2.48a.57.57,0,0,1-.4.23.49.49,0,0,1-.28-.11,2.74,2.74,0,0,1-.8-1.93c0,.51-.15,1.14-.65,1.26a.8.8,0,0,1-.77-.29,2.23,2.23,0,0,1-.38-.79,11.76,11.76,0,0,1-.37-3.84c0,.74-.19,1.62-.24,2.33a4.83,4.83,0,0,1-.42,1.71,1.11,1.11,0,0,1-.63.66c-.45.11-.84-.29-1.12-.65a3.72,3.72,0,0,1,.35.91.62.62,0,0,1,0,.33c-.1.24-.42.26-.67.21a6.25,6.25,0,0,1-3.34-2.51Z"/><path class="cls-33" d="M224.36,136.31a5.32,5.32,0,0,0,7.48,1.31,11.5,11.5,0,0,0,1.91,4.31s-2.09-2-2.57-1.26.48,3.06.48,3.06-1.38-2.16-2.1-2.1-1.91,4-1.85,4.13-.54-4.61-1.32-5-2,2.16-2,2.16.78-2.52,0-3.11-2.46,1-2.46,1S224.24,137.38,224.36,136.31Z"/><path class="cls-34" d="M214.55,116.72a3.36,3.36,0,0,0-1.41,2.49c-.85.54-2.35,1.63-2.57,3.26a17,17,0,0,0-3.57,1.4s3.39-2.49,1.31-2.85a14.92,14.92,0,0,0-3.89-.14s4.56-.95,4.75-1.35-2.67-2.58-4.75-3.26c0,0,5.79,1,6,.91s-.13-2.22-1.9-3.08c2,.68,3.94,1.72,3.62.41s-.57-2.9-.57-2.9Z"/><path class="cls-35" d="M245.67,115.65a3.85,3.85,0,0,1,1.36,1.66l2.95.5s-2-1-2-1.45,1.2-1.51,1.2-1.51-1.6.71-1.91.28,0-2.58,0-2.58A19.68,19.68,0,0,1,245.67,115.65Z"/><path class="cls-36" d="M218.59,110.57a3.94,3.94,0,0,1,2.08-3.31l-.81-3.21s.63,4.29-2.53,1.17c.45,1.09,1.08,2.54.58,2.81s-4.16-.72-4.16-.72,3,1.26,3.12,1.85-2.32,1.22-2.32,1.22Z"/><path class="cls-37" d="M214,131.51a1.8,1.8,0,0,0,2,.54c.08.5.46,1,1,.92.11.3.22,1.26.95,1.49l-.46,3s-.38-1.81-.8-1.86-1.07,2.74-1.07,2.74.19-3-.38-3.42-2.56,2.54-2.56,2.54,1.56-3.13,1.14-3.62-2.4.42-2.4.42,2-1.3,1.79-1.65a6.43,6.43,0,0,0-1.79-.88Z"/><path class="cls-38" d="M242.78,133.1s-.65,2.41-2.52,3a42.47,42.47,0,0,0,2,3.95s-.17-2.2.54-2.88,2.47.85,2.47.85-1.81-2.63-1-3.29a21.45,21.45,0,0,1,2.36-1.59Z"/><path class="cls-39" d="M243,128.9a2.89,2.89,0,0,0,.57-2.57,4.57,4.57,0,0,0-1.43-2.29,1,1,0,0,0,.29-1.77,2.8,2.8,0,0,0,2.79-1.57,3.13,3.13,0,0,0-.38-3.22,3.58,3.58,0,0,0-.51-.52h0a5.13,5.13,0,0,1-.47,3.16,3.23,3.23,0,0,1-2.6,1.7,1.79,1.79,0,0,1-1.92,1.89,3.46,3.46,0,0,1-2.39,3.93,4.58,4.58,0,0,1-2.64-.16,2.68,2.68,0,0,1-1-.54,2.58,2.58,0,0,1-.66-1.1,4.8,4.8,0,0,1,.5-4,1.62,1.62,0,0,1-1.95-1.8,5.19,5.19,0,0,1-8.65,3.24,2.37,2.37,0,0,1-2.31,1.3,2.51,2.51,0,0,1-2.15-1.68,3,3,0,0,1-3.25-2.92,6.13,6.13,0,0,0-2.46,1.64c-1.11,1.44-.76,3.53,0,5.18a6.16,6.16,0,0,0,2,2.65,3,3,0,0,0,3.19.2,1.16,1.16,0,0,0,.48,1.46,2.58,2.58,0,0,0,1.64.29c-.66.14-.84,1.1-.45,1.66A2.77,2.77,0,0,0,221,134c.67.15,1.51.18,1.9-.39a.86.86,0,0,0,1.05.64,1.77,1.77,0,0,0,1-.83,1.64,1.64,0,0,0,.13,1.66,4.33,4.33,0,0,0,5.32,1.76c1.54-.51,3.23-1.81,2.85-3.63a1,1,0,0,0,1,.53,1,1,0,0,0,.77-.85,3.81,3.81,0,0,0,4,2.45,3.18,3.18,0,0,0,2.62-3.65,5.49,5.49,0,0,0-1.1-2.23A2.15,2.15,0,0,0,243,128.9Z"/><path class="cls-40" d="M223.23,129.83a.86.86,0,0,0,1.51.69,3.9,3.9,0,0,0,4.42,2,2.13,2.13,0,0,0,.8-.39,1.44,1.44,0,0,0,.33-1.68,1.28,1.28,0,0,0,.83-.5.53.53,0,0,0-.3-.79,1.52,1.52,0,0,0,.55-1.34,2.45,2.45,0,0,0-.61-1.36,2.32,2.32,0,0,0-1.71-.92,2.23,2.23,0,0,0-1.32.56c-.28.23-.48.64-.77.85s-.2.11-.59,0c-.18-.08-1.33-.11-1.23.33a1.32,1.32,0,0,0-2.55-.1,1.94,1.94,0,0,0-1.22-.54C218.81,126.74,222,131.32,223.23,129.83Z"/><path class="cls-41" d="M214.77,123.88c.19,0,.36.1.44.48a1.58,1.58,0,0,1,1.17-.49,1.69,1.69,0,0,1,.5.08,1.48,1.48,0,0,1,.88.71,1.09,1.09,0,0,1-.06,1.1,1,1,0,0,1,.46.79,1.46,1.46,0,0,1-.39,1,1.25,1.25,0,0,1-.75.5.67.67,0,0,1-.75-.39,1.24,1.24,0,0,1-1.53.16,1.25,1.25,0,0,1-.43-1.49,1.19,1.19,0,0,1-1-.87.66.66,0,0,1,1-.74C214,124.53,214.4,123.92,214.77,123.88Z"/><path class="cls-42" d="M231,111.1a1.64,1.64,0,0,0,1.59-.29,2.25,2.25,0,0,0,1.55,2.35,4.66,4.66,0,0,0,3-.15,1,1,0,0,0,.27,1.62,3.26,3.26,0,0,0-.93,1.53,1.4,1.4,0,0,0,.68,1.54,1.76,1.76,0,0,0-1.87.89,3.08,3.08,0,0,0-1.75-1.56,2,2,0,0,0-2.17.61,1.76,1.76,0,0,0-1.69-1.15,1.58,1.58,0,0,0-1-1.89,5.31,5.31,0,0,0-2.85-.06,4.2,4.2,0,0,0,1.28-.66c.92-.75.73-1.51-.13-2.21a2.7,2.7,0,0,0,3-2C229.67,110.24,230.52,111,231,111.1Z"/><path class="cls-43" d="M221,112.78s-1.41-2,0-3.64a2.79,2.79,0,0,1,3.38-.54A3.78,3.78,0,0,0,221,112.78Z"/><path class="cls-43" d="M226.69,107.44s1.38-1.57,2.78-1.43,1.27,1.66,1.27,1.66S229.43,106.06,226.69,107.44Z"/><path class="cls-43" d="M233.33,108.58a4.79,4.79,0,0,1,3.31-.19,3.13,3.13,0,0,1,1.74,2.48A5.32,5.32,0,0,0,233.33,108.58Z"/><path class="cls-43" d="M219.78,113.63s-2.58-1.27-3.65,0,0,3,0,3S215.85,113.75,219.78,113.63Z"/><path class="cls-43" d="M239.61,112s1.79-.35,2.31.78a3,3,0,0,1-.37,2.83S242.05,112.8,239.61,112Z"/><path class="cls-43" d="M241.75,116.46s1.55,0,1.95.81a2.63,2.63,0,0,1-.27,2.35S243.68,117,241.75,116.46Z"/><path class="cls-43" d="M231.55,118s.78-1.07,1.78-.54,1.4,1.12,1.46,1.57C234.79,119.07,233.32,117.44,231.55,118Z"/><path class="cls-43" d="M226.1,114.64a3.07,3.07,0,0,1,2.26.24,1.34,1.34,0,0,1,.76,1.51A5.58,5.58,0,0,0,226.1,114.64Z"/><path class="cls-43" d="M227.55,127.29s.78-1.53,1.88-1a2,2,0,0,1,1.24,2.34A2.4,2.4,0,0,0,227.55,127.29Z"/><path class="cls-43" d="M222.84,127.27s.27-.75.95-.73a1.2,1.2,0,0,1,1,.73A2.26,2.26,0,0,0,222.84,127.27Z"/><path class="cls-43" d="M215.43,124.42s1-.66,1.75,0a.93.93,0,0,1,.23,1.27S217.31,124.42,215.43,124.42Z"/><path class="cls-44" d="M245,123.91a6,6,0,0,1,.85,0,7.78,7.78,0,0,1,.84.16l1.66.35a0,0,0,0,1,0,0s0,0,0,0c-.56,0-1.12-.12-1.68-.19a7.71,7.71,0,0,1-.84-.11,4.55,4.55,0,0,1-.82-.24s0,0,0,0Z"/><path class="cls-45" d="M245.23,123.29a1.07,1.07,0,0,1,.32-.16,1.22,1.22,0,0,1,.33,0l.68,0,0,0h0q-.33.11-.66.18a1.23,1.23,0,0,1-.33.08,1.1,1.1,0,0,1-.35-.05v0Z"/><path class="cls-46" d="M244.93,124.57a2,2,0,0,1,.41.21,3.19,3.19,0,0,1,.33.31c.21.21.43.43.63.65,0,0,0,0,0,0s0,0,0,0c-.25-.16-.5-.34-.74-.51a2,2,0,0,1-.36-.28,1.29,1.29,0,0,1-.28-.37s0,0,0,0Z"/><path class="cls-47" d="M240.55,108.93a5.81,5.81,0,0,1,.58-.73c.21-.23.44-.43.67-.64l1.37-1.25h0v0c-.42.46-.83.92-1.26,1.37a7.94,7.94,0,0,1-.63.67,5.26,5.26,0,0,1-.74.58h0Z"/><path class="cls-48" d="M242.13,109.06a2.51,2.51,0,0,1,.48-.32,3.44,3.44,0,0,1,.53-.21l1.07-.38h0a0,0,0,0,1,0,0c-.33.19-.67.36-1,.53a3.54,3.54,0,0,1-.52.25,2.08,2.08,0,0,1-.56.13s0,0,0,0Z"/><path class="cls-49" d="M240.42,107.67a1.84,1.84,0,0,1,0-.53,4.2,4.2,0,0,1,.17-.5c.12-.33.25-.65.38-1h0c-.07.34-.14.69-.22,1a4.07,4.07,0,0,1-.13.5,1.92,1.92,0,0,1-.25.47h0Z"/><path class="cls-50" d="M228.08,104.05a2.3,2.3,0,0,1-.14-.56,5,5,0,0,1,0-.55c0-.38,0-.75,0-1.13h0c.05.37.1.74.14,1.11a3.55,3.55,0,0,1,.06.56,2.24,2.24,0,0,1-.08.57s0,0,0,0Z"/><path class="cls-51" d="M231.33,103.92a.76.76,0,0,1,.1-.31,1.57,1.57,0,0,1,.21-.24l.44-.45h0v0c-.1.18-.2.37-.31.55a.9.9,0,0,1-.17.26.88.88,0,0,1-.27.19h0Z"/><path class="cls-52" d="M225.59,104.82a2.4,2.4,0,0,1-.43-.41,5.11,5.11,0,0,1-.33-.48c-.21-.33-.42-.66-.62-1,0,0,0,0,0,0h0c.26.3.51.59.76.9a5.07,5.07,0,0,1,.36.45,2.45,2.45,0,0,1,.26.54h0Z"/><path class="cls-53" d="M219.07,107.55a.88.88,0,0,1-.26-.19,1.13,1.13,0,0,1-.16-.26c-.1-.18-.19-.36-.28-.55h0l.42.45a1,1,0,0,1,.19.23.8.8,0,0,1,.09.31s0,0,0,0Z"/><path class="cls-54" d="M218.48,108.93a1,1,0,0,1-.34,0,2,2,0,0,1-.32-.11l-.61-.25a0,0,0,0,1,0,0h0c.22,0,.44.05.65.09a1.28,1.28,0,0,1,.33.06.85.85,0,0,1,.29.19v0Z"/><path class="cls-55" d="M212.3,118.87a5.27,5.27,0,0,1-.81-.11,7.08,7.08,0,0,1-.78-.25c-.52-.16-1-.34-1.55-.52h0a0,0,0,0,1,0,0c.54.11,1.07.23,1.6.36a7.62,7.62,0,0,1,.79.2,5.57,5.57,0,0,1,.76.32v0Z"/><path class="cls-56" d="M212.79,117.6a1.91,1.91,0,0,1-.43-.29,3,3,0,0,1-.33-.38c-.22-.26-.43-.52-.64-.79,0,0,0,0,0,0h0l.76.67a2.41,2.41,0,0,1,.37.34,2,2,0,0,1,.28.44s0,0,0,0Z"/><path class="cls-57" d="M211.19,119.94a2.35,2.35,0,0,1-.48.23,3.1,3.1,0,0,1-.51.11l-1,.18h0s0,0,0,0c.33-.12.66-.24,1-.34a3.22,3.22,0,0,1,.5-.16,2.33,2.33,0,0,1,.53,0s0,0,0,0Z"/><path class="cls-58" d="M215.73,132.48a2.07,2.07,0,0,1-.19.51,2.39,2.39,0,0,1-.31.45c-.2.3-.42.59-.64.88,0,0,0,0,0,0h0c.16-.33.33-.65.5-1a4.39,4.39,0,0,1,.27-.47,2.31,2.31,0,0,1,.37-.4h0Z"/><path class="cls-59" d="M216.51,133.4a1.35,1.35,0,0,1,0,.4,1.52,1.52,0,0,1-.11.38c-.08.26-.17.51-.26.76h0c0-.26.05-.53.09-.79a2.66,2.66,0,0,1,.07-.39,1.39,1.39,0,0,1,.19-.36h0Z"/><path class="cls-60" d="M228.05,139.34a3.3,3.3,0,0,1,.08.61,4.08,4.08,0,0,1,0,.61c0,.41-.07.81-.12,1.22h0c0-.41,0-.82,0-1.22a3.11,3.11,0,0,1,0-.61,2.54,2.54,0,0,1,.12-.61h0Z"/><path class="cls-61" d="M229.91,139.31a1.19,1.19,0,0,1,.24.36,1.52,1.52,0,0,1,.12.4c.08.27.15.55.21.82,0,0,0,0,0,0h0c-.13-.25-.25-.51-.36-.76a1.92,1.92,0,0,1-.17-.39,1.53,1.53,0,0,1,0-.43h0Z"/><path class="cls-62" d="M225.9,138.46a1.46,1.46,0,0,1-.07.52,2.53,2.53,0,0,1-.19.48c-.13.32-.27.63-.42.95h0c.08-.34.17-.67.26-1a3.51,3.51,0,0,1,.15-.49,1.74,1.74,0,0,1,.27-.45h0Z"/><path class="cls-63" d="M242.49,135.1a1.17,1.17,0,0,1,.39.18,1.58,1.58,0,0,1,.31.27c.21.19.41.38.6.58,0,0,0,0,0,0a0,0,0,0,1,0,0l-.7-.45a2.08,2.08,0,0,1-.34-.24,1.28,1.28,0,0,1-.26-.34s0,0,0,0Z"/><path class="cls-64" d="M19.42,35.56c-1.25-1-1.87-3.13-.79-4.45a4,4,0,0,1,3-1.47,6.25,6.25,0,0,1,2.18.84c-.11-.05.69-1.17.77-1.26a4.47,4.47,0,0,1,1.28-1c.95-.51,2.61-1,3.28.18a2.84,2.84,0,0,1,.26,1.29c.79-.74,1.74.75,1.82.7a4.23,4.23,0,0,1,3.61-.5,3.36,3.36,0,0,1,1.46.9,5.53,5.53,0,0,1,1.08,2.81,2.46,2.46,0,0,1,3.23,1,3.2,3.2,0,0,1-.51,3.52,3.58,3.58,0,0,1,3,1.32,3.15,3.15,0,0,1,.38,3.22,2.81,2.81,0,0,1-2.79,1.57,1,1,0,0,1-.3,1.77,4.52,4.52,0,0,1,1.44,2.29,2.89,2.89,0,0,1-.57,2.57,2.15,2.15,0,0,1-2.49.57,5.49,5.49,0,0,1,1.1,2.23,3.2,3.2,0,0,1-2.62,3.65,3.81,3.81,0,0,1-4-2.45,1,1,0,0,1-.77.85,1,1,0,0,1-1-.53c.38,1.82-1.31,3.12-2.85,3.63a4.32,4.32,0,0,1-5.32-1.76,1.61,1.61,0,0,1-.13-1.66,1.79,1.79,0,0,1-1,.83.85.85,0,0,1-1-.64c-.39.57-1.23.54-1.9.39a2.77,2.77,0,0,1-1.76-.91c-.39-.56-.22-1.52.45-1.66a2.56,2.56,0,0,1-1.64-.29,1.17,1.17,0,0,1-.49-1.46,3,3,0,0,1-3.19-.2,6.28,6.28,0,0,1-2-2.65c-.76-1.65-1.12-3.74,0-5.18A6.16,6.16,0,0,1,13,42a1.68,1.68,0,0,1,1.27-2.45,5.71,5.71,0,0,1-1-2.68C13.29,35.92,14.77,33.22,19.42,35.56Z"/><path class="cls-65" d="M42.26,32.56a5.22,5.22,0,0,1,3.21-.85,2.77,2.77,0,0,1-1.06-.35.94.94,0,0,1-.43-1,1.35,1.35,0,0,1,.34-.51l.82-.89a4.43,4.43,0,0,1-1.54,0c-.37-.07-.78-.25-.87-.61a1.13,1.13,0,0,1,.41-.94l1.71-2a12.65,12.65,0,0,1-3.11,1.88,2.39,2.39,0,0,1-.93.25A1,1,0,0,1,40,27.2c-.31-.52.11-1.18,0-1.78A8.2,8.2,0,0,1,38.84,27a.84.84,0,0,1-.41.27c-.31.08-.61-.19-.76-.48a5.47,5.47,0,0,0-.42-.88c.06.08-.09.61-.11.71a7.32,7.32,0,0,0-.2,1.47,4.37,4.37,0,0,0,.68,1.64,4.88,4.88,0,0,1,.54,2.1C39.05,31.61,41.53,31.67,42.26,32.56Z"/><path class="cls-66" d="M44.15,49.48c.07-.4.19-.88.58-1a.72.72,0,0,1,.68.17,2.32,2.32,0,0,1,.45.58c0-.35-.43-.61-.39-1a.52.52,0,0,1,.44-.4,1.51,1.51,0,0,1,.63.07l1,.23a2.79,2.79,0,0,1-.86-.52.54.54,0,0,1-.16-.21.37.37,0,0,1,.19-.38A1.1,1.1,0,0,1,47.1,47L50,46.69c-1.13-.24-2.24-.53-3.34-.87-.2-.06-.43-.16-.46-.36s.27-.46.54-.54a1.49,1.49,0,0,1-.86-.24.28.28,0,0,1-.13-.25.25.25,0,0,1,.1-.16,5.09,5.09,0,0,1,.71-.61,10.38,10.38,0,0,1-3.93,1.4c.12.55.29,1.18-.34,1.51A6.73,6.73,0,0,1,44.15,49.48Z"/><path class="cls-67" d="M23.54,28.54s2.19-2.88,5.4-1.89a1.93,1.93,0,0,1,1,1,16.89,16.89,0,0,1,2.49-5.6c-.86.87-1.84,1.62-2.7,2.48a.57.57,0,0,1-.4.23.49.49,0,0,1-.28-.11,2.74,2.74,0,0,1-.8-1.93c0,.51-.16,1.14-.65,1.26a.82.82,0,0,1-.78-.29,2.05,2.05,0,0,1-.37-.79,11.76,11.76,0,0,1-.37-3.84c0,.73-.2,1.62-.24,2.33a4.83,4.83,0,0,1-.42,1.71,1.13,1.13,0,0,1-.64.66c-.44.11-.83-.29-1.11-.65A3.34,3.34,0,0,1,24,24a.53.53,0,0,1,0,.33c-.1.24-.42.26-.67.21A6.25,6.25,0,0,1,20,22.06Z"/><path class="cls-68" d="M22.65,58.3a5.31,5.31,0,0,0,7.47,1.31A11.62,11.62,0,0,0,32,63.92s-2.1-2-2.57-1.26.47,3.06.47,3.06-1.37-2.16-2.09-2.1S25.94,67.57,26,67.75s-.54-4.61-1.32-5-2,2.16-2,2.16.77-2.52,0-3.11-2.46,1-2.46,1S22.53,59.37,22.65,58.3Z"/><path class="cls-69" d="M12.83,38.71a3.37,3.37,0,0,0-1.4,2.49c-.86.54-2.35,1.63-2.57,3.26a17.25,17.25,0,0,0-3.58,1.4S8.67,43.37,6.59,43a14.84,14.84,0,0,0-3.88-.14s4.56-.95,4.74-1.35-2.66-2.58-4.74-3.26c0,0,5.78,1,6,.91S8.58,37,6.82,36.09c2,.68,3.93,1.72,3.62.41s-.57-2.9-.57-2.9Z"/><path class="cls-70" d="M44,37.64a3.79,3.79,0,0,1,1.35,1.66l3,.5s-2-1-2-1.45,1.2-1.51,1.2-1.51-1.6.71-1.91.28,0-2.58,0-2.58A19.68,19.68,0,0,1,44,37.64Z"/><path class="cls-71" d="M16.88,32.56A3.94,3.94,0,0,1,19,29.25L18.15,26s.63,4.29-2.54,1.17c.46,1.09,1.09,2.54.59,2.81S12,29.3,12,29.3s3,1.26,3.12,1.85-2.33,1.22-2.33,1.22Z"/><path class="cls-72" d="M12.31,53.5a1.82,1.82,0,0,0,2,.54c.08.5.46,1,1,.92.12.3.23,1.26,1,1.49l-.46,3s-.38-1.81-.8-1.86S14,60.34,14,60.34s.19-3-.38-3.42S11,59.46,11,59.46s1.56-3.13,1.14-3.62-2.4.42-2.4.42,2-1.3,1.79-1.65a6.43,6.43,0,0,0-1.79-.88Z"/><path class="cls-73" d="M41.07,55.09s-.66,2.41-2.52,3a43,43,0,0,0,2,4s-.16-2.2.55-2.88,2.47.85,2.47.85-1.81-2.63-1-3.29a21.68,21.68,0,0,1,2.35-1.59Z"/><path class="cls-74" d="M41.28,50.89a2.89,2.89,0,0,0,.57-2.57A4.52,4.52,0,0,0,40.41,46a1,1,0,0,0,.3-1.77,2.81,2.81,0,0,0,2.79-1.57,3.15,3.15,0,0,0-.38-3.22,4.18,4.18,0,0,0-.51-.52h-.06a5.05,5.05,0,0,1-.46,3.16,3.23,3.23,0,0,1-2.6,1.7,1.8,1.8,0,0,1-1.92,1.89,3.46,3.46,0,0,1-2.39,3.93,4.58,4.58,0,0,1-2.64-.16,2.72,2.72,0,0,1-1-.54,2.56,2.56,0,0,1-.65-1.1,4.76,4.76,0,0,1,.5-4,1.62,1.62,0,0,1-2-1.8,5.19,5.19,0,0,1-8.65,3.24,2.38,2.38,0,0,1-2.31,1.3,2.51,2.51,0,0,1-2.15-1.68A3,3,0,0,1,13,42a6.16,6.16,0,0,0-2.45,1.64c-1.12,1.44-.76,3.53,0,5.18a6.28,6.28,0,0,0,2,2.65,3,3,0,0,0,3.19.2,1.17,1.17,0,0,0,.49,1.46,2.56,2.56,0,0,0,1.64.29c-.67.14-.84,1.1-.45,1.66a2.77,2.77,0,0,0,1.76.91c.67.15,1.51.18,1.9-.39a.85.85,0,0,0,1,.64,1.79,1.79,0,0,0,1-.83,1.61,1.61,0,0,0,.13,1.66,4.32,4.32,0,0,0,5.32,1.76c1.54-.51,3.23-1.81,2.85-3.63a1,1,0,0,0,1,.53,1,1,0,0,0,.77-.85,3.81,3.81,0,0,0,4,2.45,3.2,3.2,0,0,0,2.62-3.65,5.49,5.49,0,0,0-1.1-2.23A2.15,2.15,0,0,0,41.28,50.89Z"/><path class="cls-75" d="M21.52,51.82a.86.86,0,0,0,1.51.69,3.89,3.89,0,0,0,4.42,2.05,2.13,2.13,0,0,0,.8-.39,1.44,1.44,0,0,0,.33-1.68,1.3,1.3,0,0,0,.83-.5.53.53,0,0,0-.3-.79,1.55,1.55,0,0,0,.55-1.34,2.52,2.52,0,0,0-.61-1.36,2.32,2.32,0,0,0-1.71-.92,2.23,2.23,0,0,0-1.32.56c-.29.23-.49.64-.78.85s-.2.11-.58-.05c-.18-.08-1.34-.11-1.23.33a1.37,1.37,0,0,0-1.24-1,1.36,1.36,0,0,0-1.31.92,2,2,0,0,0-1.22-.54C17.1,48.73,20.33,53.31,21.52,51.82Z"/><path class="cls-76" d="M13.06,45.87c.19,0,.36.1.44.48a1.56,1.56,0,0,1,1.17-.49,1.69,1.69,0,0,1,.5.08,1.48,1.48,0,0,1,.88.71,1.11,1.11,0,0,1-.06,1.1,1,1,0,0,1,.45.79,1.41,1.41,0,0,1-.38,1,1.28,1.28,0,0,1-.75.5.67.67,0,0,1-.75-.39,1.2,1.2,0,0,1-2-1.33,1.22,1.22,0,0,1-1-.87.67.67,0,0,1,1-.74C12.28,46.52,12.69,45.91,13.06,45.87Z"/><path class="cls-77" d="M29.25,33.09a1.64,1.64,0,0,0,1.59-.29,2.25,2.25,0,0,0,1.54,2.35,4.69,4.69,0,0,0,3-.15,1,1,0,0,0,.27,1.62,3.26,3.26,0,0,0-.93,1.53,1.39,1.39,0,0,0,.68,1.54,1.76,1.76,0,0,0-1.87.89A3.12,3.12,0,0,0,31.78,39a2,2,0,0,0-2.17.61,1.76,1.76,0,0,0-1.69-1.15,1.58,1.58,0,0,0-1-1.89A5.21,5.21,0,0,0,24,36.53a4.2,4.2,0,0,0,1.28-.66c.91-.75.73-1.51-.13-2.21a2.69,2.69,0,0,0,2.94-2C28,32.23,28.81,32.94,29.25,33.09Z"/><path class="cls-43" d="M19.26,34.77s-1.41-2,0-3.64a2.79,2.79,0,0,1,3.38-.54A3.77,3.77,0,0,0,19.26,34.77Z"/><path class="cls-43" d="M25,29.43s1.38-1.57,2.78-1.43S29,29.66,29,29.66,27.71,28.05,25,29.43Z"/><path class="cls-43" d="M31.62,30.57a4.78,4.78,0,0,1,3.31-.19,3.13,3.13,0,0,1,1.74,2.48A5.32,5.32,0,0,0,31.62,30.57Z"/><path class="cls-43" d="M18.07,35.61s-2.58-1.26-3.66,0,0,3,0,3S14.14,35.74,18.07,35.61Z"/><path class="cls-43" d="M37.9,34s1.79-.35,2.31.78a3,3,0,0,1-.37,2.83S40.34,34.79,37.9,34Z"/><path class="cls-43" d="M40,38.45s1.55,0,2,.81a2.6,2.6,0,0,1-.28,2.35S42,39,40,38.45Z"/><path class="cls-43" d="M29.84,40s.77-1.07,1.78-.54,1.4,1.12,1.46,1.57C33.08,41.06,31.61,39.43,29.84,40Z"/><path class="cls-43" d="M24.39,36.63a3.07,3.07,0,0,1,2.26.24,1.34,1.34,0,0,1,.76,1.51A5.58,5.58,0,0,0,24.39,36.63Z"/><path class="cls-43" d="M25.84,49.28s.78-1.53,1.88-1A2,2,0,0,1,29,50.62,2.41,2.41,0,0,0,25.84,49.28Z"/><path class="cls-43" d="M21.13,49.26s.27-.75.95-.73a1.2,1.2,0,0,1,1,.73A2.26,2.26,0,0,0,21.13,49.26Z"/><path class="cls-43" d="M13.71,46.41s1.06-.66,1.76,0a.94.94,0,0,1,.23,1.27S15.6,46.41,13.71,46.41Z"/><path class="cls-78" d="M43.29,45.9a6,6,0,0,1,.85,0,8.28,8.28,0,0,1,.84.16l1.66.35h0c-.56,0-1.12-.12-1.69-.19a8,8,0,0,1-.84-.11,5.08,5.08,0,0,1-.82-.24,0,0,0,0,1,0,0Z"/><path class="cls-79" d="M43.52,45.28a1.15,1.15,0,0,1,.31-.16,1.3,1.3,0,0,1,.34,0c.23,0,.45,0,.68,0,0,0,0,0,0,0h0l-.66.18a1.32,1.32,0,0,1-.33.08.89.89,0,0,1-.35-.06h0Z"/><path class="cls-80" d="M43.21,46.56a1.83,1.83,0,0,1,.42.21,3.19,3.19,0,0,1,.33.31l.63.65s0,0,0,0h0c-.26-.16-.5-.34-.75-.51a3.17,3.17,0,0,1-.36-.28,1.47,1.47,0,0,1-.27-.37v0Z"/><path class="cls-81" d="M38.84,30.92a5.81,5.81,0,0,1,.58-.73,8.14,8.14,0,0,1,.67-.64l1.37-1.25h0v0c-.42.46-.83.92-1.26,1.37-.21.23-.41.46-.64.67a5.17,5.17,0,0,1-.73.58h0S38.83,30.93,38.84,30.92Z"/><path class="cls-82" d="M40.42,31.05a2.51,2.51,0,0,1,.48-.32,3.08,3.08,0,0,1,.53-.21l1.07-.38h0a0,0,0,0,1,0,0c-.33.19-.67.36-1,.53a3,3,0,0,1-.51.25,2.08,2.08,0,0,1-.56.13s0,0,0,0Z"/><path class="cls-83" d="M38.7,29.66a2.27,2.27,0,0,1,0-.53,4.2,4.2,0,0,1,.17-.5c.12-.33.25-.65.38-1h0c-.06.34-.14.69-.22,1a2.8,2.8,0,0,1-.12.5,1.92,1.92,0,0,1-.25.47h0Z"/><path class="cls-84" d="M26.37,26a2.3,2.3,0,0,1-.14-.56,3.47,3.47,0,0,1,0-.56c0-.37,0-.74,0-1.12h0a0,0,0,0,1,0,0q.09.56.15,1.11a5.32,5.32,0,0,1,.06.56,2.24,2.24,0,0,1-.08.57s0,0,0,0Z"/><path class="cls-85" d="M29.62,25.91a.76.76,0,0,1,.1-.31,1.17,1.17,0,0,1,.21-.24l.44-.45h0v0c-.1.18-.2.37-.31.55a1.17,1.17,0,0,1-.17.26.88.88,0,0,1-.27.19h0Z"/><path class="cls-86" d="M23.88,26.81a2.4,2.4,0,0,1-.43-.41,5.11,5.11,0,0,1-.33-.48c-.21-.33-.42-.66-.62-1,0,0,0,0,0,0h0c.26.3.51.59.76.9a5.07,5.07,0,0,1,.36.45,3,3,0,0,1,.26.54h0Z"/><path class="cls-87" d="M17.36,29.54a.88.88,0,0,1-.26-.19,1.13,1.13,0,0,1-.16-.26c-.1-.18-.19-.36-.28-.55h0l.42.45a1.45,1.45,0,0,1,.19.23.8.8,0,0,1,.09.31,0,0,0,0,1,0,0Z"/><path class="cls-88" d="M16.77,30.92a1,1,0,0,1-.35,0,1.63,1.63,0,0,1-.31-.11l-.61-.25h0a0,0,0,0,1,0,0q.33,0,.66.09a1.13,1.13,0,0,1,.32.06.7.7,0,0,1,.29.19s0,0,0,0Z"/><path class="cls-89" d="M10.59,40.86a5.58,5.58,0,0,1-.82-.11A7.83,7.83,0,0,1,9,40.5c-.51-.16-1-.34-1.54-.52h0c.54.11,1.07.23,1.6.36a7.62,7.62,0,0,1,.79.2,5,5,0,0,1,.75.32s0,0,0,0Z"/><path class="cls-90" d="M11.08,39.59a1.91,1.91,0,0,1-.43-.29,2.37,2.37,0,0,1-.33-.38c-.22-.26-.44-.52-.65-.79a0,0,0,0,1,0,0h0l.76.67a3,3,0,0,1,.37.34,2.47,2.47,0,0,1,.27.44,0,0,0,0,1,0,0Z"/><path class="cls-91" d="M9.48,41.93a2.35,2.35,0,0,1-.48.23,3.1,3.1,0,0,1-.51.11l-1,.18h0c.33-.12.66-.24,1-.34a2.91,2.91,0,0,1,.5-.16,2.33,2.33,0,0,1,.53,0s0,0,0,0Z"/><path class="cls-92" d="M14,54.47a2.07,2.07,0,0,1-.19.51,2.39,2.39,0,0,1-.31.45c-.21.3-.42.59-.64.88h0c.16-.33.33-.65.5-1a3.17,3.17,0,0,1,.27-.47,2.31,2.31,0,0,1,.37-.4h0Z"/><path class="cls-93" d="M14.79,55.39a1.09,1.09,0,0,1,0,.4,2.11,2.11,0,0,1-.11.38c-.08.26-.17.51-.26.76h0c0-.26.06-.53.1-.79a1.78,1.78,0,0,1,.07-.39,1.14,1.14,0,0,1,.19-.36s0,0,0,0Z"/><path class="cls-94" d="M26.33,61.33a2.65,2.65,0,0,1,.09.61,4.08,4.08,0,0,1,0,.61l-.12,1.22h0c0-.41,0-.82,0-1.22a4.16,4.16,0,0,1,0-.61,3.15,3.15,0,0,1,.13-.61h0Z"/><path class="cls-95" d="M28.2,61.3a1.19,1.19,0,0,1,.24.36,2,2,0,0,1,.12.4c.08.27.15.55.21.82v0h0c-.13-.25-.25-.51-.37-.76a2.66,2.66,0,0,1-.16-.39,1.24,1.24,0,0,1,0-.43s0,0,0,0Z"/><path class="cls-96" d="M24.19,60.45a1.72,1.72,0,0,1-.07.52,2.53,2.53,0,0,1-.19.48l-.42.95h0s0,0,0,0c.08-.34.17-.67.26-1a3.51,3.51,0,0,1,.15-.49,1.74,1.74,0,0,1,.27-.45s0,0,0,0Z"/><path class="cls-97" d="M40.78,57.09a1.27,1.27,0,0,1,.39.18,1.58,1.58,0,0,1,.31.27c.21.19.41.38.6.58,0,0,0,0,0,0h0l-.7-.45a1.72,1.72,0,0,1-.34-.24,1.1,1.1,0,0,1-.26-.34s0,0,0,0Z"/></g></g></svg>